<?xml version="1.0" encoding="utf-8" standalone="no"?>
<!DOCTYPE svg PUBLIC "-//W3C//DTD SVG 1.1//EN"
  "http://www.w3.org/Graphics/SVG/1.1/DTD/svg11.dtd">
<!-- Created with matplotlib (http://matplotlib.org/) -->
<svg height="345pt" version="1.1" viewBox="0 0 460 345" width="460pt" xmlns="http://www.w3.org/2000/svg" xmlns:xlink="http://www.w3.org/1999/xlink">
 <defs>
  <style type="text/css">
*{stroke-linecap:butt;stroke-linejoin:round;}
  </style>
 </defs>
 <g id="figure_1">
  <g id="patch_1">
   <path d="M 0 345.6 
L 460.8 345.6 
L 460.8 0 
L 0 0 
z
" style="fill:#ffffff;"/>
  </g>
  <g id="axes_1">
   <g id="patch_2">
    <path d="M 57.6 307.584 
L 414.72 307.584 
L 414.72 41.472 
L 57.6 41.472 
z
" style="fill:#ffffff;"/>
   </g>
   <g id="patch_3">
    <path clip-path="url(#p5778c31ae1)" d="M 73.832727 307.584 
L 74.704868 307.584 
L 74.704868 55.414368 
L 73.832727 55.414368 
z
" style="fill:#1f77b4;"/>
   </g>
   <g id="patch_4">
    <path clip-path="url(#p5778c31ae1)" d="M 74.922904 307.584 
L 75.795045 307.584 
L 75.795045 56.402784 
L 74.922904 56.402784 
z
" style="fill:#1f77b4;"/>
   </g>
   <g id="patch_5">
    <path clip-path="url(#p5778c31ae1)" d="M 76.01308 307.584 
L 76.885221 307.584 
L 76.885221 57.0744 
L 76.01308 57.0744 
z
" style="fill:#1f77b4;"/>
   </g>
   <g id="patch_6">
    <path clip-path="url(#p5778c31ae1)" d="M 77.103257 307.584 
L 77.975398 307.584 
L 77.975398 56.06064 
L 77.103257 56.06064 
z
" style="fill:#1f77b4;"/>
   </g>
   <g id="patch_7">
    <path clip-path="url(#p5778c31ae1)" d="M 78.193433 307.584 
L 79.065574 307.584 
L 79.065574 56.919168 
L 78.193433 56.919168 
z
" style="fill:#1f77b4;"/>
   </g>
   <g id="patch_8">
    <path clip-path="url(#p5778c31ae1)" d="M 79.283609 307.584 
L 80.155751 307.584 
L 80.155751 57.20112 
L 79.283609 57.20112 
z
" style="fill:#1f77b4;"/>
   </g>
   <g id="patch_9">
    <path clip-path="url(#p5778c31ae1)" d="M 80.373786 307.584 
L 81.245927 307.584 
L 81.245927 58.306752 
L 80.373786 58.306752 
z
" style="fill:#1f77b4;"/>
   </g>
   <g id="patch_10">
    <path clip-path="url(#p5778c31ae1)" d="M 81.463962 307.584 
L 82.336104 307.584 
L 82.336104 56.577024 
L 81.463962 56.577024 
z
" style="fill:#1f77b4;"/>
   </g>
   <g id="patch_11">
    <path clip-path="url(#p5778c31ae1)" d="M 82.554139 307.584 
L 83.42628 307.584 
L 83.42628 55.2528 
L 82.554139 55.2528 
z
" style="fill:#1f77b4;"/>
   </g>
   <g id="patch_12">
    <path clip-path="url(#p5778c31ae1)" d="M 83.644315 307.584 
L 84.516456 307.584 
L 84.516456 56.085984 
L 83.644315 56.085984 
z
" style="fill:#1f77b4;"/>
   </g>
   <g id="patch_13">
    <path clip-path="url(#p5778c31ae1)" d="M 84.734492 307.584 
L 85.606633 307.584 
L 85.606633 56.165184 
L 84.734492 56.165184 
z
" style="fill:#1f77b4;"/>
   </g>
   <g id="patch_14">
    <path clip-path="url(#p5778c31ae1)" d="M 85.824668 307.584 
L 86.696809 307.584 
L 86.696809 54.457632 
L 85.824668 54.457632 
z
" style="fill:#1f77b4;"/>
   </g>
   <g id="patch_15">
    <path clip-path="url(#p5778c31ae1)" d="M 86.914845 307.584 
L 87.786986 307.584 
L 87.786986 54.514656 
L 86.914845 54.514656 
z
" style="fill:#1f77b4;"/>
   </g>
   <g id="patch_16">
    <path clip-path="url(#p5778c31ae1)" d="M 88.005021 307.584 
L 88.877162 307.584 
L 88.877162 54.368928 
L 88.005021 54.368928 
z
" style="fill:#1f77b4;"/>
   </g>
   <g id="patch_17">
    <path clip-path="url(#p5778c31ae1)" d="M 89.095198 307.584 
L 89.967339 307.584 
L 89.967339 57.324672 
L 89.095198 57.324672 
z
" style="fill:#1f77b4;"/>
   </g>
   <g id="patch_18">
    <path clip-path="url(#p5778c31ae1)" d="M 90.185374 307.584 
L 91.057515 307.584 
L 91.057515 57.144096 
L 90.185374 57.144096 
z
" style="fill:#1f77b4;"/>
   </g>
   <g id="patch_19">
    <path clip-path="url(#p5778c31ae1)" d="M 91.27555 307.584 
L 92.147692 307.584 
L 92.147692 57.023712 
L 91.27555 57.023712 
z
" style="fill:#1f77b4;"/>
   </g>
   <g id="patch_20">
    <path clip-path="url(#p5778c31ae1)" d="M 92.365727 307.584 
L 93.237868 307.584 
L 93.237868 57.365856 
L 92.365727 57.365856 
z
" style="fill:#1f77b4;"/>
   </g>
   <g id="patch_21">
    <path clip-path="url(#p5778c31ae1)" d="M 93.455903 307.584 
L 94.328044 307.584 
L 94.328044 58.379616 
L 93.455903 58.379616 
z
" style="fill:#1f77b4;"/>
   </g>
   <g id="patch_22">
    <path clip-path="url(#p5778c31ae1)" d="M 94.54608 307.584 
L 95.418221 307.584 
L 95.418221 57.3912 
L 94.54608 57.3912 
z
" style="fill:#1f77b4;"/>
   </g>
   <g id="patch_23">
    <path clip-path="url(#p5778c31ae1)" d="M 95.636256 307.584 
L 96.508397 307.584 
L 96.508397 119.401632 
L 95.636256 119.401632 
z
" style="fill:#1f77b4;"/>
   </g>
   <g id="patch_24">
    <path clip-path="url(#p5778c31ae1)" d="M 96.726433 307.584 
L 97.598574 307.584 
L 97.598574 84.179808 
L 96.726433 84.179808 
z
" style="fill:#1f77b4;"/>
   </g>
   <g id="patch_25">
    <path clip-path="url(#p5778c31ae1)" d="M 97.816609 307.584 
L 98.68875 307.584 
L 98.68875 55.477728 
L 97.816609 55.477728 
z
" style="fill:#1f77b4;"/>
   </g>
   <g id="patch_26">
    <path clip-path="url(#p5778c31ae1)" d="M 98.906786 307.584 
L 99.778927 307.584 
L 99.778927 56.415456 
L 98.906786 56.415456 
z
" style="fill:#1f77b4;"/>
   </g>
   <g id="patch_27">
    <path clip-path="url(#p5778c31ae1)" d="M 99.996962 307.584 
L 100.869103 307.584 
L 100.869103 58.433472 
L 99.996962 58.433472 
z
" style="fill:#1f77b4;"/>
   </g>
   <g id="patch_28">
    <path clip-path="url(#p5778c31ae1)" d="M 101.087138 307.584 
L 101.95928 307.584 
L 101.95928 57.049056 
L 101.087138 57.049056 
z
" style="fill:#1f77b4;"/>
   </g>
   <g id="patch_29">
    <path clip-path="url(#p5778c31ae1)" d="M 102.177315 307.584 
L 103.049456 307.584 
L 103.049456 56.744928 
L 102.177315 56.744928 
z
" style="fill:#1f77b4;"/>
   </g>
   <g id="patch_30">
    <path clip-path="url(#p5778c31ae1)" d="M 103.267491 307.584 
L 104.139632 307.584 
L 104.139632 54.39744 
L 103.267491 54.39744 
z
" style="fill:#1f77b4;"/>
   </g>
   <g id="patch_31">
    <path clip-path="url(#p5778c31ae1)" d="M 104.357668 307.584 
L 105.229809 307.584 
L 105.229809 55.804032 
L 104.357668 55.804032 
z
" style="fill:#1f77b4;"/>
   </g>
   <g id="patch_32">
    <path clip-path="url(#p5778c31ae1)" d="M 105.447844 307.584 
L 106.319985 307.584 
L 106.319985 55.075392 
L 105.447844 55.075392 
z
" style="fill:#1f77b4;"/>
   </g>
   <g id="patch_33">
    <path clip-path="url(#p5778c31ae1)" d="M 106.538021 307.584 
L 107.410162 307.584 
L 107.410162 54.764928 
L 106.538021 54.764928 
z
" style="fill:#1f77b4;"/>
   </g>
   <g id="patch_34">
    <path clip-path="url(#p5778c31ae1)" d="M 107.628197 307.584 
L 108.500338 307.584 
L 108.500338 55.084896 
L 107.628197 55.084896 
z
" style="fill:#1f77b4;"/>
   </g>
   <g id="patch_35">
    <path clip-path="url(#p5778c31ae1)" d="M 108.718374 307.584 
L 109.590515 307.584 
L 109.590515 57.917088 
L 108.718374 57.917088 
z
" style="fill:#1f77b4;"/>
   </g>
   <g id="patch_36">
    <path clip-path="url(#p5778c31ae1)" d="M 109.80855 307.584 
L 110.680691 307.584 
L 110.680691 55.740672 
L 109.80855 55.740672 
z
" style="fill:#1f77b4;"/>
   </g>
   <g id="patch_37">
    <path clip-path="url(#p5778c31ae1)" d="M 110.898726 307.584 
L 111.770868 307.584 
L 111.770868 57.397536 
L 110.898726 57.397536 
z
" style="fill:#1f77b4;"/>
   </g>
   <g id="patch_38">
    <path clip-path="url(#p5778c31ae1)" d="M 111.988903 307.584 
L 112.861044 307.584 
L 112.861044 55.151424 
L 111.988903 55.151424 
z
" style="fill:#1f77b4;"/>
   </g>
   <g id="patch_39">
    <path clip-path="url(#p5778c31ae1)" d="M 113.079079 307.584 
L 113.95122 307.584 
L 113.95122 57.89808 
L 113.079079 57.89808 
z
" style="fill:#1f77b4;"/>
   </g>
   <g id="patch_40">
    <path clip-path="url(#p5778c31ae1)" d="M 114.169256 307.584 
L 115.041397 307.584 
L 115.041397 58.496832 
L 114.169256 58.496832 
z
" style="fill:#1f77b4;"/>
   </g>
   <g id="patch_41">
    <path clip-path="url(#p5778c31ae1)" d="M 115.259432 307.584 
L 116.131573 307.584 
L 116.131573 55.91808 
L 115.259432 55.91808 
z
" style="fill:#1f77b4;"/>
   </g>
   <g id="patch_42">
    <path clip-path="url(#p5778c31ae1)" d="M 116.349609 307.584 
L 117.22175 307.584 
L 117.22175 57.511584 
L 116.349609 57.511584 
z
" style="fill:#1f77b4;"/>
   </g>
   <g id="patch_43">
    <path clip-path="url(#p5778c31ae1)" d="M 117.439785 307.584 
L 118.311926 307.584 
L 118.311926 54.435456 
L 117.439785 54.435456 
z
" style="fill:#1f77b4;"/>
   </g>
   <g id="patch_44">
    <path clip-path="url(#p5778c31ae1)" d="M 118.529962 307.584 
L 119.402103 307.584 
L 119.402103 57.10608 
L 118.529962 57.10608 
z
" style="fill:#1f77b4;"/>
   </g>
   <g id="patch_45">
    <path clip-path="url(#p5778c31ae1)" d="M 119.620138 307.584 
L 120.492279 307.584 
L 120.492279 56.976192 
L 119.620138 56.976192 
z
" style="fill:#1f77b4;"/>
   </g>
   <g id="patch_46">
    <path clip-path="url(#p5778c31ae1)" d="M 120.710314 307.584 
L 121.582456 307.584 
L 121.582456 56.288736 
L 120.710314 56.288736 
z
" style="fill:#1f77b4;"/>
   </g>
   <g id="patch_47">
    <path clip-path="url(#p5778c31ae1)" d="M 121.800491 307.584 
L 122.672632 307.584 
L 122.672632 54.517824 
L 121.800491 54.517824 
z
" style="fill:#1f77b4;"/>
   </g>
   <g id="patch_48">
    <path clip-path="url(#p5778c31ae1)" d="M 122.890667 307.584 
L 123.762808 307.584 
L 123.762808 55.61712 
L 122.890667 55.61712 
z
" style="fill:#1f77b4;"/>
   </g>
   <g id="patch_49">
    <path clip-path="url(#p5778c31ae1)" d="M 123.980844 307.584 
L 124.852985 307.584 
L 124.852985 54.343584 
L 123.980844 54.343584 
z
" style="fill:#1f77b4;"/>
   </g>
   <g id="patch_50">
    <path clip-path="url(#p5778c31ae1)" d="M 125.07102 307.584 
L 125.943161 307.584 
L 125.943161 54.720576 
L 125.07102 54.720576 
z
" style="fill:#1f77b4;"/>
   </g>
   <g id="patch_51">
    <path clip-path="url(#p5778c31ae1)" d="M 126.161197 307.584 
L 127.033338 307.584 
L 127.033338 55.496736 
L 126.161197 55.496736 
z
" style="fill:#1f77b4;"/>
   </g>
   <g id="patch_52">
    <path clip-path="url(#p5778c31ae1)" d="M 127.251373 307.584 
L 128.123514 307.584 
L 128.123514 58.458816 
L 127.251373 58.458816 
z
" style="fill:#1f77b4;"/>
   </g>
   <g id="patch_53">
    <path clip-path="url(#p5778c31ae1)" d="M 128.34155 307.584 
L 129.213691 307.584 
L 129.213691 56.428128 
L 128.34155 56.428128 
z
" style="fill:#1f77b4;"/>
   </g>
   <g id="patch_54">
    <path clip-path="url(#p5778c31ae1)" d="M 129.431726 307.584 
L 130.303867 307.584 
L 130.303867 57.372192 
L 129.431726 57.372192 
z
" style="fill:#1f77b4;"/>
   </g>
   <g id="patch_55">
    <path clip-path="url(#p5778c31ae1)" d="M 130.521902 307.584 
L 131.394044 307.584 
L 131.394044 58.509504 
L 130.521902 58.509504 
z
" style="fill:#1f77b4;"/>
   </g>
   <g id="patch_56">
    <path clip-path="url(#p5778c31ae1)" d="M 131.612079 307.584 
L 132.48422 307.584 
L 132.48422 57.685824 
L 131.612079 57.685824 
z
" style="fill:#1f77b4;"/>
   </g>
   <g id="patch_57">
    <path clip-path="url(#p5778c31ae1)" d="M 132.702255 307.584 
L 133.574396 307.584 
L 133.574396 55.610784 
L 132.702255 55.610784 
z
" style="fill:#1f77b4;"/>
   </g>
   <g id="patch_58">
    <path clip-path="url(#p5778c31ae1)" d="M 133.792432 307.584 
L 134.664573 307.584 
L 134.664573 56.903328 
L 133.792432 56.903328 
z
" style="fill:#1f77b4;"/>
   </g>
   <g id="patch_59">
    <path clip-path="url(#p5778c31ae1)" d="M 134.882608 307.584 
L 135.754749 307.584 
L 135.754749 57.403872 
L 134.882608 57.403872 
z
" style="fill:#1f77b4;"/>
   </g>
   <g id="patch_60">
    <path clip-path="url(#p5778c31ae1)" d="M 135.972785 307.584 
L 136.844926 307.584 
L 136.844926 56.9952 
L 135.972785 56.9952 
z
" style="fill:#1f77b4;"/>
   </g>
   <g id="patch_61">
    <path clip-path="url(#p5778c31ae1)" d="M 137.062961 307.584 
L 137.935102 307.584 
L 137.935102 56.801952 
L 137.062961 56.801952 
z
" style="fill:#1f77b4;"/>
   </g>
   <g id="patch_62">
    <path clip-path="url(#p5778c31ae1)" d="M 138.153138 307.584 
L 139.025279 307.584 
L 139.025279 56.4408 
L 138.153138 56.4408 
z
" style="fill:#1f77b4;"/>
   </g>
   <g id="patch_63">
    <path clip-path="url(#p5778c31ae1)" d="M 139.243314 307.584 
L 140.115455 307.584 
L 140.115455 56.047968 
L 139.243314 56.047968 
z
" style="fill:#1f77b4;"/>
   </g>
   <g id="patch_64">
    <path clip-path="url(#p5778c31ae1)" d="M 140.33349 307.584 
L 141.205632 307.584 
L 141.205632 55.946592 
L 140.33349 55.946592 
z
" style="fill:#1f77b4;"/>
   </g>
   <g id="patch_65">
    <path clip-path="url(#p5778c31ae1)" d="M 141.423667 307.584 
L 142.295808 307.584 
L 142.295808 57.156768 
L 141.423667 57.156768 
z
" style="fill:#1f77b4;"/>
   </g>
   <g id="patch_66">
    <path clip-path="url(#p5778c31ae1)" d="M 142.513843 307.584 
L 143.385984 307.584 
L 143.385984 58.11984 
L 142.513843 58.11984 
z
" style="fill:#1f77b4;"/>
   </g>
   <g id="patch_67">
    <path clip-path="url(#p5778c31ae1)" d="M 143.60402 307.584 
L 144.476161 307.584 
L 144.476161 56.824128 
L 143.60402 56.824128 
z
" style="fill:#1f77b4;"/>
   </g>
   <g id="patch_68">
    <path clip-path="url(#p5778c31ae1)" d="M 144.694196 307.584 
L 145.566337 307.584 
L 145.566337 54.783936 
L 144.694196 54.783936 
z
" style="fill:#1f77b4;"/>
   </g>
   <g id="patch_69">
    <path clip-path="url(#p5778c31ae1)" d="M 145.784373 307.584 
L 146.656514 307.584 
L 146.656514 56.336256 
L 145.784373 56.336256 
z
" style="fill:#1f77b4;"/>
   </g>
   <g id="patch_70">
    <path clip-path="url(#p5778c31ae1)" d="M 146.874549 307.584 
L 147.74669 307.584 
L 147.74669 55.6488 
L 146.874549 55.6488 
z
" style="fill:#1f77b4;"/>
   </g>
   <g id="patch_71">
    <path clip-path="url(#p5778c31ae1)" d="M 147.964726 307.584 
L 148.836867 307.584 
L 148.836867 57.445056 
L 147.964726 57.445056 
z
" style="fill:#1f77b4;"/>
   </g>
   <g id="patch_72">
    <path clip-path="url(#p5778c31ae1)" d="M 149.054902 307.584 
L 149.927043 307.584 
L 149.927043 58.268736 
L 149.054902 58.268736 
z
" style="fill:#1f77b4;"/>
   </g>
   <g id="patch_73">
    <path clip-path="url(#p5778c31ae1)" d="M 150.145078 307.584 
L 151.01722 307.584 
L 151.01722 54.394272 
L 150.145078 54.394272 
z
" style="fill:#1f77b4;"/>
   </g>
   <g id="patch_74">
    <path clip-path="url(#p5778c31ae1)" d="M 151.235255 307.584 
L 152.107396 307.584 
L 152.107396 58.40496 
L 151.235255 58.40496 
z
" style="fill:#1f77b4;"/>
   </g>
   <g id="patch_75">
    <path clip-path="url(#p5778c31ae1)" d="M 152.325431 307.584 
L 153.197573 307.584 
L 153.197573 58.430304 
L 152.325431 58.430304 
z
" style="fill:#1f77b4;"/>
   </g>
   <g id="patch_76">
    <path clip-path="url(#p5778c31ae1)" d="M 153.415608 307.584 
L 154.287749 307.584 
L 154.287749 55.756512 
L 153.415608 55.756512 
z
" style="fill:#1f77b4;"/>
   </g>
   <g id="patch_77">
    <path clip-path="url(#p5778c31ae1)" d="M 154.505784 307.584 
L 155.377925 307.584 
L 155.377925 56.665728 
L 154.505784 56.665728 
z
" style="fill:#1f77b4;"/>
   </g>
   <g id="patch_78">
    <path clip-path="url(#p5778c31ae1)" d="M 155.595961 307.584 
L 156.468102 307.584 
L 156.468102 56.577024 
L 155.595961 56.577024 
z
" style="fill:#1f77b4;"/>
   </g>
   <g id="patch_79">
    <path clip-path="url(#p5778c31ae1)" d="M 156.686137 307.584 
L 157.558278 307.584 
L 157.558278 55.351008 
L 156.686137 55.351008 
z
" style="fill:#1f77b4;"/>
   </g>
   <g id="patch_80">
    <path clip-path="url(#p5778c31ae1)" d="M 157.776314 307.584 
L 158.648455 307.584 
L 158.648455 56.162016 
L 157.776314 56.162016 
z
" style="fill:#1f77b4;"/>
   </g>
   <g id="patch_81">
    <path clip-path="url(#p5778c31ae1)" d="M 158.86649 307.584 
L 159.738631 307.584 
L 159.738631 56.257056 
L 158.86649 56.257056 
z
" style="fill:#1f77b4;"/>
   </g>
   <g id="patch_82">
    <path clip-path="url(#p5778c31ae1)" d="M 159.956666 307.584 
L 160.828808 307.584 
L 160.828808 57.822048 
L 159.956666 57.822048 
z
" style="fill:#1f77b4;"/>
   </g>
   <g id="patch_83">
    <path clip-path="url(#p5778c31ae1)" d="M 161.046843 307.584 
L 161.918984 307.584 
L 161.918984 57.654144 
L 161.046843 57.654144 
z
" style="fill:#1f77b4;"/>
   </g>
   <g id="patch_84">
    <path clip-path="url(#p5778c31ae1)" d="M 162.137019 307.584 
L 163.009161 307.584 
L 163.009161 56.998368 
L 162.137019 56.998368 
z
" style="fill:#1f77b4;"/>
   </g>
   <g id="patch_85">
    <path clip-path="url(#p5778c31ae1)" d="M 163.227196 307.584 
L 164.099337 307.584 
L 164.099337 55.937088 
L 163.227196 55.937088 
z
" style="fill:#1f77b4;"/>
   </g>
   <g id="patch_86">
    <path clip-path="url(#p5778c31ae1)" d="M 164.317372 307.584 
L 165.189513 307.584 
L 165.189513 57.277152 
L 164.317372 57.277152 
z
" style="fill:#1f77b4;"/>
   </g>
   <g id="patch_87">
    <path clip-path="url(#p5778c31ae1)" d="M 165.407549 307.584 
L 166.27969 307.584 
L 166.27969 56.133504 
L 165.407549 56.133504 
z
" style="fill:#1f77b4;"/>
   </g>
   <g id="patch_88">
    <path clip-path="url(#p5778c31ae1)" d="M 166.497725 307.584 
L 167.369866 307.584 
L 167.369866 57.894912 
L 166.497725 57.894912 
z
" style="fill:#1f77b4;"/>
   </g>
   <g id="patch_89">
    <path clip-path="url(#p5778c31ae1)" d="M 167.587902 307.584 
L 168.460043 307.584 
L 168.460043 58.256064 
L 167.587902 58.256064 
z
" style="fill:#1f77b4;"/>
   </g>
   <g id="patch_90">
    <path clip-path="url(#p5778c31ae1)" d="M 168.678078 307.584 
L 169.550219 307.584 
L 169.550219 56.605536 
L 168.678078 56.605536 
z
" style="fill:#1f77b4;"/>
   </g>
   <g id="patch_91">
    <path clip-path="url(#p5778c31ae1)" d="M 169.768254 307.584 
L 170.640396 307.584 
L 170.640396 57.467232 
L 169.768254 57.467232 
z
" style="fill:#1f77b4;"/>
   </g>
   <g id="patch_92">
    <path clip-path="url(#p5778c31ae1)" d="M 170.858431 307.584 
L 171.730572 307.584 
L 171.730572 57.48624 
L 170.858431 57.48624 
z
" style="fill:#1f77b4;"/>
   </g>
   <g id="patch_93">
    <path clip-path="url(#p5778c31ae1)" d="M 171.948607 307.584 
L 172.820749 307.584 
L 172.820749 55.990944 
L 171.948607 55.990944 
z
" style="fill:#1f77b4;"/>
   </g>
   <g id="patch_94">
    <path clip-path="url(#p5778c31ae1)" d="M 173.038784 307.584 
L 173.910925 307.584 
L 173.910925 57.02688 
L 173.038784 57.02688 
z
" style="fill:#1f77b4;"/>
   </g>
   <g id="patch_95">
    <path clip-path="url(#p5778c31ae1)" d="M 174.12896 307.584 
L 175.001101 307.584 
L 175.001101 57.989952 
L 174.12896 57.989952 
z
" style="fill:#1f77b4;"/>
   </g>
   <g id="patch_96">
    <path clip-path="url(#p5778c31ae1)" d="M 175.219137 307.584 
L 176.091278 307.584 
L 176.091278 55.037376 
L 175.219137 55.037376 
z
" style="fill:#1f77b4;"/>
   </g>
   <g id="patch_97">
    <path clip-path="url(#p5778c31ae1)" d="M 176.309313 307.584 
L 177.181454 307.584 
L 177.181454 56.257056 
L 176.309313 56.257056 
z
" style="fill:#1f77b4;"/>
   </g>
   <g id="patch_98">
    <path clip-path="url(#p5778c31ae1)" d="M 177.39949 307.584 
L 178.271631 307.584 
L 178.271631 55.433376 
L 177.39949 55.433376 
z
" style="fill:#1f77b4;"/>
   </g>
   <g id="patch_99">
    <path clip-path="url(#p5778c31ae1)" d="M 178.489666 307.584 
L 179.361807 307.584 
L 179.361807 56.573856 
L 178.489666 56.573856 
z
" style="fill:#1f77b4;"/>
   </g>
   <g id="patch_100">
    <path clip-path="url(#p5778c31ae1)" d="M 179.579842 307.584 
L 180.451984 307.584 
L 180.451984 54.768096 
L 179.579842 54.768096 
z
" style="fill:#1f77b4;"/>
   </g>
   <g id="patch_101">
    <path clip-path="url(#p5778c31ae1)" d="M 180.670019 307.584 
L 181.54216 307.584 
L 181.54216 56.035296 
L 180.670019 56.035296 
z
" style="fill:#1f77b4;"/>
   </g>
   <g id="patch_102">
    <path clip-path="url(#p5778c31ae1)" d="M 181.760195 307.584 
L 182.632337 307.584 
L 182.632337 57.077568 
L 181.760195 57.077568 
z
" style="fill:#1f77b4;"/>
   </g>
   <g id="patch_103">
    <path clip-path="url(#p5778c31ae1)" d="M 182.850372 307.584 
L 183.722513 307.584 
L 183.722513 56.177856 
L 182.850372 56.177856 
z
" style="fill:#1f77b4;"/>
   </g>
   <g id="patch_104">
    <path clip-path="url(#p5778c31ae1)" d="M 183.940548 307.584 
L 184.812689 307.584 
L 184.812689 55.819872 
L 183.940548 55.819872 
z
" style="fill:#1f77b4;"/>
   </g>
   <g id="patch_105">
    <path clip-path="url(#p5778c31ae1)" d="M 185.030725 307.584 
L 185.902866 307.584 
L 185.902866 56.047968 
L 185.030725 56.047968 
z
" style="fill:#1f77b4;"/>
   </g>
   <g id="patch_106">
    <path clip-path="url(#p5778c31ae1)" d="M 186.120901 307.584 
L 186.993042 307.584 
L 186.993042 56.437632 
L 186.120901 56.437632 
z
" style="fill:#1f77b4;"/>
   </g>
   <g id="patch_107">
    <path clip-path="url(#p5778c31ae1)" d="M 187.211078 307.584 
L 188.083219 307.584 
L 188.083219 56.573856 
L 187.211078 56.573856 
z
" style="fill:#1f77b4;"/>
   </g>
   <g id="patch_108">
    <path clip-path="url(#p5778c31ae1)" d="M 188.301254 307.584 
L 189.173395 307.584 
L 189.173395 56.2824 
L 188.301254 56.2824 
z
" style="fill:#1f77b4;"/>
   </g>
   <g id="patch_109">
    <path clip-path="url(#p5778c31ae1)" d="M 189.39143 307.584 
L 190.263572 307.584 
L 190.263572 57.071232 
L 189.39143 57.071232 
z
" style="fill:#1f77b4;"/>
   </g>
   <g id="patch_110">
    <path clip-path="url(#p5778c31ae1)" d="M 190.481607 307.584 
L 191.353748 307.584 
L 191.353748 55.167264 
L 190.481607 55.167264 
z
" style="fill:#1f77b4;"/>
   </g>
   <g id="patch_111">
    <path clip-path="url(#p5778c31ae1)" d="M 191.571783 307.584 
L 192.443925 307.584 
L 192.443925 56.47248 
L 191.571783 56.47248 
z
" style="fill:#1f77b4;"/>
   </g>
   <g id="patch_112">
    <path clip-path="url(#p5778c31ae1)" d="M 192.66196 307.584 
L 193.534101 307.584 
L 193.534101 56.288736 
L 192.66196 56.288736 
z
" style="fill:#1f77b4;"/>
   </g>
   <g id="patch_113">
    <path clip-path="url(#p5778c31ae1)" d="M 193.752136 307.584 
L 194.624277 307.584 
L 194.624277 57.321504 
L 193.752136 57.321504 
z
" style="fill:#1f77b4;"/>
   </g>
   <g id="patch_114">
    <path clip-path="url(#p5778c31ae1)" d="M 194.842313 307.584 
L 195.714454 307.584 
L 195.714454 57.521088 
L 194.842313 57.521088 
z
" style="fill:#1f77b4;"/>
   </g>
   <g id="patch_115">
    <path clip-path="url(#p5778c31ae1)" d="M 195.932489 307.584 
L 196.80463 307.584 
L 196.80463 58.084992 
L 195.932489 58.084992 
z
" style="fill:#1f77b4;"/>
   </g>
   <g id="patch_116">
    <path clip-path="url(#p5778c31ae1)" d="M 197.022666 307.584 
L 197.894807 307.584 
L 197.894807 54.172512 
L 197.022666 54.172512 
z
" style="fill:#1f77b4;"/>
   </g>
   <g id="patch_117">
    <path clip-path="url(#p5778c31ae1)" d="M 198.112842 307.584 
L 198.984983 307.584 
L 198.984983 57.799872 
L 198.112842 57.799872 
z
" style="fill:#1f77b4;"/>
   </g>
   <g id="patch_118">
    <path clip-path="url(#p5778c31ae1)" d="M 199.203018 307.584 
L 200.07516 307.584 
L 200.07516 55.195776 
L 199.203018 55.195776 
z
" style="fill:#1f77b4;"/>
   </g>
   <g id="patch_119">
    <path clip-path="url(#p5778c31ae1)" d="M 200.293195 307.584 
L 201.165336 307.584 
L 201.165336 55.98144 
L 200.293195 55.98144 
z
" style="fill:#1f77b4;"/>
   </g>
   <g id="patch_120">
    <path clip-path="url(#p5778c31ae1)" d="M 201.383371 307.584 
L 202.255513 307.584 
L 202.255513 58.439808 
L 201.383371 58.439808 
z
" style="fill:#1f77b4;"/>
   </g>
   <g id="patch_121">
    <path clip-path="url(#p5778c31ae1)" d="M 202.473548 307.584 
L 203.345689 307.584 
L 203.345689 54.989856 
L 202.473548 54.989856 
z
" style="fill:#1f77b4;"/>
   </g>
   <g id="patch_122">
    <path clip-path="url(#p5778c31ae1)" d="M 203.563724 307.584 
L 204.435865 307.584 
L 204.435865 57.492576 
L 203.563724 57.492576 
z
" style="fill:#1f77b4;"/>
   </g>
   <g id="patch_123">
    <path clip-path="url(#p5778c31ae1)" d="M 204.653901 307.584 
L 205.526042 307.584 
L 205.526042 55.148256 
L 204.653901 55.148256 
z
" style="fill:#1f77b4;"/>
   </g>
   <g id="patch_124">
    <path clip-path="url(#p5778c31ae1)" d="M 205.744077 307.584 
L 206.616218 307.584 
L 206.616218 54.201024 
L 205.744077 54.201024 
z
" style="fill:#1f77b4;"/>
   </g>
   <g id="patch_125">
    <path clip-path="url(#p5778c31ae1)" d="M 206.834254 307.584 
L 207.706395 307.584 
L 207.706395 56.78928 
L 206.834254 56.78928 
z
" style="fill:#1f77b4;"/>
   </g>
   <g id="patch_126">
    <path clip-path="url(#p5778c31ae1)" d="M 207.92443 307.584 
L 208.796571 307.584 
L 208.796571 57.315168 
L 207.92443 57.315168 
z
" style="fill:#1f77b4;"/>
   </g>
   <g id="patch_127">
    <path clip-path="url(#p5778c31ae1)" d="M 209.014607 307.584 
L 209.886748 307.584 
L 209.886748 58.303584 
L 209.014607 58.303584 
z
" style="fill:#1f77b4;"/>
   </g>
   <g id="patch_128">
    <path clip-path="url(#p5778c31ae1)" d="M 210.104783 307.584 
L 210.976924 307.584 
L 210.976924 55.990944 
L 210.104783 55.990944 
z
" style="fill:#1f77b4;"/>
   </g>
   <g id="patch_129">
    <path clip-path="url(#p5778c31ae1)" d="M 211.194959 307.584 
L 212.067101 307.584 
L 212.067101 56.196864 
L 211.194959 56.196864 
z
" style="fill:#1f77b4;"/>
   </g>
   <g id="patch_130">
    <path clip-path="url(#p5778c31ae1)" d="M 212.285136 307.584 
L 213.157277 307.584 
L 213.157277 57.980448 
L 212.285136 57.980448 
z
" style="fill:#1f77b4;"/>
   </g>
   <g id="patch_131">
    <path clip-path="url(#p5778c31ae1)" d="M 213.375312 307.584 
L 214.247453 307.584 
L 214.247453 54.258048 
L 213.375312 54.258048 
z
" style="fill:#1f77b4;"/>
   </g>
   <g id="patch_132">
    <path clip-path="url(#p5778c31ae1)" d="M 214.465489 307.584 
L 215.33763 307.584 
L 215.33763 59.048064 
L 214.465489 59.048064 
z
" style="fill:#1f77b4;"/>
   </g>
   <g id="patch_133">
    <path clip-path="url(#p5778c31ae1)" d="M 215.555665 307.584 
L 216.427806 307.584 
L 216.427806 57.451392 
L 215.555665 57.451392 
z
" style="fill:#1f77b4;"/>
   </g>
   <g id="patch_134">
    <path clip-path="url(#p5778c31ae1)" d="M 216.645842 307.584 
L 217.517983 307.584 
L 217.517983 57.12192 
L 216.645842 57.12192 
z
" style="fill:#1f77b4;"/>
   </g>
   <g id="patch_135">
    <path clip-path="url(#p5778c31ae1)" d="M 217.736018 307.584 
L 218.608159 307.584 
L 218.608159 56.181024 
L 217.736018 56.181024 
z
" style="fill:#1f77b4;"/>
   </g>
   <g id="patch_136">
    <path clip-path="url(#p5778c31ae1)" d="M 218.826195 307.584 
L 219.698336 307.584 
L 219.698336 57.3912 
L 218.826195 57.3912 
z
" style="fill:#1f77b4;"/>
   </g>
   <g id="patch_137">
    <path clip-path="url(#p5778c31ae1)" d="M 219.916371 307.584 
L 220.788512 307.584 
L 220.788512 58.208544 
L 219.916371 58.208544 
z
" style="fill:#1f77b4;"/>
   </g>
   <g id="patch_138">
    <path clip-path="url(#p5778c31ae1)" d="M 221.006547 307.584 
L 221.878689 307.584 
L 221.878689 56.681568 
L 221.006547 56.681568 
z
" style="fill:#1f77b4;"/>
   </g>
   <g id="patch_139">
    <path clip-path="url(#p5778c31ae1)" d="M 222.096724 307.584 
L 222.968865 307.584 
L 222.968865 58.224384 
L 222.096724 58.224384 
z
" style="fill:#1f77b4;"/>
   </g>
   <g id="patch_140">
    <path clip-path="url(#p5778c31ae1)" d="M 223.1869 307.584 
L 224.059041 307.584 
L 224.059041 56.672064 
L 223.1869 56.672064 
z
" style="fill:#1f77b4;"/>
   </g>
   <g id="patch_141">
    <path clip-path="url(#p5778c31ae1)" d="M 224.277077 307.584 
L 225.149218 307.584 
L 225.149218 55.484064 
L 224.277077 55.484064 
z
" style="fill:#1f77b4;"/>
   </g>
   <g id="patch_142">
    <path clip-path="url(#p5778c31ae1)" d="M 225.367253 307.584 
L 226.239394 307.584 
L 226.239394 56.07648 
L 225.367253 56.07648 
z
" style="fill:#1f77b4;"/>
   </g>
   <g id="patch_143">
    <path clip-path="url(#p5778c31ae1)" d="M 226.45743 307.584 
L 227.329571 307.584 
L 227.329571 56.954016 
L 226.45743 56.954016 
z
" style="fill:#1f77b4;"/>
   </g>
   <g id="patch_144">
    <path clip-path="url(#p5778c31ae1)" d="M 227.547606 307.584 
L 228.419747 307.584 
L 228.419747 57.04272 
L 227.547606 57.04272 
z
" style="fill:#1f77b4;"/>
   </g>
   <g id="patch_145">
    <path clip-path="url(#p5778c31ae1)" d="M 228.637783 307.584 
L 229.509924 307.584 
L 229.509924 55.26864 
L 228.637783 55.26864 
z
" style="fill:#1f77b4;"/>
   </g>
   <g id="patch_146">
    <path clip-path="url(#p5778c31ae1)" d="M 229.727959 307.584 
L 230.6001 307.584 
L 230.6001 58.268736 
L 229.727959 58.268736 
z
" style="fill:#1f77b4;"/>
   </g>
   <g id="patch_147">
    <path clip-path="url(#p5778c31ae1)" d="M 230.818135 307.584 
L 231.690277 307.584 
L 231.690277 54.188352 
L 230.818135 54.188352 
z
" style="fill:#1f77b4;"/>
   </g>
   <g id="patch_148">
    <path clip-path="url(#p5778c31ae1)" d="M 231.908312 307.584 
L 232.780453 307.584 
L 232.780453 55.487232 
L 231.908312 55.487232 
z
" style="fill:#1f77b4;"/>
   </g>
   <g id="patch_149">
    <path clip-path="url(#p5778c31ae1)" d="M 232.998488 307.584 
L 233.870629 307.584 
L 233.870629 57.91392 
L 232.998488 57.91392 
z
" style="fill:#1f77b4;"/>
   </g>
   <g id="patch_150">
    <path clip-path="url(#p5778c31ae1)" d="M 234.088665 307.584 
L 234.960806 307.584 
L 234.960806 58.30992 
L 234.088665 58.30992 
z
" style="fill:#1f77b4;"/>
   </g>
   <g id="patch_151">
    <path clip-path="url(#p5778c31ae1)" d="M 235.178841 307.584 
L 236.050982 307.584 
L 236.050982 57.331008 
L 235.178841 57.331008 
z
" style="fill:#1f77b4;"/>
   </g>
   <g id="patch_152">
    <path clip-path="url(#p5778c31ae1)" d="M 236.269018 307.584 
L 237.141159 307.584 
L 237.141159 54.216864 
L 236.269018 54.216864 
z
" style="fill:#1f77b4;"/>
   </g>
   <g id="patch_153">
    <path clip-path="url(#p5778c31ae1)" d="M 237.359194 307.584 
L 238.231335 307.584 
L 238.231335 56.101824 
L 237.359194 56.101824 
z
" style="fill:#1f77b4;"/>
   </g>
   <g id="patch_154">
    <path clip-path="url(#p5778c31ae1)" d="M 238.449371 307.584 
L 239.321512 307.584 
L 239.321512 55.90224 
L 238.449371 55.90224 
z
" style="fill:#1f77b4;"/>
   </g>
   <g id="patch_155">
    <path clip-path="url(#p5778c31ae1)" d="M 239.539547 307.584 
L 240.411688 307.584 
L 240.411688 56.751264 
L 239.539547 56.751264 
z
" style="fill:#1f77b4;"/>
   </g>
   <g id="patch_156">
    <path clip-path="url(#p5778c31ae1)" d="M 240.629723 307.584 
L 241.501865 307.584 
L 241.501865 54.226368 
L 240.629723 54.226368 
z
" style="fill:#1f77b4;"/>
   </g>
   <g id="patch_157">
    <path clip-path="url(#p5778c31ae1)" d="M 241.7199 307.584 
L 242.592041 307.584 
L 242.592041 56.272896 
L 241.7199 56.272896 
z
" style="fill:#1f77b4;"/>
   </g>
   <g id="patch_158">
    <path clip-path="url(#p5778c31ae1)" d="M 242.810076 307.584 
L 243.682217 307.584 
L 243.682217 56.336256 
L 242.810076 56.336256 
z
" style="fill:#1f77b4;"/>
   </g>
   <g id="patch_159">
    <path clip-path="url(#p5778c31ae1)" d="M 243.900253 307.584 
L 244.772394 307.584 
L 244.772394 55.306656 
L 243.900253 55.306656 
z
" style="fill:#1f77b4;"/>
   </g>
   <g id="patch_160">
    <path clip-path="url(#p5778c31ae1)" d="M 244.990429 307.584 
L 245.86257 307.584 
L 245.86257 57.334176 
L 244.990429 57.334176 
z
" style="fill:#1f77b4;"/>
   </g>
   <g id="patch_161">
    <path clip-path="url(#p5778c31ae1)" d="M 246.080606 307.584 
L 246.952747 307.584 
L 246.952747 54.378432 
L 246.080606 54.378432 
z
" style="fill:#1f77b4;"/>
   </g>
   <g id="patch_162">
    <path clip-path="url(#p5778c31ae1)" d="M 247.170782 307.584 
L 248.042923 307.584 
L 248.042923 55.034208 
L 247.170782 55.034208 
z
" style="fill:#1f77b4;"/>
   </g>
   <g id="patch_163">
    <path clip-path="url(#p5778c31ae1)" d="M 248.260959 307.584 
L 249.1331 307.584 
L 249.1331 55.731168 
L 248.260959 55.731168 
z
" style="fill:#1f77b4;"/>
   </g>
   <g id="patch_164">
    <path clip-path="url(#p5778c31ae1)" d="M 249.351135 307.584 
L 250.223276 307.584 
L 250.223276 56.754432 
L 249.351135 56.754432 
z
" style="fill:#1f77b4;"/>
   </g>
   <g id="patch_165">
    <path clip-path="url(#p5778c31ae1)" d="M 250.441311 307.584 
L 251.313453 307.584 
L 251.313453 56.545344 
L 250.441311 56.545344 
z
" style="fill:#1f77b4;"/>
   </g>
   <g id="patch_166">
    <path clip-path="url(#p5778c31ae1)" d="M 251.531488 307.584 
L 252.403629 307.584 
L 252.403629 55.623456 
L 251.531488 55.623456 
z
" style="fill:#1f77b4;"/>
   </g>
   <g id="patch_167">
    <path clip-path="url(#p5778c31ae1)" d="M 252.621664 307.584 
L 253.493805 307.584 
L 253.493805 56.61504 
L 252.621664 56.61504 
z
" style="fill:#1f77b4;"/>
   </g>
   <g id="patch_168">
    <path clip-path="url(#p5778c31ae1)" d="M 253.711841 307.584 
L 254.583982 307.584 
L 254.583982 58.306752 
L 253.711841 58.306752 
z
" style="fill:#1f77b4;"/>
   </g>
   <g id="patch_169">
    <path clip-path="url(#p5778c31ae1)" d="M 254.802017 307.584 
L 255.674158 307.584 
L 255.674158 57.460896 
L 254.802017 57.460896 
z
" style="fill:#1f77b4;"/>
   </g>
   <g id="patch_170">
    <path clip-path="url(#p5778c31ae1)" d="M 255.892194 307.584 
L 256.764335 307.584 
L 256.764335 56.96352 
L 255.892194 56.96352 
z
" style="fill:#1f77b4;"/>
   </g>
   <g id="patch_171">
    <path clip-path="url(#p5778c31ae1)" d="M 256.98237 307.584 
L 257.854511 307.584 
L 257.854511 56.18736 
L 256.98237 56.18736 
z
" style="fill:#1f77b4;"/>
   </g>
   <g id="patch_172">
    <path clip-path="url(#p5778c31ae1)" d="M 258.072547 307.584 
L 258.944688 307.584 
L 258.944688 56.637216 
L 258.072547 56.637216 
z
" style="fill:#1f77b4;"/>
   </g>
   <g id="patch_173">
    <path clip-path="url(#p5778c31ae1)" d="M 259.162723 307.584 
L 260.034864 307.584 
L 260.034864 56.079648 
L 259.162723 56.079648 
z
" style="fill:#1f77b4;"/>
   </g>
   <g id="patch_174">
    <path clip-path="url(#p5778c31ae1)" d="M 260.252899 307.584 
L 261.125041 307.584 
L 261.125041 56.481984 
L 260.252899 56.481984 
z
" style="fill:#1f77b4;"/>
   </g>
   <g id="patch_175">
    <path clip-path="url(#p5778c31ae1)" d="M 261.343076 307.584 
L 262.215217 307.584 
L 262.215217 55.873728 
L 261.343076 55.873728 
z
" style="fill:#1f77b4;"/>
   </g>
   <g id="patch_176">
    <path clip-path="url(#p5778c31ae1)" d="M 262.433252 307.584 
L 263.305393 307.584 
L 263.305393 54.609696 
L 262.433252 54.609696 
z
" style="fill:#1f77b4;"/>
   </g>
   <g id="patch_177">
    <path clip-path="url(#p5778c31ae1)" d="M 263.523429 307.584 
L 264.39557 307.584 
L 264.39557 54.948672 
L 263.523429 54.948672 
z
" style="fill:#1f77b4;"/>
   </g>
   <g id="patch_178">
    <path clip-path="url(#p5778c31ae1)" d="M 264.613605 307.584 
L 265.485746 307.584 
L 265.485746 54.144 
L 264.613605 54.144 
z
" style="fill:#1f77b4;"/>
   </g>
   <g id="patch_179">
    <path clip-path="url(#p5778c31ae1)" d="M 265.703782 307.584 
L 266.575923 307.584 
L 266.575923 56.649888 
L 265.703782 56.649888 
z
" style="fill:#1f77b4;"/>
   </g>
   <g id="patch_180">
    <path clip-path="url(#p5778c31ae1)" d="M 266.793958 307.584 
L 267.666099 307.584 
L 267.666099 57.052224 
L 266.793958 57.052224 
z
" style="fill:#1f77b4;"/>
   </g>
   <g id="patch_181">
    <path clip-path="url(#p5778c31ae1)" d="M 267.884135 307.584 
L 268.756276 307.584 
L 268.756276 56.162016 
L 267.884135 56.162016 
z
" style="fill:#1f77b4;"/>
   </g>
   <g id="patch_182">
    <path clip-path="url(#p5778c31ae1)" d="M 268.974311 307.584 
L 269.846452 307.584 
L 269.846452 56.833632 
L 268.974311 56.833632 
z
" style="fill:#1f77b4;"/>
   </g>
   <g id="patch_183">
    <path clip-path="url(#p5778c31ae1)" d="M 270.064487 307.584 
L 270.936629 307.584 
L 270.936629 55.975104 
L 270.064487 55.975104 
z
" style="fill:#1f77b4;"/>
   </g>
   <g id="patch_184">
    <path clip-path="url(#p5778c31ae1)" d="M 271.154664 307.584 
L 272.026805 307.584 
L 272.026805 57.099744 
L 271.154664 57.099744 
z
" style="fill:#1f77b4;"/>
   </g>
   <g id="patch_185">
    <path clip-path="url(#p5778c31ae1)" d="M 272.24484 307.584 
L 273.116982 307.584 
L 273.116982 55.06272 
L 272.24484 55.06272 
z
" style="fill:#1f77b4;"/>
   </g>
   <g id="patch_186">
    <path clip-path="url(#p5778c31ae1)" d="M 273.335017 307.584 
L 274.207158 307.584 
L 274.207158 54.961344 
L 273.335017 54.961344 
z
" style="fill:#1f77b4;"/>
   </g>
   <g id="patch_187">
    <path clip-path="url(#p5778c31ae1)" d="M 274.425193 307.584 
L 275.297334 307.584 
L 275.297334 56.111328 
L 274.425193 56.111328 
z
" style="fill:#1f77b4;"/>
   </g>
   <g id="patch_188">
    <path clip-path="url(#p5778c31ae1)" d="M 275.51537 307.584 
L 276.387511 307.584 
L 276.387511 55.132416 
L 275.51537 55.132416 
z
" style="fill:#1f77b4;"/>
   </g>
   <g id="patch_189">
    <path clip-path="url(#p5778c31ae1)" d="M 276.605546 307.584 
L 277.477687 307.584 
L 277.477687 57.080736 
L 276.605546 57.080736 
z
" style="fill:#1f77b4;"/>
   </g>
   <g id="patch_190">
    <path clip-path="url(#p5778c31ae1)" d="M 277.695723 307.584 
L 278.567864 307.584 
L 278.567864 57.403872 
L 277.695723 57.403872 
z
" style="fill:#1f77b4;"/>
   </g>
   <g id="patch_191">
    <path clip-path="url(#p5778c31ae1)" d="M 278.785899 307.584 
L 279.65804 307.584 
L 279.65804 54.948672 
L 278.785899 54.948672 
z
" style="fill:#1f77b4;"/>
   </g>
   <g id="patch_192">
    <path clip-path="url(#p5778c31ae1)" d="M 279.876075 307.584 
L 280.748217 307.584 
L 280.748217 56.374272 
L 279.876075 56.374272 
z
" style="fill:#1f77b4;"/>
   </g>
   <g id="patch_193">
    <path clip-path="url(#p5778c31ae1)" d="M 280.966252 307.584 
L 281.838393 307.584 
L 281.838393 55.45872 
L 280.966252 55.45872 
z
" style="fill:#1f77b4;"/>
   </g>
   <g id="patch_194">
    <path clip-path="url(#p5778c31ae1)" d="M 282.056428 307.584 
L 282.92857 307.584 
L 282.92857 57.163104 
L 282.056428 57.163104 
z
" style="fill:#1f77b4;"/>
   </g>
   <g id="patch_195">
    <path clip-path="url(#p5778c31ae1)" d="M 283.146605 307.584 
L 284.018746 307.584 
L 284.018746 58.728096 
L 283.146605 58.728096 
z
" style="fill:#1f77b4;"/>
   </g>
   <g id="patch_196">
    <path clip-path="url(#p5778c31ae1)" d="M 284.236781 307.584 
L 285.108922 307.584 
L 285.108922 55.325664 
L 284.236781 55.325664 
z
" style="fill:#1f77b4;"/>
   </g>
   <g id="patch_197">
    <path clip-path="url(#p5778c31ae1)" d="M 285.326958 307.584 
L 286.199099 307.584 
L 286.199099 55.946592 
L 285.326958 55.946592 
z
" style="fill:#1f77b4;"/>
   </g>
   <g id="patch_198">
    <path clip-path="url(#p5778c31ae1)" d="M 286.417134 307.584 
L 287.289275 307.584 
L 287.289275 57.353184 
L 286.417134 57.353184 
z
" style="fill:#1f77b4;"/>
   </g>
   <g id="patch_199">
    <path clip-path="url(#p5778c31ae1)" d="M 287.507311 307.584 
L 288.379452 307.584 
L 288.379452 56.310912 
L 287.507311 56.310912 
z
" style="fill:#1f77b4;"/>
   </g>
   <g id="patch_200">
    <path clip-path="url(#p5778c31ae1)" d="M 288.597487 307.584 
L 289.469628 307.584 
L 289.469628 57.590784 
L 288.597487 57.590784 
z
" style="fill:#1f77b4;"/>
   </g>
   <g id="patch_201">
    <path clip-path="url(#p5778c31ae1)" d="M 289.687663 307.584 
L 290.559805 307.584 
L 290.559805 56.494656 
L 289.687663 56.494656 
z
" style="fill:#1f77b4;"/>
   </g>
   <g id="patch_202">
    <path clip-path="url(#p5778c31ae1)" d="M 290.77784 307.584 
L 291.649981 307.584 
L 291.649981 55.477728 
L 290.77784 55.477728 
z
" style="fill:#1f77b4;"/>
   </g>
   <g id="patch_203">
    <path clip-path="url(#p5778c31ae1)" d="M 291.868016 307.584 
L 292.740158 307.584 
L 292.740158 55.202112 
L 291.868016 55.202112 
z
" style="fill:#1f77b4;"/>
   </g>
   <g id="patch_204">
    <path clip-path="url(#p5778c31ae1)" d="M 292.958193 307.584 
L 293.830334 307.584 
L 293.830334 56.748096 
L 292.958193 56.748096 
z
" style="fill:#1f77b4;"/>
   </g>
   <g id="patch_205">
    <path clip-path="url(#p5778c31ae1)" d="M 294.048369 307.584 
L 294.92051 307.584 
L 294.92051 57.910752 
L 294.048369 57.910752 
z
" style="fill:#1f77b4;"/>
   </g>
   <g id="patch_206">
    <path clip-path="url(#p5778c31ae1)" d="M 295.138546 307.584 
L 296.010687 307.584 
L 296.010687 56.634048 
L 295.138546 56.634048 
z
" style="fill:#1f77b4;"/>
   </g>
   <g id="patch_207">
    <path clip-path="url(#p5778c31ae1)" d="M 296.228722 307.584 
L 297.100863 307.584 
L 297.100863 55.582272 
L 296.228722 55.582272 
z
" style="fill:#1f77b4;"/>
   </g>
   <g id="patch_208">
    <path clip-path="url(#p5778c31ae1)" d="M 297.318899 307.584 
L 298.19104 307.584 
L 298.19104 57.619296 
L 297.318899 57.619296 
z
" style="fill:#1f77b4;"/>
   </g>
   <g id="patch_209">
    <path clip-path="url(#p5778c31ae1)" d="M 298.409075 307.584 
L 299.281216 307.584 
L 299.281216 58.408128 
L 298.409075 58.408128 
z
" style="fill:#1f77b4;"/>
   </g>
   <g id="patch_210">
    <path clip-path="url(#p5778c31ae1)" d="M 299.499251 307.584 
L 300.371393 307.584 
L 300.371393 56.561184 
L 299.499251 56.561184 
z
" style="fill:#1f77b4;"/>
   </g>
   <g id="patch_211">
    <path clip-path="url(#p5778c31ae1)" d="M 300.589428 307.584 
L 301.461569 307.584 
L 301.461569 56.418624 
L 300.589428 56.418624 
z
" style="fill:#1f77b4;"/>
   </g>
   <g id="patch_212">
    <path clip-path="url(#p5778c31ae1)" d="M 301.679604 307.584 
L 302.551746 307.584 
L 302.551746 57.815712 
L 301.679604 57.815712 
z
" style="fill:#1f77b4;"/>
   </g>
   <g id="patch_213">
    <path clip-path="url(#p5778c31ae1)" d="M 302.769781 307.584 
L 303.641922 307.584 
L 303.641922 57.033216 
L 302.769781 57.033216 
z
" style="fill:#1f77b4;"/>
   </g>
   <g id="patch_214">
    <path clip-path="url(#p5778c31ae1)" d="M 303.859957 307.584 
L 304.732098 307.584 
L 304.732098 55.772352 
L 303.859957 55.772352 
z
" style="fill:#1f77b4;"/>
   </g>
   <g id="patch_215">
    <path clip-path="url(#p5778c31ae1)" d="M 304.950134 307.584 
L 305.822275 307.584 
L 305.822275 55.446048 
L 304.950134 55.446048 
z
" style="fill:#1f77b4;"/>
   </g>
   <g id="patch_216">
    <path clip-path="url(#p5778c31ae1)" d="M 306.04031 307.584 
L 306.912451 307.584 
L 306.912451 57.641472 
L 306.04031 57.641472 
z
" style="fill:#1f77b4;"/>
   </g>
   <g id="patch_217">
    <path clip-path="url(#p5778c31ae1)" d="M 307.130487 307.584 
L 308.002628 307.584 
L 308.002628 58.04064 
L 307.130487 58.04064 
z
" style="fill:#1f77b4;"/>
   </g>
   <g id="patch_218">
    <path clip-path="url(#p5778c31ae1)" d="M 308.220663 307.584 
L 309.092804 307.584 
L 309.092804 56.47248 
L 308.220663 56.47248 
z
" style="fill:#1f77b4;"/>
   </g>
   <g id="patch_219">
    <path clip-path="url(#p5778c31ae1)" d="M 309.310839 307.584 
L 310.182981 307.584 
L 310.182981 55.689984 
L 309.310839 55.689984 
z
" style="fill:#1f77b4;"/>
   </g>
   <g id="patch_220">
    <path clip-path="url(#p5778c31ae1)" d="M 310.401016 307.584 
L 311.273157 307.584 
L 311.273157 57.530592 
L 310.401016 57.530592 
z
" style="fill:#1f77b4;"/>
   </g>
   <g id="patch_221">
    <path clip-path="url(#p5778c31ae1)" d="M 311.491192 307.584 
L 312.363334 307.584 
L 312.363334 54.929664 
L 311.491192 54.929664 
z
" style="fill:#1f77b4;"/>
   </g>
   <g id="patch_222">
    <path clip-path="url(#p5778c31ae1)" d="M 312.581369 307.584 
L 313.45351 307.584 
L 313.45351 54.565344 
L 312.581369 54.565344 
z
" style="fill:#1f77b4;"/>
   </g>
   <g id="patch_223">
    <path clip-path="url(#p5778c31ae1)" d="M 313.671545 307.584 
L 314.543686 307.584 
L 314.543686 55.810368 
L 313.671545 55.810368 
z
" style="fill:#1f77b4;"/>
   </g>
   <g id="patch_224">
    <path clip-path="url(#p5778c31ae1)" d="M 314.761722 307.584 
L 315.633863 307.584 
L 315.633863 58.883328 
L 314.761722 58.883328 
z
" style="fill:#1f77b4;"/>
   </g>
   <g id="patch_225">
    <path clip-path="url(#p5778c31ae1)" d="M 315.851898 307.584 
L 316.724039 307.584 
L 316.724039 57.426048 
L 315.851898 57.426048 
z
" style="fill:#1f77b4;"/>
   </g>
   <g id="patch_226">
    <path clip-path="url(#p5778c31ae1)" d="M 316.942075 307.584 
L 317.814216 307.584 
L 317.814216 57.13776 
L 316.942075 57.13776 
z
" style="fill:#1f77b4;"/>
   </g>
   <g id="patch_227">
    <path clip-path="url(#p5778c31ae1)" d="M 318.032251 307.584 
L 318.904392 307.584 
L 318.904392 56.165184 
L 318.032251 56.165184 
z
" style="fill:#1f77b4;"/>
   </g>
   <g id="patch_228">
    <path clip-path="url(#p5778c31ae1)" d="M 319.122427 307.584 
L 319.994569 307.584 
L 319.994569 57.619296 
L 319.122427 57.619296 
z
" style="fill:#1f77b4;"/>
   </g>
   <g id="patch_229">
    <path clip-path="url(#p5778c31ae1)" d="M 320.212604 307.584 
L 321.084745 307.584 
L 321.084745 56.954016 
L 320.212604 56.954016 
z
" style="fill:#1f77b4;"/>
   </g>
   <g id="patch_230">
    <path clip-path="url(#p5778c31ae1)" d="M 321.30278 307.584 
L 322.174922 307.584 
L 322.174922 56.085984 
L 321.30278 56.085984 
z
" style="fill:#1f77b4;"/>
   </g>
   <g id="patch_231">
    <path clip-path="url(#p5778c31ae1)" d="M 322.392957 307.584 
L 323.265098 307.584 
L 323.265098 57.18528 
L 322.392957 57.18528 
z
" style="fill:#1f77b4;"/>
   </g>
   <g id="patch_232">
    <path clip-path="url(#p5778c31ae1)" d="M 323.483133 307.584 
L 324.355274 307.584 
L 324.355274 56.497824 
L 323.483133 56.497824 
z
" style="fill:#1f77b4;"/>
   </g>
   <g id="patch_233">
    <path clip-path="url(#p5778c31ae1)" d="M 324.57331 307.584 
L 325.445451 307.584 
L 325.445451 56.279232 
L 324.57331 56.279232 
z
" style="fill:#1f77b4;"/>
   </g>
   <g id="patch_234">
    <path clip-path="url(#p5778c31ae1)" d="M 325.663486 307.584 
L 326.535627 307.584 
L 326.535627 55.71216 
L 325.663486 55.71216 
z
" style="fill:#1f77b4;"/>
   </g>
   <g id="patch_235">
    <path clip-path="url(#p5778c31ae1)" d="M 326.753663 307.584 
L 327.625804 307.584 
L 327.625804 58.667904 
L 326.753663 58.667904 
z
" style="fill:#1f77b4;"/>
   </g>
   <g id="patch_236">
    <path clip-path="url(#p5778c31ae1)" d="M 327.843839 307.584 
L 328.71598 307.584 
L 328.71598 56.459808 
L 327.843839 56.459808 
z
" style="fill:#1f77b4;"/>
   </g>
   <g id="patch_237">
    <path clip-path="url(#p5778c31ae1)" d="M 328.934016 307.584 
L 329.806157 307.584 
L 329.806157 54.242208 
L 328.934016 54.242208 
z
" style="fill:#1f77b4;"/>
   </g>
   <g id="patch_238">
    <path clip-path="url(#p5778c31ae1)" d="M 330.024192 307.584 
L 330.896333 307.584 
L 330.896333 55.30032 
L 330.024192 55.30032 
z
" style="fill:#1f77b4;"/>
   </g>
   <g id="patch_239">
    <path clip-path="url(#p5778c31ae1)" d="M 331.114368 307.584 
L 331.98651 307.584 
L 331.98651 54.631872 
L 331.114368 54.631872 
z
" style="fill:#1f77b4;"/>
   </g>
   <g id="patch_240">
    <path clip-path="url(#p5778c31ae1)" d="M 332.204545 307.584 
L 333.076686 307.584 
L 333.076686 56.263392 
L 332.204545 56.263392 
z
" style="fill:#1f77b4;"/>
   </g>
   <g id="patch_241">
    <path clip-path="url(#p5778c31ae1)" d="M 333.294721 307.584 
L 334.166862 307.584 
L 334.166862 56.719584 
L 333.294721 56.719584 
z
" style="fill:#1f77b4;"/>
   </g>
   <g id="patch_242">
    <path clip-path="url(#p5778c31ae1)" d="M 334.384898 307.584 
L 335.257039 307.584 
L 335.257039 57.0744 
L 334.384898 57.0744 
z
" style="fill:#1f77b4;"/>
   </g>
   <g id="patch_243">
    <path clip-path="url(#p5778c31ae1)" d="M 335.475074 307.584 
L 336.347215 307.584 
L 336.347215 55.195776 
L 335.475074 55.195776 
z
" style="fill:#1f77b4;"/>
   </g>
   <g id="patch_244">
    <path clip-path="url(#p5778c31ae1)" d="M 336.565251 307.584 
L 337.437392 307.584 
L 337.437392 56.279232 
L 336.565251 56.279232 
z
" style="fill:#1f77b4;"/>
   </g>
   <g id="patch_245">
    <path clip-path="url(#p5778c31ae1)" d="M 337.655427 307.584 
L 338.527568 307.584 
L 338.527568 55.943424 
L 337.655427 55.943424 
z
" style="fill:#1f77b4;"/>
   </g>
   <g id="patch_246">
    <path clip-path="url(#p5778c31ae1)" d="M 338.745604 307.584 
L 339.617745 307.584 
L 339.617745 54.878976 
L 338.745604 54.878976 
z
" style="fill:#1f77b4;"/>
   </g>
   <g id="patch_247">
    <path clip-path="url(#p5778c31ae1)" d="M 339.83578 307.584 
L 340.707921 307.584 
L 340.707921 56.272896 
L 339.83578 56.272896 
z
" style="fill:#1f77b4;"/>
   </g>
   <g id="patch_248">
    <path clip-path="url(#p5778c31ae1)" d="M 340.925956 307.584 
L 341.798098 307.584 
L 341.798098 55.899072 
L 340.925956 55.899072 
z
" style="fill:#1f77b4;"/>
   </g>
   <g id="patch_249">
    <path clip-path="url(#p5778c31ae1)" d="M 342.016133 307.584 
L 342.888274 307.584 
L 342.888274 56.849472 
L 342.016133 56.849472 
z
" style="fill:#1f77b4;"/>
   </g>
   <g id="patch_250">
    <path clip-path="url(#p5778c31ae1)" d="M 343.106309 307.584 
L 343.97845 307.584 
L 343.97845 56.548512 
L 343.106309 56.548512 
z
" style="fill:#1f77b4;"/>
   </g>
   <g id="patch_251">
    <path clip-path="url(#p5778c31ae1)" d="M 344.196486 307.584 
L 345.068627 307.584 
L 345.068627 56.94768 
L 344.196486 56.94768 
z
" style="fill:#1f77b4;"/>
   </g>
   <g id="patch_252">
    <path clip-path="url(#p5778c31ae1)" d="M 345.286662 307.584 
L 346.158803 307.584 
L 346.158803 54.98352 
L 345.286662 54.98352 
z
" style="fill:#1f77b4;"/>
   </g>
   <g id="patch_253">
    <path clip-path="url(#p5778c31ae1)" d="M 346.376839 307.584 
L 347.24898 307.584 
L 347.24898 56.586528 
L 346.376839 56.586528 
z
" style="fill:#1f77b4;"/>
   </g>
   <g id="patch_254">
    <path clip-path="url(#p5778c31ae1)" d="M 347.467015 307.584 
L 348.339156 307.584 
L 348.339156 56.94768 
L 347.467015 56.94768 
z
" style="fill:#1f77b4;"/>
   </g>
   <g id="patch_255">
    <path clip-path="url(#p5778c31ae1)" d="M 348.557192 307.584 
L 349.429333 307.584 
L 349.429333 57.321504 
L 348.557192 57.321504 
z
" style="fill:#1f77b4;"/>
   </g>
   <g id="patch_256">
    <path clip-path="url(#p5778c31ae1)" d="M 349.647368 307.584 
L 350.519509 307.584 
L 350.519509 56.101824 
L 349.647368 56.101824 
z
" style="fill:#1f77b4;"/>
   </g>
   <g id="patch_257">
    <path clip-path="url(#p5778c31ae1)" d="M 350.737544 307.584 
L 351.609686 307.584 
L 351.609686 54.292896 
L 350.737544 54.292896 
z
" style="fill:#1f77b4;"/>
   </g>
   <g id="patch_258">
    <path clip-path="url(#p5778c31ae1)" d="M 351.827721 307.584 
L 352.699862 307.584 
L 352.699862 55.572768 
L 351.827721 55.572768 
z
" style="fill:#1f77b4;"/>
   </g>
   <g id="patch_259">
    <path clip-path="url(#p5778c31ae1)" d="M 352.917897 307.584 
L 353.790038 307.584 
L 353.790038 55.689984 
L 352.917897 55.689984 
z
" style="fill:#1f77b4;"/>
   </g>
   <g id="patch_260">
    <path clip-path="url(#p5778c31ae1)" d="M 354.008074 307.584 
L 354.880215 307.584 
L 354.880215 57.109248 
L 354.008074 57.109248 
z
" style="fill:#1f77b4;"/>
   </g>
   <g id="patch_261">
    <path clip-path="url(#p5778c31ae1)" d="M 355.09825 307.584 
L 355.970391 307.584 
L 355.970391 56.10816 
L 355.09825 56.10816 
z
" style="fill:#1f77b4;"/>
   </g>
   <g id="patch_262">
    <path clip-path="url(#p5778c31ae1)" d="M 356.188427 307.584 
L 357.060568 307.584 
L 357.060568 55.686816 
L 356.188427 55.686816 
z
" style="fill:#1f77b4;"/>
   </g>
   <g id="patch_263">
    <path clip-path="url(#p5778c31ae1)" d="M 357.278603 307.584 
L 358.150744 307.584 
L 358.150744 56.82096 
L 357.278603 56.82096 
z
" style="fill:#1f77b4;"/>
   </g>
   <g id="patch_264">
    <path clip-path="url(#p5778c31ae1)" d="M 358.36878 307.584 
L 359.240921 307.584 
L 359.240921 54.644544 
L 358.36878 54.644544 
z
" style="fill:#1f77b4;"/>
   </g>
   <g id="patch_265">
    <path clip-path="url(#p5778c31ae1)" d="M 359.458956 307.584 
L 360.331097 307.584 
L 360.331097 56.45664 
L 359.458956 56.45664 
z
" style="fill:#1f77b4;"/>
   </g>
   <g id="patch_266">
    <path clip-path="url(#p5778c31ae1)" d="M 360.549132 307.584 
L 361.421274 307.584 
L 361.421274 56.238048 
L 360.549132 56.238048 
z
" style="fill:#1f77b4;"/>
   </g>
   <g id="patch_267">
    <path clip-path="url(#p5778c31ae1)" d="M 361.639309 307.584 
L 362.51145 307.584 
L 362.51145 56.763936 
L 361.639309 56.763936 
z
" style="fill:#1f77b4;"/>
   </g>
   <g id="patch_268">
    <path clip-path="url(#p5778c31ae1)" d="M 362.729485 307.584 
L 363.601626 307.584 
L 363.601626 55.797696 
L 362.729485 55.797696 
z
" style="fill:#1f77b4;"/>
   </g>
   <g id="patch_269">
    <path clip-path="url(#p5778c31ae1)" d="M 363.819662 307.584 
L 364.691803 307.584 
L 364.691803 56.592864 
L 363.819662 56.592864 
z
" style="fill:#1f77b4;"/>
   </g>
   <g id="patch_270">
    <path clip-path="url(#p5778c31ae1)" d="M 364.909838 307.584 
L 365.781979 307.584 
L 365.781979 57.498912 
L 364.909838 57.498912 
z
" style="fill:#1f77b4;"/>
   </g>
   <g id="patch_271">
    <path clip-path="url(#p5778c31ae1)" d="M 366.000015 307.584 
L 366.872156 307.584 
L 366.872156 57.603456 
L 366.000015 57.603456 
z
" style="fill:#1f77b4;"/>
   </g>
   <g id="patch_272">
    <path clip-path="url(#p5778c31ae1)" d="M 367.090191 307.584 
L 367.962332 307.584 
L 367.962332 55.335168 
L 367.090191 55.335168 
z
" style="fill:#1f77b4;"/>
   </g>
   <g id="patch_273">
    <path clip-path="url(#p5778c31ae1)" d="M 368.180368 307.584 
L 369.052509 307.584 
L 369.052509 56.37744 
L 368.180368 56.37744 
z
" style="fill:#1f77b4;"/>
   </g>
   <g id="patch_274">
    <path clip-path="url(#p5778c31ae1)" d="M 369.270544 307.584 
L 370.142685 307.584 
L 370.142685 56.21904 
L 369.270544 56.21904 
z
" style="fill:#1f77b4;"/>
   </g>
   <g id="patch_275">
    <path clip-path="url(#p5778c31ae1)" d="M 370.36072 307.584 
L 371.232862 307.584 
L 371.232862 56.383776 
L 370.36072 56.383776 
z
" style="fill:#1f77b4;"/>
   </g>
   <g id="patch_276">
    <path clip-path="url(#p5778c31ae1)" d="M 371.450897 307.584 
L 372.323038 307.584 
L 372.323038 56.558016 
L 371.450897 56.558016 
z
" style="fill:#1f77b4;"/>
   </g>
   <g id="patch_277">
    <path clip-path="url(#p5778c31ae1)" d="M 372.541073 307.584 
L 373.413214 307.584 
L 373.413214 58.205376 
L 372.541073 58.205376 
z
" style="fill:#1f77b4;"/>
   </g>
   <g id="patch_278">
    <path clip-path="url(#p5778c31ae1)" d="M 373.63125 307.584 
L 374.503391 307.584 
L 374.503391 54.815616 
L 373.63125 54.815616 
z
" style="fill:#1f77b4;"/>
   </g>
   <g id="patch_279">
    <path clip-path="url(#p5778c31ae1)" d="M 374.721426 307.584 
L 375.593567 307.584 
L 375.593567 56.07648 
L 374.721426 56.07648 
z
" style="fill:#1f77b4;"/>
   </g>
   <g id="patch_280">
    <path clip-path="url(#p5778c31ae1)" d="M 375.811603 307.584 
L 376.683744 307.584 
L 376.683744 56.998368 
L 375.811603 56.998368 
z
" style="fill:#1f77b4;"/>
   </g>
   <g id="patch_281">
    <path clip-path="url(#p5778c31ae1)" d="M 376.901779 307.584 
L 377.77392 307.584 
L 377.77392 57.42288 
L 376.901779 57.42288 
z
" style="fill:#1f77b4;"/>
   </g>
   <g id="patch_282">
    <path clip-path="url(#p5778c31ae1)" d="M 377.991956 307.584 
L 378.864097 307.584 
L 378.864097 59.326848 
L 377.991956 59.326848 
z
" style="fill:#1f77b4;"/>
   </g>
   <g id="patch_283">
    <path clip-path="url(#p5778c31ae1)" d="M 379.082132 307.584 
L 379.954273 307.584 
L 379.954273 57.213792 
L 379.082132 57.213792 
z
" style="fill:#1f77b4;"/>
   </g>
   <g id="patch_284">
    <path clip-path="url(#p5778c31ae1)" d="M 380.172308 307.584 
L 381.04445 307.584 
L 381.04445 56.74176 
L 380.172308 56.74176 
z
" style="fill:#1f77b4;"/>
   </g>
   <g id="patch_285">
    <path clip-path="url(#p5778c31ae1)" d="M 381.262485 307.584 
L 382.134626 307.584 
L 382.134626 54.34992 
L 381.262485 54.34992 
z
" style="fill:#1f77b4;"/>
   </g>
   <g id="patch_286">
    <path clip-path="url(#p5778c31ae1)" d="M 382.352661 307.584 
L 383.224802 307.584 
L 383.224802 55.91808 
L 382.352661 55.91808 
z
" style="fill:#1f77b4;"/>
   </g>
   <g id="patch_287">
    <path clip-path="url(#p5778c31ae1)" d="M 383.442838 307.584 
L 384.314979 307.584 
L 384.314979 55.889568 
L 383.442838 55.889568 
z
" style="fill:#1f77b4;"/>
   </g>
   <g id="patch_288">
    <path clip-path="url(#p5778c31ae1)" d="M 384.533014 307.584 
L 385.405155 307.584 
L 385.405155 56.025792 
L 384.533014 56.025792 
z
" style="fill:#1f77b4;"/>
   </g>
   <g id="patch_289">
    <path clip-path="url(#p5778c31ae1)" d="M 385.623191 307.584 
L 386.495332 307.584 
L 386.495332 56.174688 
L 385.623191 56.174688 
z
" style="fill:#1f77b4;"/>
   </g>
   <g id="patch_290">
    <path clip-path="url(#p5778c31ae1)" d="M 386.713367 307.584 
L 387.585508 307.584 
L 387.585508 55.984608 
L 386.713367 55.984608 
z
" style="fill:#1f77b4;"/>
   </g>
   <g id="patch_291">
    <path clip-path="url(#p5778c31ae1)" d="M 387.803544 307.584 
L 388.675685 307.584 
L 388.675685 55.012032 
L 387.803544 55.012032 
z
" style="fill:#1f77b4;"/>
   </g>
   <g id="patch_292">
    <path clip-path="url(#p5778c31ae1)" d="M 388.89372 307.584 
L 389.765861 307.584 
L 389.765861 55.534752 
L 388.89372 55.534752 
z
" style="fill:#1f77b4;"/>
   </g>
   <g id="patch_293">
    <path clip-path="url(#p5778c31ae1)" d="M 389.983896 307.584 
L 390.856038 307.584 
L 390.856038 56.114496 
L 389.983896 56.114496 
z
" style="fill:#1f77b4;"/>
   </g>
   <g id="patch_294">
    <path clip-path="url(#p5778c31ae1)" d="M 391.074073 307.584 
L 391.946214 307.584 
L 391.946214 54.736416 
L 391.074073 54.736416 
z
" style="fill:#1f77b4;"/>
   </g>
   <g id="patch_295">
    <path clip-path="url(#p5778c31ae1)" d="M 392.164249 307.584 
L 393.036391 307.584 
L 393.036391 55.002528 
L 392.164249 55.002528 
z
" style="fill:#1f77b4;"/>
   </g>
   <g id="patch_296">
    <path clip-path="url(#p5778c31ae1)" d="M 393.254426 307.584 
L 394.126567 307.584 
L 394.126567 54.543168 
L 393.254426 54.543168 
z
" style="fill:#1f77b4;"/>
   </g>
   <g id="patch_297">
    <path clip-path="url(#p5778c31ae1)" d="M 394.344602 307.584 
L 395.216743 307.584 
L 395.216743 56.969856 
L 394.344602 56.969856 
z
" style="fill:#1f77b4;"/>
   </g>
   <g id="patch_298">
    <path clip-path="url(#p5778c31ae1)" d="M 395.434779 307.584 
L 396.30692 307.584 
L 396.30692 57.346848 
L 395.434779 57.346848 
z
" style="fill:#1f77b4;"/>
   </g>
   <g id="patch_299">
    <path clip-path="url(#p5778c31ae1)" d="M 396.524955 307.584 
L 397.397096 307.584 
L 397.397096 57.546432 
L 396.524955 57.546432 
z
" style="fill:#1f77b4;"/>
   </g>
   <g id="patch_300">
    <path clip-path="url(#p5778c31ae1)" d="M 397.615132 307.584 
L 398.487273 307.584 
L 398.487273 58.40496 
L 397.615132 58.40496 
z
" style="fill:#1f77b4;"/>
   </g>
   <g id="matplotlib.axis_1">
    <g id="xtick_1">
     <g id="line2d_1">
      <defs>
       <path d="M 0 0 
L 0 3.5 
" id="mc83caf5829" style="stroke:#000000;stroke-width:0.8;"/>
      </defs>
      <g>
       <use style="stroke:#000000;stroke-width:0.8;" x="74.268798" xlink:href="#mc83caf5829" y="307.584"/>
      </g>
     </g>
     <g id="text_1">
      <!-- 0 -->
      <defs>
       <path d="M 31.78125 66.40625 
Q 24.171875 66.40625 20.328125 58.90625 
Q 16.5 51.421875 16.5 36.375 
Q 16.5 21.390625 20.328125 13.890625 
Q 24.171875 6.390625 31.78125 6.390625 
Q 39.453125 6.390625 43.28125 13.890625 
Q 47.125 21.390625 47.125 36.375 
Q 47.125 51.421875 43.28125 58.90625 
Q 39.453125 66.40625 31.78125 66.40625 
z
M 31.78125 74.21875 
Q 44.046875 74.21875 50.515625 64.515625 
Q 56.984375 54.828125 56.984375 36.375 
Q 56.984375 17.96875 50.515625 8.265625 
Q 44.046875 -1.421875 31.78125 -1.421875 
Q 19.53125 -1.421875 13.0625 8.265625 
Q 6.59375 17.96875 6.59375 36.375 
Q 6.59375 54.828125 13.0625 64.515625 
Q 19.53125 74.21875 31.78125 74.21875 
z
" id="DejaVuSans-30"/>
      </defs>
      <g transform="translate(71.087548 322.182437)scale(0.1 -0.1)">
       <use xlink:href="#DejaVuSans-30"/>
      </g>
     </g>
    </g>
    <g id="xtick_2">
     <g id="line2d_2">
      <g>
       <use style="stroke:#000000;stroke-width:0.8;" x="128.77762" xlink:href="#mc83caf5829" y="307.584"/>
      </g>
     </g>
     <g id="text_2">
      <!-- 50 -->
      <defs>
       <path d="M 10.796875 72.90625 
L 49.515625 72.90625 
L 49.515625 64.59375 
L 19.828125 64.59375 
L 19.828125 46.734375 
Q 21.96875 47.46875 24.109375 47.828125 
Q 26.265625 48.1875 28.421875 48.1875 
Q 40.625 48.1875 47.75 41.5 
Q 54.890625 34.8125 54.890625 23.390625 
Q 54.890625 11.625 47.5625 5.09375 
Q 40.234375 -1.421875 26.90625 -1.421875 
Q 22.3125 -1.421875 17.546875 -0.640625 
Q 12.796875 0.140625 7.71875 1.703125 
L 7.71875 11.625 
Q 12.109375 9.234375 16.796875 8.0625 
Q 21.484375 6.890625 26.703125 6.890625 
Q 35.15625 6.890625 40.078125 11.328125 
Q 45.015625 15.765625 45.015625 23.390625 
Q 45.015625 31 40.078125 35.4375 
Q 35.15625 39.890625 26.703125 39.890625 
Q 22.75 39.890625 18.8125 39.015625 
Q 14.890625 38.140625 10.796875 36.28125 
z
" id="DejaVuSans-35"/>
      </defs>
      <g transform="translate(122.41512 322.182437)scale(0.1 -0.1)">
       <use xlink:href="#DejaVuSans-35"/>
       <use x="63.623047" xlink:href="#DejaVuSans-30"/>
      </g>
     </g>
    </g>
    <g id="xtick_3">
     <g id="line2d_3">
      <g>
       <use style="stroke:#000000;stroke-width:0.8;" x="183.286442" xlink:href="#mc83caf5829" y="307.584"/>
      </g>
     </g>
     <g id="text_3">
      <!-- 100 -->
      <defs>
       <path d="M 12.40625 8.296875 
L 28.515625 8.296875 
L 28.515625 63.921875 
L 10.984375 60.40625 
L 10.984375 69.390625 
L 28.421875 72.90625 
L 38.28125 72.90625 
L 38.28125 8.296875 
L 54.390625 8.296875 
L 54.390625 0 
L 12.40625 0 
z
" id="DejaVuSans-31"/>
      </defs>
      <g transform="translate(173.742692 322.182437)scale(0.1 -0.1)">
       <use xlink:href="#DejaVuSans-31"/>
       <use x="63.623047" xlink:href="#DejaVuSans-30"/>
       <use x="127.246094" xlink:href="#DejaVuSans-30"/>
      </g>
     </g>
    </g>
    <g id="xtick_4">
     <g id="line2d_4">
      <g>
       <use style="stroke:#000000;stroke-width:0.8;" x="237.795265" xlink:href="#mc83caf5829" y="307.584"/>
      </g>
     </g>
     <g id="text_4">
      <!-- 150 -->
      <g transform="translate(228.251515 322.182437)scale(0.1 -0.1)">
       <use xlink:href="#DejaVuSans-31"/>
       <use x="63.623047" xlink:href="#DejaVuSans-35"/>
       <use x="127.246094" xlink:href="#DejaVuSans-30"/>
      </g>
     </g>
    </g>
    <g id="xtick_5">
     <g id="line2d_5">
      <g>
       <use style="stroke:#000000;stroke-width:0.8;" x="292.304087" xlink:href="#mc83caf5829" y="307.584"/>
      </g>
     </g>
     <g id="text_5">
      <!-- 200 -->
      <defs>
       <path d="M 19.1875 8.296875 
L 53.609375 8.296875 
L 53.609375 0 
L 7.328125 0 
L 7.328125 8.296875 
Q 12.9375 14.109375 22.625 23.890625 
Q 32.328125 33.6875 34.8125 36.53125 
Q 39.546875 41.84375 41.421875 45.53125 
Q 43.3125 49.21875 43.3125 52.78125 
Q 43.3125 58.59375 39.234375 62.25 
Q 35.15625 65.921875 28.609375 65.921875 
Q 23.96875 65.921875 18.8125 64.3125 
Q 13.671875 62.703125 7.8125 59.421875 
L 7.8125 69.390625 
Q 13.765625 71.78125 18.9375 73 
Q 24.125 74.21875 28.421875 74.21875 
Q 39.75 74.21875 46.484375 68.546875 
Q 53.21875 62.890625 53.21875 53.421875 
Q 53.21875 48.921875 51.53125 44.890625 
Q 49.859375 40.875 45.40625 35.40625 
Q 44.1875 33.984375 37.640625 27.21875 
Q 31.109375 20.453125 19.1875 8.296875 
z
" id="DejaVuSans-32"/>
      </defs>
      <g transform="translate(282.760337 322.182437)scale(0.1 -0.1)">
       <use xlink:href="#DejaVuSans-32"/>
       <use x="63.623047" xlink:href="#DejaVuSans-30"/>
       <use x="127.246094" xlink:href="#DejaVuSans-30"/>
      </g>
     </g>
    </g>
    <g id="xtick_6">
     <g id="line2d_6">
      <g>
       <use style="stroke:#000000;stroke-width:0.8;" x="346.812909" xlink:href="#mc83caf5829" y="307.584"/>
      </g>
     </g>
     <g id="text_6">
      <!-- 250 -->
      <g transform="translate(337.269159 322.182437)scale(0.1 -0.1)">
       <use xlink:href="#DejaVuSans-32"/>
       <use x="63.623047" xlink:href="#DejaVuSans-35"/>
       <use x="127.246094" xlink:href="#DejaVuSans-30"/>
      </g>
     </g>
    </g>
    <g id="xtick_7">
     <g id="line2d_7">
      <g>
       <use style="stroke:#000000;stroke-width:0.8;" x="401.321731" xlink:href="#mc83caf5829" y="307.584"/>
      </g>
     </g>
     <g id="text_7">
      <!-- 300 -->
      <defs>
       <path d="M 40.578125 39.3125 
Q 47.65625 37.796875 51.625 33 
Q 55.609375 28.21875 55.609375 21.1875 
Q 55.609375 10.40625 48.1875 4.484375 
Q 40.765625 -1.421875 27.09375 -1.421875 
Q 22.515625 -1.421875 17.65625 -0.515625 
Q 12.796875 0.390625 7.625 2.203125 
L 7.625 11.71875 
Q 11.71875 9.328125 16.59375 8.109375 
Q 21.484375 6.890625 26.8125 6.890625 
Q 36.078125 6.890625 40.9375 10.546875 
Q 45.796875 14.203125 45.796875 21.1875 
Q 45.796875 27.640625 41.28125 31.265625 
Q 36.765625 34.90625 28.71875 34.90625 
L 20.21875 34.90625 
L 20.21875 43.015625 
L 29.109375 43.015625 
Q 36.375 43.015625 40.234375 45.921875 
Q 44.09375 48.828125 44.09375 54.296875 
Q 44.09375 59.90625 40.109375 62.90625 
Q 36.140625 65.921875 28.71875 65.921875 
Q 24.65625 65.921875 20.015625 65.03125 
Q 15.375 64.15625 9.8125 62.3125 
L 9.8125 71.09375 
Q 15.4375 72.65625 20.34375 73.4375 
Q 25.25 74.21875 29.59375 74.21875 
Q 40.828125 74.21875 47.359375 69.109375 
Q 53.90625 64.015625 53.90625 55.328125 
Q 53.90625 49.265625 50.4375 45.09375 
Q 46.96875 40.921875 40.578125 39.3125 
z
" id="DejaVuSans-33"/>
      </defs>
      <g transform="translate(391.777981 322.182437)scale(0.1 -0.1)">
       <use xlink:href="#DejaVuSans-33"/>
       <use x="63.623047" xlink:href="#DejaVuSans-30"/>
       <use x="127.246094" xlink:href="#DejaVuSans-30"/>
      </g>
     </g>
    </g>
   </g>
   <g id="matplotlib.axis_2">
    <g id="ytick_1">
     <g id="line2d_8">
      <defs>
       <path d="M 0 0 
L -3.5 0 
" id="mc2a732e54f" style="stroke:#000000;stroke-width:0.8;"/>
      </defs>
      <g>
       <use style="stroke:#000000;stroke-width:0.8;" x="57.6" xlink:href="#mc2a732e54f" y="307.584"/>
      </g>
     </g>
     <g id="text_8">
      <!-- 0.0 -->
      <defs>
       <path d="M 10.6875 12.40625 
L 21 12.40625 
L 21 0 
L 10.6875 0 
z
" id="DejaVuSans-2e"/>
      </defs>
      <g transform="translate(34.696875 311.383219)scale(0.1 -0.1)">
       <use xlink:href="#DejaVuSans-30"/>
       <use x="63.623047" xlink:href="#DejaVuSans-2e"/>
       <use x="95.410156" xlink:href="#DejaVuSans-30"/>
      </g>
     </g>
    </g>
    <g id="ytick_2">
     <g id="line2d_9">
      <g>
       <use style="stroke:#000000;stroke-width:0.8;" x="57.6" xlink:href="#mc2a732e54f" y="256.896"/>
      </g>
     </g>
     <g id="text_9">
      <!-- 0.2 -->
      <g transform="translate(34.696875 260.695219)scale(0.1 -0.1)">
       <use xlink:href="#DejaVuSans-30"/>
       <use x="63.623047" xlink:href="#DejaVuSans-2e"/>
       <use x="95.410156" xlink:href="#DejaVuSans-32"/>
      </g>
     </g>
    </g>
    <g id="ytick_3">
     <g id="line2d_10">
      <g>
       <use style="stroke:#000000;stroke-width:0.8;" x="57.6" xlink:href="#mc2a732e54f" y="206.208"/>
      </g>
     </g>
     <g id="text_10">
      <!-- 0.4 -->
      <defs>
       <path d="M 37.796875 64.3125 
L 12.890625 25.390625 
L 37.796875 25.390625 
z
M 35.203125 72.90625 
L 47.609375 72.90625 
L 47.609375 25.390625 
L 58.015625 25.390625 
L 58.015625 17.1875 
L 47.609375 17.1875 
L 47.609375 0 
L 37.796875 0 
L 37.796875 17.1875 
L 4.890625 17.1875 
L 4.890625 26.703125 
z
" id="DejaVuSans-34"/>
      </defs>
      <g transform="translate(34.696875 210.007219)scale(0.1 -0.1)">
       <use xlink:href="#DejaVuSans-30"/>
       <use x="63.623047" xlink:href="#DejaVuSans-2e"/>
       <use x="95.410156" xlink:href="#DejaVuSans-34"/>
      </g>
     </g>
    </g>
    <g id="ytick_4">
     <g id="line2d_11">
      <g>
       <use style="stroke:#000000;stroke-width:0.8;" x="57.6" xlink:href="#mc2a732e54f" y="155.52"/>
      </g>
     </g>
     <g id="text_11">
      <!-- 0.6 -->
      <defs>
       <path d="M 33.015625 40.375 
Q 26.375 40.375 22.484375 35.828125 
Q 18.609375 31.296875 18.609375 23.390625 
Q 18.609375 15.53125 22.484375 10.953125 
Q 26.375 6.390625 33.015625 6.390625 
Q 39.65625 6.390625 43.53125 10.953125 
Q 47.40625 15.53125 47.40625 23.390625 
Q 47.40625 31.296875 43.53125 35.828125 
Q 39.65625 40.375 33.015625 40.375 
z
M 52.59375 71.296875 
L 52.59375 62.3125 
Q 48.875 64.0625 45.09375 64.984375 
Q 41.3125 65.921875 37.59375 65.921875 
Q 27.828125 65.921875 22.671875 59.328125 
Q 17.53125 52.734375 16.796875 39.40625 
Q 19.671875 43.65625 24.015625 45.921875 
Q 28.375 48.1875 33.59375 48.1875 
Q 44.578125 48.1875 50.953125 41.515625 
Q 57.328125 34.859375 57.328125 23.390625 
Q 57.328125 12.15625 50.6875 5.359375 
Q 44.046875 -1.421875 33.015625 -1.421875 
Q 20.359375 -1.421875 13.671875 8.265625 
Q 6.984375 17.96875 6.984375 36.375 
Q 6.984375 53.65625 15.1875 63.9375 
Q 23.390625 74.21875 37.203125 74.21875 
Q 40.921875 74.21875 44.703125 73.484375 
Q 48.484375 72.75 52.59375 71.296875 
z
" id="DejaVuSans-36"/>
      </defs>
      <g transform="translate(34.696875 159.319219)scale(0.1 -0.1)">
       <use xlink:href="#DejaVuSans-30"/>
       <use x="63.623047" xlink:href="#DejaVuSans-2e"/>
       <use x="95.410156" xlink:href="#DejaVuSans-36"/>
      </g>
     </g>
    </g>
    <g id="ytick_5">
     <g id="line2d_12">
      <g>
       <use style="stroke:#000000;stroke-width:0.8;" x="57.6" xlink:href="#mc2a732e54f" y="104.832"/>
      </g>
     </g>
     <g id="text_12">
      <!-- 0.8 -->
      <defs>
       <path d="M 31.78125 34.625 
Q 24.75 34.625 20.71875 30.859375 
Q 16.703125 27.09375 16.703125 20.515625 
Q 16.703125 13.921875 20.71875 10.15625 
Q 24.75 6.390625 31.78125 6.390625 
Q 38.8125 6.390625 42.859375 10.171875 
Q 46.921875 13.96875 46.921875 20.515625 
Q 46.921875 27.09375 42.890625 30.859375 
Q 38.875 34.625 31.78125 34.625 
z
M 21.921875 38.8125 
Q 15.578125 40.375 12.03125 44.71875 
Q 8.5 49.078125 8.5 55.328125 
Q 8.5 64.0625 14.71875 69.140625 
Q 20.953125 74.21875 31.78125 74.21875 
Q 42.671875 74.21875 48.875 69.140625 
Q 55.078125 64.0625 55.078125 55.328125 
Q 55.078125 49.078125 51.53125 44.71875 
Q 48 40.375 41.703125 38.8125 
Q 48.828125 37.15625 52.796875 32.3125 
Q 56.78125 27.484375 56.78125 20.515625 
Q 56.78125 9.90625 50.3125 4.234375 
Q 43.84375 -1.421875 31.78125 -1.421875 
Q 19.734375 -1.421875 13.25 4.234375 
Q 6.78125 9.90625 6.78125 20.515625 
Q 6.78125 27.484375 10.78125 32.3125 
Q 14.796875 37.15625 21.921875 38.8125 
z
M 18.3125 54.390625 
Q 18.3125 48.734375 21.84375 45.5625 
Q 25.390625 42.390625 31.78125 42.390625 
Q 38.140625 42.390625 41.71875 45.5625 
Q 45.3125 48.734375 45.3125 54.390625 
Q 45.3125 60.0625 41.71875 63.234375 
Q 38.140625 66.40625 31.78125 66.40625 
Q 25.390625 66.40625 21.84375 63.234375 
Q 18.3125 60.0625 18.3125 54.390625 
z
" id="DejaVuSans-38"/>
      </defs>
      <g transform="translate(34.696875 108.631219)scale(0.1 -0.1)">
       <use xlink:href="#DejaVuSans-30"/>
       <use x="63.623047" xlink:href="#DejaVuSans-2e"/>
       <use x="95.410156" xlink:href="#DejaVuSans-38"/>
      </g>
     </g>
    </g>
    <g id="ytick_6">
     <g id="line2d_13">
      <g>
       <use style="stroke:#000000;stroke-width:0.8;" x="57.6" xlink:href="#mc2a732e54f" y="54.144"/>
      </g>
     </g>
     <g id="text_13">
      <!-- 1.0 -->
      <g transform="translate(34.696875 57.943219)scale(0.1 -0.1)">
       <use xlink:href="#DejaVuSans-31"/>
       <use x="63.623047" xlink:href="#DejaVuSans-2e"/>
       <use x="95.410156" xlink:href="#DejaVuSans-30"/>
      </g>
     </g>
    </g>
   </g>
   <g id="patch_301">
    <path d="M 57.6 307.584 
L 57.6 41.472 
" style="fill:none;stroke:#000000;stroke-linecap:square;stroke-linejoin:miter;stroke-width:0.8;"/>
   </g>
   <g id="patch_302">
    <path d="M 414.72 307.584 
L 414.72 41.472 
" style="fill:none;stroke:#000000;stroke-linecap:square;stroke-linejoin:miter;stroke-width:0.8;"/>
   </g>
   <g id="patch_303">
    <path d="M 57.6 307.584 
L 414.72 307.584 
" style="fill:none;stroke:#000000;stroke-linecap:square;stroke-linejoin:miter;stroke-width:0.8;"/>
   </g>
   <g id="patch_304">
    <path d="M 57.6 41.472 
L 414.72 41.472 
" style="fill:none;stroke:#000000;stroke-linecap:square;stroke-linejoin:miter;stroke-width:0.8;"/>
   </g>
   <g id="text_14">
    <!-- Plot of Accepted Proposals -->
    <defs>
     <path d="M 19.671875 64.796875 
L 19.671875 37.40625 
L 32.078125 37.40625 
Q 38.96875 37.40625 42.71875 40.96875 
Q 46.484375 44.53125 46.484375 51.125 
Q 46.484375 57.671875 42.71875 61.234375 
Q 38.96875 64.796875 32.078125 64.796875 
z
M 9.8125 72.90625 
L 32.078125 72.90625 
Q 44.34375 72.90625 50.609375 67.359375 
Q 56.890625 61.8125 56.890625 51.125 
Q 56.890625 40.328125 50.609375 34.8125 
Q 44.34375 29.296875 32.078125 29.296875 
L 19.671875 29.296875 
L 19.671875 0 
L 9.8125 0 
z
" id="DejaVuSans-50"/>
     <path d="M 9.421875 75.984375 
L 18.40625 75.984375 
L 18.40625 0 
L 9.421875 0 
z
" id="DejaVuSans-6c"/>
     <path d="M 30.609375 48.390625 
Q 23.390625 48.390625 19.1875 42.75 
Q 14.984375 37.109375 14.984375 27.296875 
Q 14.984375 17.484375 19.15625 11.84375 
Q 23.34375 6.203125 30.609375 6.203125 
Q 37.796875 6.203125 41.984375 11.859375 
Q 46.1875 17.53125 46.1875 27.296875 
Q 46.1875 37.015625 41.984375 42.703125 
Q 37.796875 48.390625 30.609375 48.390625 
z
M 30.609375 56 
Q 42.328125 56 49.015625 48.375 
Q 55.71875 40.765625 55.71875 27.296875 
Q 55.71875 13.875 49.015625 6.21875 
Q 42.328125 -1.421875 30.609375 -1.421875 
Q 18.84375 -1.421875 12.171875 6.21875 
Q 5.515625 13.875 5.515625 27.296875 
Q 5.515625 40.765625 12.171875 48.375 
Q 18.84375 56 30.609375 56 
z
" id="DejaVuSans-6f"/>
     <path d="M 18.3125 70.21875 
L 18.3125 54.6875 
L 36.8125 54.6875 
L 36.8125 47.703125 
L 18.3125 47.703125 
L 18.3125 18.015625 
Q 18.3125 11.328125 20.140625 9.421875 
Q 21.96875 7.515625 27.59375 7.515625 
L 36.8125 7.515625 
L 36.8125 0 
L 27.59375 0 
Q 17.1875 0 13.234375 3.875 
Q 9.28125 7.765625 9.28125 18.015625 
L 9.28125 47.703125 
L 2.6875 47.703125 
L 2.6875 54.6875 
L 9.28125 54.6875 
L 9.28125 70.21875 
z
" id="DejaVuSans-74"/>
     <path id="DejaVuSans-20"/>
     <path d="M 37.109375 75.984375 
L 37.109375 68.5 
L 28.515625 68.5 
Q 23.6875 68.5 21.796875 66.546875 
Q 19.921875 64.59375 19.921875 59.515625 
L 19.921875 54.6875 
L 34.71875 54.6875 
L 34.71875 47.703125 
L 19.921875 47.703125 
L 19.921875 0 
L 10.890625 0 
L 10.890625 47.703125 
L 2.296875 47.703125 
L 2.296875 54.6875 
L 10.890625 54.6875 
L 10.890625 58.5 
Q 10.890625 67.625 15.140625 71.796875 
Q 19.390625 75.984375 28.609375 75.984375 
z
" id="DejaVuSans-66"/>
     <path d="M 34.1875 63.1875 
L 20.796875 26.90625 
L 47.609375 26.90625 
z
M 28.609375 72.90625 
L 39.796875 72.90625 
L 67.578125 0 
L 57.328125 0 
L 50.6875 18.703125 
L 17.828125 18.703125 
L 11.1875 0 
L 0.78125 0 
z
" id="DejaVuSans-41"/>
     <path d="M 48.78125 52.59375 
L 48.78125 44.1875 
Q 44.96875 46.296875 41.140625 47.34375 
Q 37.3125 48.390625 33.40625 48.390625 
Q 24.65625 48.390625 19.8125 42.84375 
Q 14.984375 37.3125 14.984375 27.296875 
Q 14.984375 17.28125 19.8125 11.734375 
Q 24.65625 6.203125 33.40625 6.203125 
Q 37.3125 6.203125 41.140625 7.25 
Q 44.96875 8.296875 48.78125 10.40625 
L 48.78125 2.09375 
Q 45.015625 0.34375 40.984375 -0.53125 
Q 36.96875 -1.421875 32.421875 -1.421875 
Q 20.0625 -1.421875 12.78125 6.34375 
Q 5.515625 14.109375 5.515625 27.296875 
Q 5.515625 40.671875 12.859375 48.328125 
Q 20.21875 56 33.015625 56 
Q 37.15625 56 41.109375 55.140625 
Q 45.0625 54.296875 48.78125 52.59375 
z
" id="DejaVuSans-63"/>
     <path d="M 56.203125 29.59375 
L 56.203125 25.203125 
L 14.890625 25.203125 
Q 15.484375 15.921875 20.484375 11.0625 
Q 25.484375 6.203125 34.421875 6.203125 
Q 39.59375 6.203125 44.453125 7.46875 
Q 49.3125 8.734375 54.109375 11.28125 
L 54.109375 2.78125 
Q 49.265625 0.734375 44.1875 -0.34375 
Q 39.109375 -1.421875 33.890625 -1.421875 
Q 20.796875 -1.421875 13.15625 6.1875 
Q 5.515625 13.8125 5.515625 26.8125 
Q 5.515625 40.234375 12.765625 48.109375 
Q 20.015625 56 32.328125 56 
Q 43.359375 56 49.78125 48.890625 
Q 56.203125 41.796875 56.203125 29.59375 
z
M 47.21875 32.234375 
Q 47.125 39.59375 43.09375 43.984375 
Q 39.0625 48.390625 32.421875 48.390625 
Q 24.90625 48.390625 20.390625 44.140625 
Q 15.875 39.890625 15.1875 32.171875 
z
" id="DejaVuSans-65"/>
     <path d="M 18.109375 8.203125 
L 18.109375 -20.796875 
L 9.078125 -20.796875 
L 9.078125 54.6875 
L 18.109375 54.6875 
L 18.109375 46.390625 
Q 20.953125 51.265625 25.265625 53.625 
Q 29.59375 56 35.59375 56 
Q 45.5625 56 51.78125 48.09375 
Q 58.015625 40.1875 58.015625 27.296875 
Q 58.015625 14.40625 51.78125 6.484375 
Q 45.5625 -1.421875 35.59375 -1.421875 
Q 29.59375 -1.421875 25.265625 0.953125 
Q 20.953125 3.328125 18.109375 8.203125 
z
M 48.6875 27.296875 
Q 48.6875 37.203125 44.609375 42.84375 
Q 40.53125 48.484375 33.40625 48.484375 
Q 26.265625 48.484375 22.1875 42.84375 
Q 18.109375 37.203125 18.109375 27.296875 
Q 18.109375 17.390625 22.1875 11.75 
Q 26.265625 6.109375 33.40625 6.109375 
Q 40.53125 6.109375 44.609375 11.75 
Q 48.6875 17.390625 48.6875 27.296875 
z
" id="DejaVuSans-70"/>
     <path d="M 45.40625 46.390625 
L 45.40625 75.984375 
L 54.390625 75.984375 
L 54.390625 0 
L 45.40625 0 
L 45.40625 8.203125 
Q 42.578125 3.328125 38.25 0.953125 
Q 33.9375 -1.421875 27.875 -1.421875 
Q 17.96875 -1.421875 11.734375 6.484375 
Q 5.515625 14.40625 5.515625 27.296875 
Q 5.515625 40.1875 11.734375 48.09375 
Q 17.96875 56 27.875 56 
Q 33.9375 56 38.25 53.625 
Q 42.578125 51.265625 45.40625 46.390625 
z
M 14.796875 27.296875 
Q 14.796875 17.390625 18.875 11.75 
Q 22.953125 6.109375 30.078125 6.109375 
Q 37.203125 6.109375 41.296875 11.75 
Q 45.40625 17.390625 45.40625 27.296875 
Q 45.40625 37.203125 41.296875 42.84375 
Q 37.203125 48.484375 30.078125 48.484375 
Q 22.953125 48.484375 18.875 42.84375 
Q 14.796875 37.203125 14.796875 27.296875 
z
" id="DejaVuSans-64"/>
     <path d="M 41.109375 46.296875 
Q 39.59375 47.171875 37.8125 47.578125 
Q 36.03125 48 33.890625 48 
Q 26.265625 48 22.1875 43.046875 
Q 18.109375 38.09375 18.109375 28.8125 
L 18.109375 0 
L 9.078125 0 
L 9.078125 54.6875 
L 18.109375 54.6875 
L 18.109375 46.1875 
Q 20.953125 51.171875 25.484375 53.578125 
Q 30.03125 56 36.53125 56 
Q 37.453125 56 38.578125 55.875 
Q 39.703125 55.765625 41.0625 55.515625 
z
" id="DejaVuSans-72"/>
     <path d="M 44.28125 53.078125 
L 44.28125 44.578125 
Q 40.484375 46.53125 36.375 47.5 
Q 32.28125 48.484375 27.875 48.484375 
Q 21.1875 48.484375 17.84375 46.4375 
Q 14.5 44.390625 14.5 40.28125 
Q 14.5 37.15625 16.890625 35.375 
Q 19.28125 33.59375 26.515625 31.984375 
L 29.59375 31.296875 
Q 39.15625 29.25 43.1875 25.515625 
Q 47.21875 21.78125 47.21875 15.09375 
Q 47.21875 7.46875 41.1875 3.015625 
Q 35.15625 -1.421875 24.609375 -1.421875 
Q 20.21875 -1.421875 15.453125 -0.5625 
Q 10.6875 0.296875 5.421875 2 
L 5.421875 11.28125 
Q 10.40625 8.6875 15.234375 7.390625 
Q 20.0625 6.109375 24.8125 6.109375 
Q 31.15625 6.109375 34.5625 8.28125 
Q 37.984375 10.453125 37.984375 14.40625 
Q 37.984375 18.0625 35.515625 20.015625 
Q 33.0625 21.96875 24.703125 23.78125 
L 21.578125 24.515625 
Q 13.234375 26.265625 9.515625 29.90625 
Q 5.8125 33.546875 5.8125 39.890625 
Q 5.8125 47.609375 11.28125 51.796875 
Q 16.75 56 26.8125 56 
Q 31.78125 56 36.171875 55.265625 
Q 40.578125 54.546875 44.28125 53.078125 
z
" id="DejaVuSans-73"/>
     <path d="M 34.28125 27.484375 
Q 23.390625 27.484375 19.1875 25 
Q 14.984375 22.515625 14.984375 16.5 
Q 14.984375 11.71875 18.140625 8.90625 
Q 21.296875 6.109375 26.703125 6.109375 
Q 34.1875 6.109375 38.703125 11.40625 
Q 43.21875 16.703125 43.21875 25.484375 
L 43.21875 27.484375 
z
M 52.203125 31.203125 
L 52.203125 0 
L 43.21875 0 
L 43.21875 8.296875 
Q 40.140625 3.328125 35.546875 0.953125 
Q 30.953125 -1.421875 24.3125 -1.421875 
Q 15.921875 -1.421875 10.953125 3.296875 
Q 6 8.015625 6 15.921875 
Q 6 25.140625 12.171875 29.828125 
Q 18.359375 34.515625 30.609375 34.515625 
L 43.21875 34.515625 
L 43.21875 35.40625 
Q 43.21875 41.609375 39.140625 45 
Q 35.0625 48.390625 27.6875 48.390625 
Q 23 48.390625 18.546875 47.265625 
Q 14.109375 46.140625 10.015625 43.890625 
L 10.015625 52.203125 
Q 14.9375 54.109375 19.578125 55.046875 
Q 24.21875 56 28.609375 56 
Q 40.484375 56 46.34375 49.84375 
Q 52.203125 43.703125 52.203125 31.203125 
z
" id="DejaVuSans-61"/>
    </defs>
    <g transform="translate(156.464063 35.472)scale(0.12 -0.12)">
     <use xlink:href="#DejaVuSans-50"/>
     <use x="60.302734" xlink:href="#DejaVuSans-6c"/>
     <use x="88.085938" xlink:href="#DejaVuSans-6f"/>
     <use x="149.267578" xlink:href="#DejaVuSans-74"/>
     <use x="188.476562" xlink:href="#DejaVuSans-20"/>
     <use x="220.263672" xlink:href="#DejaVuSans-6f"/>
     <use x="281.445312" xlink:href="#DejaVuSans-66"/>
     <use x="316.650391" xlink:href="#DejaVuSans-20"/>
     <use x="348.4375" xlink:href="#DejaVuSans-41"/>
     <use x="416.830078" xlink:href="#DejaVuSans-63"/>
     <use x="471.810547" xlink:href="#DejaVuSans-63"/>
     <use x="526.791016" xlink:href="#DejaVuSans-65"/>
     <use x="588.314453" xlink:href="#DejaVuSans-70"/>
     <use x="651.791016" xlink:href="#DejaVuSans-74"/>
     <use x="691" xlink:href="#DejaVuSans-65"/>
     <use x="752.523438" xlink:href="#DejaVuSans-64"/>
     <use x="816" xlink:href="#DejaVuSans-20"/>
     <use x="847.787109" xlink:href="#DejaVuSans-50"/>
     <use x="908.074219" xlink:href="#DejaVuSans-72"/>
     <use x="949.15625" xlink:href="#DejaVuSans-6f"/>
     <use x="1010.337891" xlink:href="#DejaVuSans-70"/>
     <use x="1073.814453" xlink:href="#DejaVuSans-6f"/>
     <use x="1134.996094" xlink:href="#DejaVuSans-73"/>
     <use x="1187.095703" xlink:href="#DejaVuSans-61"/>
     <use x="1248.375" xlink:href="#DejaVuSans-6c"/>
     <use x="1276.158203" xlink:href="#DejaVuSans-73"/>
    </g>
   </g>
  </g>
 </g>
 <defs>
  <clipPath id="p5778c31ae1">
   <rect height="266.112" width="357.12" x="57.6" y="41.472"/>
  </clipPath>
 </defs>
</svg>
