<?xml version="1.0" encoding="utf-8" standalone="no"?>
<!DOCTYPE svg PUBLIC "-//W3C//DTD SVG 1.1//EN"
  "http://www.w3.org/Graphics/SVG/1.1/DTD/svg11.dtd">
<!-- Created with matplotlib (http://matplotlib.org/) -->
<svg height="345pt" version="1.1" viewBox="0 0 460 345" width="460pt" xmlns="http://www.w3.org/2000/svg" xmlns:xlink="http://www.w3.org/1999/xlink">
 <defs>
  <style type="text/css">
*{stroke-linecap:butt;stroke-linejoin:round;}
  </style>
 </defs>
 <g id="figure_1">
  <g id="patch_1">
   <path d="M 0 345.6 
L 460.8 345.6 
L 460.8 0 
L 0 0 
z
" style="fill:#ffffff;"/>
  </g>
  <g id="axes_1">
   <g id="patch_2">
    <path d="M 57.6 307.584 
L 414.72 307.584 
L 414.72 41.472 
L 57.6 41.472 
z
" style="fill:#ffffff;"/>
   </g>
   <g id="PolyCollection_1">
    <path clip-path="url(#pfc1c84807e)" d="M 73.832727 93.992679 
L 73.832727 97.690715 
L 75.48072 94.471103 
L 77.128713 107.896856 
L 78.776705 105.797452 
L 80.424698 123.965323 
L 82.07269 142.266784 
L 83.720683 152.426744 
L 85.368676 158.017538 
L 87.016668 142.395929 
L 88.664661 147.542285 
L 90.312653 154.387388 
L 91.960646 162.197079 
L 93.608639 173.804975 
L 95.256631 178.592 
L 96.904624 204.028126 
L 98.552617 215.708489 
L 100.200609 228.051971 
L 101.848602 235.615345 
L 103.496594 246.869995 
L 105.144587 261.81736 
L 106.79258 265.665022 
L 108.440572 266.72578 
L 110.088565 268.044795 
L 111.736557 265.77985 
L 113.38455 266.018515 
L 115.032543 267.055376 
L 116.680535 271.710977 
L 118.328528 276.304921 
L 119.976521 276.757323 
L 121.624513 278.886869 
L 123.272506 280.149244 
L 124.920498 280.528745 
L 126.568491 280.735386 
L 128.216484 278.307777 
L 129.864476 278.470543 
L 131.512469 279.221894 
L 133.160461 279.818355 
L 134.808454 280.34059 
L 136.456447 280.724066 
L 138.104439 281.404641 
L 139.752432 279.344466 
L 141.400425 277.68553 
L 143.048417 273.798547 
L 144.69641 267.278788 
L 146.344402 249.086503 
L 147.992395 231.285997 
L 149.640388 212.984951 
L 151.28838 195.850661 
L 152.936373 167.655564 
L 154.584365 145.869165 
L 156.232358 134.282339 
L 157.880351 114.896604 
L 159.528343 111.027508 
L 161.176336 94.741693 
L 162.824329 98.630188 
L 164.472321 90.225521 
L 166.120314 85.851183 
L 167.768306 73.520477 
L 169.416299 70.801558 
L 171.064292 64.968296 
L 172.712284 64.696412 
L 174.360277 67.281718 
L 176.008269 57.570312 
L 177.656262 81.77056 
L 179.304255 82.294562 
L 180.952247 97.874305 
L 182.60024 100.453288 
L 184.248233 103.162259 
L 185.896225 126.101069 
L 187.544218 130.635441 
L 189.19221 129.731437 
L 190.840203 131.940454 
L 192.488196 140.911645 
L 194.136188 155.779879 
L 195.784181 164.262708 
L 197.432174 171.611261 
L 199.080166 180.748922 
L 200.728159 186.350209 
L 202.376151 193.360724 
L 204.024144 200.318585 
L 205.672137 211.819061 
L 207.320129 216.457245 
L 208.968122 224.550949 
L 210.616114 231.952216 
L 212.264107 230.378703 
L 213.9121 231.678253 
L 215.560092 230.397358 
L 217.208085 232.493688 
L 218.856078 227.64842 
L 220.50407 229.272584 
L 222.152063 240.895333 
L 223.800055 245.109563 
L 225.448048 246.930597 
L 227.096041 255.473076 
L 228.744033 265.305349 
L 230.392026 268.937124 
L 232.040018 269.893274 
L 233.688011 269.942935 
L 235.336004 270.720257 
L 236.983996 271.313769 
L 238.631989 271.552727 
L 240.279982 273.935441 
L 241.927974 276.832176 
L 243.575967 279.615777 
L 245.223959 281.449434 
L 246.871952 282.811372 
L 248.519945 284.327143 
L 250.167937 284.342815 
L 251.81593 283.943374 
L 253.463922 283.770085 
L 255.111915 284.554399 
L 256.759908 284.288103 
L 258.4079 282.327253 
L 260.055893 281.224172 
L 261.703886 279.122257 
L 263.351878 274.636397 
L 264.999871 268.680139 
L 266.647863 259.872843 
L 268.295856 251.138715 
L 269.943849 233.712293 
L 271.591841 225.030164 
L 273.239834 215.521293 
L 274.887826 203.085015 
L 276.535819 190.309383 
L 278.183812 184.790459 
L 279.831804 182.796072 
L 281.479797 159.636299 
L 283.12779 159.304215 
L 284.775782 155.513166 
L 286.423775 149.155141 
L 288.071767 130.279526 
L 289.71976 125.360192 
L 291.367753 146.348919 
L 293.015745 134.817928 
L 294.663738 125.05907 
L 296.311731 126.068121 
L 297.959723 159.085309 
L 299.607716 155.718306 
L 301.255708 120.736322 
L 302.903701 133.107265 
L 304.551694 151.384753 
L 306.199686 150.249666 
L 307.847679 123.357488 
L 309.495671 138.839119 
L 311.143664 169.970659 
L 312.791657 166.178161 
L 314.439649 161.715528 
L 316.087642 153.351292 
L 317.735635 166.342655 
L 319.383627 167.44105 
L 321.03162 154.491461 
L 322.679612 158.288711 
L 324.327605 167.25174 
L 325.975598 192.92065 
L 327.62359 188.24199 
L 329.271583 181.998566 
L 330.919575 197.939541 
L 332.567568 210.42861 
L 334.215561 215.496386 
L 335.863553 222.406981 
L 337.511546 235.362205 
L 339.159539 255.221393 
L 340.807531 263.133296 
L 342.455524 264.122856 
L 344.103516 267.969248 
L 345.751509 272.118969 
L 347.399502 279.338715 
L 349.047494 280.4184 
L 350.695487 281.772003 
L 352.343479 283.559723 
L 353.991472 284.029002 
L 355.639465 284.155528 
L 357.287457 283.756361 
L 358.93545 283.449915 
L 360.583443 283.150716 
L 362.231435 283.848624 
L 363.879428 284.662074 
L 365.52742 285.172644 
L 367.175413 285.824734 
L 368.823406 286.092503 
L 370.471398 286.033765 
L 372.119391 284.331886 
L 373.767383 282.383975 
L 375.415376 280.586861 
L 377.063369 278.014113 
L 378.711361 272.829999 
L 380.359354 260.713487 
L 382.007347 246.667616 
L 383.655339 223.441014 
L 385.303332 190.026986 
L 386.951324 171.396018 
L 388.599317 164.507525 
L 390.24731 156.607779 
L 391.895302 139.845004 
L 393.543295 141.242056 
L 395.191287 156.670379 
L 396.83928 152.294756 
L 398.487273 137.626603 
L 398.487273 133.380315 
L 398.487273 133.380315 
L 396.83928 147.169859 
L 395.191287 154.49922 
L 393.543295 137.309088 
L 391.895302 134.268351 
L 390.24731 152.160953 
L 388.599317 160.858198 
L 386.951324 165.23609 
L 385.303332 181.532653 
L 383.655339 214.012478 
L 382.007347 243.319338 
L 380.359354 256.793846 
L 378.711361 269.814948 
L 377.063369 274.569573 
L 375.415376 276.9843 
L 373.767383 278.661526 
L 372.119391 280.546155 
L 370.471398 282.142462 
L 368.823406 282.189006 
L 367.175413 281.883829 
L 365.52742 281.2127 
L 363.879428 280.739259 
L 362.231435 279.925175 
L 360.583443 279.283407 
L 358.93545 279.624001 
L 357.287457 279.886188 
L 355.639465 280.272373 
L 353.991472 280.170103 
L 352.343479 279.55595 
L 350.695487 277.887834 
L 349.047494 276.691822 
L 347.399502 274.940845 
L 345.751509 268.359204 
L 344.103516 264.520715 
L 342.455524 261.229897 
L 340.807531 259.158424 
L 339.159539 249.313316 
L 337.511546 229.614266 
L 335.863553 218.267844 
L 334.215561 211.245299 
L 332.567568 205.951665 
L 330.919575 193.385108 
L 329.271583 178.728615 
L 327.62359 180.313837 
L 325.975598 186.116994 
L 324.327605 164.836546 
L 322.679612 155.083776 
L 321.03162 148.671801 
L 319.383627 162.696621 
L 317.735635 162.663696 
L 316.087642 148.205186 
L 314.439649 159.020169 
L 312.791657 160.440556 
L 311.143664 165.052319 
L 309.495671 132.302522 
L 307.847679 118.632807 
L 306.199686 143.098217 
L 304.551694 147.121947 
L 302.903701 129.026863 
L 301.255708 116.172861 
L 299.607716 146.71438 
L 297.959723 150.943374 
L 296.311731 122.697518 
L 294.663738 120.945392 
L 293.015745 130.049021 
L 291.367753 143.500023 
L 289.71976 120.054183 
L 288.071767 122.934647 
L 286.423775 145.944436 
L 284.775782 151.231696 
L 283.12779 156.952096 
L 281.479797 151.769011 
L 279.831804 177.558327 
L 278.183812 180.994085 
L 276.535819 184.270715 
L 274.887826 197.029402 
L 273.239834 210.300946 
L 271.591841 221.353125 
L 269.943849 228.574277 
L 268.295856 247.928729 
L 266.647863 257.155254 
L 264.999871 265.852759 
L 263.351878 271.494621 
L 261.703886 275.626723 
L 260.055893 277.491644 
L 258.4079 278.629619 
L 256.759908 280.459093 
L 255.111915 280.654678 
L 253.463922 279.85199 
L 251.81593 280.097742 
L 250.167937 280.491018 
L 248.519945 280.354574 
L 246.871952 278.888389 
L 245.223959 277.570388 
L 243.575967 275.68308 
L 241.927974 273.073917 
L 240.279982 270.347129 
L 238.631989 268.385643 
L 236.983996 268.227936 
L 235.336004 267.480867 
L 233.688011 267.054226 
L 232.040018 266.814447 
L 230.392026 265.494425 
L 228.744033 261.035069 
L 227.096041 251.209995 
L 225.448048 244.262523 
L 223.800055 241.720036 
L 222.152063 236.174853 
L 220.50407 225.473636 
L 218.856078 223.24485 
L 217.208085 229.267323 
L 215.560092 227.238033 
L 213.9121 228.371333 
L 212.264107 226.984017 
L 210.616114 228.087565 
L 208.968122 219.996366 
L 207.320129 212.419434 
L 205.672137 207.01698 
L 204.024144 196.442912 
L 202.376151 189.277027 
L 200.728159 182.850809 
L 199.080166 177.670716 
L 197.432174 169.049322 
L 195.784181 160.933976 
L 194.136188 151.858727 
L 192.488196 138.277638 
L 190.840203 129.665313 
L 189.19221 127.341753 
L 187.544218 125.737965 
L 185.896225 120.483174 
L 184.248233 98.073294 
L 182.60024 96.641379 
L 180.952247 92.508484 
L 179.304255 78.805335 
L 177.656262 72.795721 
L 176.008269 53.568 
L 174.360277 63.409767 
L 172.712284 59.005278 
L 171.064292 60.5759 
L 169.416299 65.681647 
L 167.768306 70.07063 
L 166.120314 82.139133 
L 164.472321 86.808538 
L 162.824329 94.309102 
L 161.176336 91.511261 
L 159.528343 107.887475 
L 157.880351 110.391833 
L 156.232358 131.563734 
L 154.584365 139.979414 
L 152.936373 159.594906 
L 151.28838 187.945922 
L 149.640388 205.956084 
L 147.992395 226.535451 
L 146.344402 244.001809 
L 144.69641 264.359779 
L 143.048417 270.662245 
L 141.400425 274.200533 
L 139.752432 275.854202 
L 138.104439 277.620973 
L 136.456447 276.950264 
L 134.808454 276.626885 
L 133.160461 276.065309 
L 131.512469 275.634367 
L 129.864476 274.784806 
L 128.216484 274.829179 
L 126.568491 277.040462 
L 124.920498 276.753662 
L 123.272506 276.457623 
L 121.624513 275.019745 
L 119.976521 273.265046 
L 118.328528 272.420081 
L 116.680535 267.925136 
L 115.032543 263.968746 
L 113.38455 263.190162 
L 111.736557 263.129159 
L 110.088565 265.156149 
L 108.440572 263.700887 
L 106.79258 262.304065 
L 105.144587 257.068535 
L 103.496594 241.776608 
L 101.848602 231.364207 
L 100.200609 222.503963 
L 98.552617 210.892527 
L 96.904624 198.156853 
L 95.256631 175.359501 
L 93.608639 171.17605 
L 91.960646 159.909609 
L 90.312653 151.654392 
L 88.664661 144.275487 
L 87.016668 136.847703 
L 85.368676 154.647379 
L 83.720683 149.978083 
L 82.07269 139.097711 
L 80.424698 115.963288 
L 78.776705 101.193576 
L 77.128713 100.411801 
L 75.48072 89.806427 
L 73.832727 93.992679 
z
" style="fill:#008000;fill-opacity:0.4;"/>
   </g>
   <g id="matplotlib.axis_1">
    <g id="xtick_1">
     <g id="line2d_1">
      <defs>
       <path d="M 0 0 
L 0 3.5 
" id="m7e47456e96" style="stroke:#000000;stroke-width:0.8;"/>
      </defs>
      <g>
       <use style="stroke:#000000;stroke-width:0.8;" x="73.832727" xlink:href="#m7e47456e96" y="307.584"/>
      </g>
     </g>
     <g id="text_1">
      <!-- 0.0 -->
      <defs>
       <path d="M 31.78125 66.40625 
Q 24.171875 66.40625 20.328125 58.90625 
Q 16.5 51.421875 16.5 36.375 
Q 16.5 21.390625 20.328125 13.890625 
Q 24.171875 6.390625 31.78125 6.390625 
Q 39.453125 6.390625 43.28125 13.890625 
Q 47.125 21.390625 47.125 36.375 
Q 47.125 51.421875 43.28125 58.90625 
Q 39.453125 66.40625 31.78125 66.40625 
z
M 31.78125 74.21875 
Q 44.046875 74.21875 50.515625 64.515625 
Q 56.984375 54.828125 56.984375 36.375 
Q 56.984375 17.96875 50.515625 8.265625 
Q 44.046875 -1.421875 31.78125 -1.421875 
Q 19.53125 -1.421875 13.0625 8.265625 
Q 6.59375 17.96875 6.59375 36.375 
Q 6.59375 54.828125 13.0625 64.515625 
Q 19.53125 74.21875 31.78125 74.21875 
z
" id="DejaVuSans-30"/>
       <path d="M 10.6875 12.40625 
L 21 12.40625 
L 21 0 
L 10.6875 0 
z
" id="DejaVuSans-2e"/>
      </defs>
      <g transform="translate(65.881165 322.182437)scale(0.1 -0.1)">
       <use xlink:href="#DejaVuSans-30"/>
       <use x="63.623047" xlink:href="#DejaVuSans-2e"/>
       <use x="95.410156" xlink:href="#DejaVuSans-30"/>
      </g>
     </g>
    </g>
    <g id="xtick_2">
     <g id="line2d_2">
      <g>
       <use style="stroke:#000000;stroke-width:0.8;" x="138.763636" xlink:href="#m7e47456e96" y="307.584"/>
      </g>
     </g>
     <g id="text_2">
      <!-- 0.2 -->
      <defs>
       <path d="M 19.1875 8.296875 
L 53.609375 8.296875 
L 53.609375 0 
L 7.328125 0 
L 7.328125 8.296875 
Q 12.9375 14.109375 22.625 23.890625 
Q 32.328125 33.6875 34.8125 36.53125 
Q 39.546875 41.84375 41.421875 45.53125 
Q 43.3125 49.21875 43.3125 52.78125 
Q 43.3125 58.59375 39.234375 62.25 
Q 35.15625 65.921875 28.609375 65.921875 
Q 23.96875 65.921875 18.8125 64.3125 
Q 13.671875 62.703125 7.8125 59.421875 
L 7.8125 69.390625 
Q 13.765625 71.78125 18.9375 73 
Q 24.125 74.21875 28.421875 74.21875 
Q 39.75 74.21875 46.484375 68.546875 
Q 53.21875 62.890625 53.21875 53.421875 
Q 53.21875 48.921875 51.53125 44.890625 
Q 49.859375 40.875 45.40625 35.40625 
Q 44.1875 33.984375 37.640625 27.21875 
Q 31.109375 20.453125 19.1875 8.296875 
z
" id="DejaVuSans-32"/>
      </defs>
      <g transform="translate(130.812074 322.182437)scale(0.1 -0.1)">
       <use xlink:href="#DejaVuSans-30"/>
       <use x="63.623047" xlink:href="#DejaVuSans-2e"/>
       <use x="95.410156" xlink:href="#DejaVuSans-32"/>
      </g>
     </g>
    </g>
    <g id="xtick_3">
     <g id="line2d_3">
      <g>
       <use style="stroke:#000000;stroke-width:0.8;" x="203.694545" xlink:href="#m7e47456e96" y="307.584"/>
      </g>
     </g>
     <g id="text_3">
      <!-- 0.4 -->
      <defs>
       <path d="M 37.796875 64.3125 
L 12.890625 25.390625 
L 37.796875 25.390625 
z
M 35.203125 72.90625 
L 47.609375 72.90625 
L 47.609375 25.390625 
L 58.015625 25.390625 
L 58.015625 17.1875 
L 47.609375 17.1875 
L 47.609375 0 
L 37.796875 0 
L 37.796875 17.1875 
L 4.890625 17.1875 
L 4.890625 26.703125 
z
" id="DejaVuSans-34"/>
      </defs>
      <g transform="translate(195.742983 322.182437)scale(0.1 -0.1)">
       <use xlink:href="#DejaVuSans-30"/>
       <use x="63.623047" xlink:href="#DejaVuSans-2e"/>
       <use x="95.410156" xlink:href="#DejaVuSans-34"/>
      </g>
     </g>
    </g>
    <g id="xtick_4">
     <g id="line2d_4">
      <g>
       <use style="stroke:#000000;stroke-width:0.8;" x="268.625455" xlink:href="#m7e47456e96" y="307.584"/>
      </g>
     </g>
     <g id="text_4">
      <!-- 0.6 -->
      <defs>
       <path d="M 33.015625 40.375 
Q 26.375 40.375 22.484375 35.828125 
Q 18.609375 31.296875 18.609375 23.390625 
Q 18.609375 15.53125 22.484375 10.953125 
Q 26.375 6.390625 33.015625 6.390625 
Q 39.65625 6.390625 43.53125 10.953125 
Q 47.40625 15.53125 47.40625 23.390625 
Q 47.40625 31.296875 43.53125 35.828125 
Q 39.65625 40.375 33.015625 40.375 
z
M 52.59375 71.296875 
L 52.59375 62.3125 
Q 48.875 64.0625 45.09375 64.984375 
Q 41.3125 65.921875 37.59375 65.921875 
Q 27.828125 65.921875 22.671875 59.328125 
Q 17.53125 52.734375 16.796875 39.40625 
Q 19.671875 43.65625 24.015625 45.921875 
Q 28.375 48.1875 33.59375 48.1875 
Q 44.578125 48.1875 50.953125 41.515625 
Q 57.328125 34.859375 57.328125 23.390625 
Q 57.328125 12.15625 50.6875 5.359375 
Q 44.046875 -1.421875 33.015625 -1.421875 
Q 20.359375 -1.421875 13.671875 8.265625 
Q 6.984375 17.96875 6.984375 36.375 
Q 6.984375 53.65625 15.1875 63.9375 
Q 23.390625 74.21875 37.203125 74.21875 
Q 40.921875 74.21875 44.703125 73.484375 
Q 48.484375 72.75 52.59375 71.296875 
z
" id="DejaVuSans-36"/>
      </defs>
      <g transform="translate(260.673892 322.182437)scale(0.1 -0.1)">
       <use xlink:href="#DejaVuSans-30"/>
       <use x="63.623047" xlink:href="#DejaVuSans-2e"/>
       <use x="95.410156" xlink:href="#DejaVuSans-36"/>
      </g>
     </g>
    </g>
    <g id="xtick_5">
     <g id="line2d_5">
      <g>
       <use style="stroke:#000000;stroke-width:0.8;" x="333.556364" xlink:href="#m7e47456e96" y="307.584"/>
      </g>
     </g>
     <g id="text_5">
      <!-- 0.8 -->
      <defs>
       <path d="M 31.78125 34.625 
Q 24.75 34.625 20.71875 30.859375 
Q 16.703125 27.09375 16.703125 20.515625 
Q 16.703125 13.921875 20.71875 10.15625 
Q 24.75 6.390625 31.78125 6.390625 
Q 38.8125 6.390625 42.859375 10.171875 
Q 46.921875 13.96875 46.921875 20.515625 
Q 46.921875 27.09375 42.890625 30.859375 
Q 38.875 34.625 31.78125 34.625 
z
M 21.921875 38.8125 
Q 15.578125 40.375 12.03125 44.71875 
Q 8.5 49.078125 8.5 55.328125 
Q 8.5 64.0625 14.71875 69.140625 
Q 20.953125 74.21875 31.78125 74.21875 
Q 42.671875 74.21875 48.875 69.140625 
Q 55.078125 64.0625 55.078125 55.328125 
Q 55.078125 49.078125 51.53125 44.71875 
Q 48 40.375 41.703125 38.8125 
Q 48.828125 37.15625 52.796875 32.3125 
Q 56.78125 27.484375 56.78125 20.515625 
Q 56.78125 9.90625 50.3125 4.234375 
Q 43.84375 -1.421875 31.78125 -1.421875 
Q 19.734375 -1.421875 13.25 4.234375 
Q 6.78125 9.90625 6.78125 20.515625 
Q 6.78125 27.484375 10.78125 32.3125 
Q 14.796875 37.15625 21.921875 38.8125 
z
M 18.3125 54.390625 
Q 18.3125 48.734375 21.84375 45.5625 
Q 25.390625 42.390625 31.78125 42.390625 
Q 38.140625 42.390625 41.71875 45.5625 
Q 45.3125 48.734375 45.3125 54.390625 
Q 45.3125 60.0625 41.71875 63.234375 
Q 38.140625 66.40625 31.78125 66.40625 
Q 25.390625 66.40625 21.84375 63.234375 
Q 18.3125 60.0625 18.3125 54.390625 
z
" id="DejaVuSans-38"/>
      </defs>
      <g transform="translate(325.604801 322.182437)scale(0.1 -0.1)">
       <use xlink:href="#DejaVuSans-30"/>
       <use x="63.623047" xlink:href="#DejaVuSans-2e"/>
       <use x="95.410156" xlink:href="#DejaVuSans-38"/>
      </g>
     </g>
    </g>
    <g id="xtick_6">
     <g id="line2d_6">
      <g>
       <use style="stroke:#000000;stroke-width:0.8;" x="398.487273" xlink:href="#m7e47456e96" y="307.584"/>
      </g>
     </g>
     <g id="text_6">
      <!-- 1.0 -->
      <defs>
       <path d="M 12.40625 8.296875 
L 28.515625 8.296875 
L 28.515625 63.921875 
L 10.984375 60.40625 
L 10.984375 69.390625 
L 28.421875 72.90625 
L 38.28125 72.90625 
L 38.28125 8.296875 
L 54.390625 8.296875 
L 54.390625 0 
L 12.40625 0 
z
" id="DejaVuSans-31"/>
      </defs>
      <g transform="translate(390.53571 322.182437)scale(0.1 -0.1)">
       <use xlink:href="#DejaVuSans-31"/>
       <use x="63.623047" xlink:href="#DejaVuSans-2e"/>
       <use x="95.410156" xlink:href="#DejaVuSans-30"/>
      </g>
     </g>
    </g>
   </g>
   <g id="matplotlib.axis_2">
    <g id="ytick_1">
     <g id="line2d_7">
      <defs>
       <path d="M 0 0 
L -3.5 0 
" id="m41610e31c5" style="stroke:#000000;stroke-width:0.8;"/>
      </defs>
      <g>
       <use style="stroke:#000000;stroke-width:0.8;" x="57.6" xlink:href="#m41610e31c5" y="299.598068"/>
      </g>
     </g>
     <g id="text_7">
      <!-- 0.0 -->
      <g transform="translate(34.696875 303.397287)scale(0.1 -0.1)">
       <use xlink:href="#DejaVuSans-30"/>
       <use x="63.623047" xlink:href="#DejaVuSans-2e"/>
       <use x="95.410156" xlink:href="#DejaVuSans-30"/>
      </g>
     </g>
    </g>
    <g id="ytick_2">
     <g id="line2d_8">
      <g>
       <use style="stroke:#000000;stroke-width:0.8;" x="57.6" xlink:href="#m41610e31c5" y="259.072843"/>
      </g>
     </g>
     <g id="text_8">
      <!-- 0.1 -->
      <g transform="translate(34.696875 262.872061)scale(0.1 -0.1)">
       <use xlink:href="#DejaVuSans-30"/>
       <use x="63.623047" xlink:href="#DejaVuSans-2e"/>
       <use x="95.410156" xlink:href="#DejaVuSans-31"/>
      </g>
     </g>
    </g>
    <g id="ytick_3">
     <g id="line2d_9">
      <g>
       <use style="stroke:#000000;stroke-width:0.8;" x="57.6" xlink:href="#m41610e31c5" y="218.547617"/>
      </g>
     </g>
     <g id="text_9">
      <!-- 0.2 -->
      <g transform="translate(34.696875 222.346835)scale(0.1 -0.1)">
       <use xlink:href="#DejaVuSans-30"/>
       <use x="63.623047" xlink:href="#DejaVuSans-2e"/>
       <use x="95.410156" xlink:href="#DejaVuSans-32"/>
      </g>
     </g>
    </g>
    <g id="ytick_4">
     <g id="line2d_10">
      <g>
       <use style="stroke:#000000;stroke-width:0.8;" x="57.6" xlink:href="#m41610e31c5" y="178.022391"/>
      </g>
     </g>
     <g id="text_10">
      <!-- 0.3 -->
      <defs>
       <path d="M 40.578125 39.3125 
Q 47.65625 37.796875 51.625 33 
Q 55.609375 28.21875 55.609375 21.1875 
Q 55.609375 10.40625 48.1875 4.484375 
Q 40.765625 -1.421875 27.09375 -1.421875 
Q 22.515625 -1.421875 17.65625 -0.515625 
Q 12.796875 0.390625 7.625 2.203125 
L 7.625 11.71875 
Q 11.71875 9.328125 16.59375 8.109375 
Q 21.484375 6.890625 26.8125 6.890625 
Q 36.078125 6.890625 40.9375 10.546875 
Q 45.796875 14.203125 45.796875 21.1875 
Q 45.796875 27.640625 41.28125 31.265625 
Q 36.765625 34.90625 28.71875 34.90625 
L 20.21875 34.90625 
L 20.21875 43.015625 
L 29.109375 43.015625 
Q 36.375 43.015625 40.234375 45.921875 
Q 44.09375 48.828125 44.09375 54.296875 
Q 44.09375 59.90625 40.109375 62.90625 
Q 36.140625 65.921875 28.71875 65.921875 
Q 24.65625 65.921875 20.015625 65.03125 
Q 15.375 64.15625 9.8125 62.3125 
L 9.8125 71.09375 
Q 15.4375 72.65625 20.34375 73.4375 
Q 25.25 74.21875 29.59375 74.21875 
Q 40.828125 74.21875 47.359375 69.109375 
Q 53.90625 64.015625 53.90625 55.328125 
Q 53.90625 49.265625 50.4375 45.09375 
Q 46.96875 40.921875 40.578125 39.3125 
z
" id="DejaVuSans-33"/>
      </defs>
      <g transform="translate(34.696875 181.82161)scale(0.1 -0.1)">
       <use xlink:href="#DejaVuSans-30"/>
       <use x="63.623047" xlink:href="#DejaVuSans-2e"/>
       <use x="95.410156" xlink:href="#DejaVuSans-33"/>
      </g>
     </g>
    </g>
    <g id="ytick_5">
     <g id="line2d_11">
      <g>
       <use style="stroke:#000000;stroke-width:0.8;" x="57.6" xlink:href="#m41610e31c5" y="137.497165"/>
      </g>
     </g>
     <g id="text_11">
      <!-- 0.4 -->
      <g transform="translate(34.696875 141.296384)scale(0.1 -0.1)">
       <use xlink:href="#DejaVuSans-30"/>
       <use x="63.623047" xlink:href="#DejaVuSans-2e"/>
       <use x="95.410156" xlink:href="#DejaVuSans-34"/>
      </g>
     </g>
    </g>
    <g id="ytick_6">
     <g id="line2d_12">
      <g>
       <use style="stroke:#000000;stroke-width:0.8;" x="57.6" xlink:href="#m41610e31c5" y="96.971939"/>
      </g>
     </g>
     <g id="text_12">
      <!-- 0.5 -->
      <defs>
       <path d="M 10.796875 72.90625 
L 49.515625 72.90625 
L 49.515625 64.59375 
L 19.828125 64.59375 
L 19.828125 46.734375 
Q 21.96875 47.46875 24.109375 47.828125 
Q 26.265625 48.1875 28.421875 48.1875 
Q 40.625 48.1875 47.75 41.5 
Q 54.890625 34.8125 54.890625 23.390625 
Q 54.890625 11.625 47.5625 5.09375 
Q 40.234375 -1.421875 26.90625 -1.421875 
Q 22.3125 -1.421875 17.546875 -0.640625 
Q 12.796875 0.140625 7.71875 1.703125 
L 7.71875 11.625 
Q 12.109375 9.234375 16.796875 8.0625 
Q 21.484375 6.890625 26.703125 6.890625 
Q 35.15625 6.890625 40.078125 11.328125 
Q 45.015625 15.765625 45.015625 23.390625 
Q 45.015625 31 40.078125 35.4375 
Q 35.15625 39.890625 26.703125 39.890625 
Q 22.75 39.890625 18.8125 39.015625 
Q 14.890625 38.140625 10.796875 36.28125 
z
" id="DejaVuSans-35"/>
      </defs>
      <g transform="translate(34.696875 100.771158)scale(0.1 -0.1)">
       <use xlink:href="#DejaVuSans-30"/>
       <use x="63.623047" xlink:href="#DejaVuSans-2e"/>
       <use x="95.410156" xlink:href="#DejaVuSans-35"/>
      </g>
     </g>
    </g>
    <g id="ytick_7">
     <g id="line2d_13">
      <g>
       <use style="stroke:#000000;stroke-width:0.8;" x="57.6" xlink:href="#m41610e31c5" y="56.446713"/>
      </g>
     </g>
     <g id="text_13">
      <!-- 0.6 -->
      <g transform="translate(34.696875 60.245932)scale(0.1 -0.1)">
       <use xlink:href="#DejaVuSans-30"/>
       <use x="63.623047" xlink:href="#DejaVuSans-2e"/>
       <use x="95.410156" xlink:href="#DejaVuSans-36"/>
      </g>
     </g>
    </g>
   </g>
   <g id="line2d_14">
    <path clip-path="url(#pfc1c84807e)" d="M 73.832727 99.574874 
L 75.48072 95.190855 
L 77.128713 103.137042 
L 78.776705 103.958893 
L 80.424698 122.317226 
L 82.07269 138.483549 
L 83.720683 151.087705 
L 85.368676 148.347794 
L 87.016668 142.319667 
L 88.664661 149.169646 
L 90.312653 154.375922 
L 91.960646 165.335969 
L 93.608639 170.267889 
L 95.256631 187.530419 
L 96.904624 206.162702 
L 100.200609 228.905054 
L 101.848602 235.755033 
L 103.496594 253.565464 
L 105.144587 261.511489 
L 106.79258 263.97753 
L 108.440572 266.991553 
L 110.088565 264.799543 
L 111.736557 263.97753 
L 113.38455 263.97753 
L 115.032543 268.361589 
L 116.680535 276.033703 
L 118.328528 278.225753 
L 119.976521 279.595749 
L 121.624513 283.705817 
L 123.272506 283.705817 
L 124.920498 285.075854 
L 126.568491 281.787799 
L 128.216484 280.143772 
L 129.864476 282.609813 
L 131.512469 282.335822 
L 133.160461 283.979808 
L 134.808454 284.25384 
L 136.456447 285.897867 
L 138.104439 283.705817 
L 139.752432 280.417763 
L 141.400425 276.033703 
L 143.048417 270.005616 
L 144.69641 254.387316 
L 146.344402 235.481082 
L 147.992395 219.58871 
L 149.640388 204.792545 
L 152.936373 162.596058 
L 154.584365 144.785627 
L 156.232358 129.715511 
L 157.880351 117.933207 
L 159.528343 105.055101 
L 161.176336 98.753023 
L 162.824329 93.272797 
L 164.472321 88.340877 
L 167.768306 73.270761 
L 171.064292 63.132565 
L 172.712284 65.872476 
L 174.360277 61.762407 
L 176.008269 63.406516 
L 177.656262 73.270761 
L 179.304255 82.038799 
L 180.952247 92.450945 
L 182.60024 92.998846 
L 184.248233 104.233249 
L 185.896225 120.947473 
L 187.544218 123.687384 
L 189.19221 125.605443 
L 190.840203 133.277678 
L 192.488196 140.127657 
L 194.136188 155.745674 
L 197.432174 171.911997 
L 199.080166 181.776243 
L 200.728159 185.61236 
L 202.376151 195.476606 
L 204.024144 202.874486 
L 205.672137 211.916879 
L 207.320129 217.12275 
L 208.968122 226.713044 
L 210.616114 229.179004 
L 213.9121 227.534896 
L 215.560092 229.452955 
L 217.208085 229.179004 
L 218.856078 223.972729 
L 222.152063 239.591151 
L 223.800055 243.97517 
L 225.448048 246.44113 
L 227.096041 258.223434 
L 228.744033 266.169539 
L 230.392026 268.361589 
L 232.040018 269.731625 
L 233.688011 268.63558 
L 235.336004 270.82763 
L 236.983996 270.553639 
L 238.631989 272.471657 
L 240.279982 277.129708 
L 243.575967 284.801822 
L 245.223959 287.541895 
L 246.871952 290.829949 
L 248.519945 291.925954 
L 250.167937 291.103941 
L 251.81593 289.733904 
L 253.463922 291.925954 
L 255.111915 292.199945 
L 256.759908 288.911891 
L 258.4079 285.897867 
L 260.055893 283.157795 
L 261.703886 277.951722 
L 263.351878 270.553639 
L 264.999871 259.867461 
L 266.647863 253.291514 
L 268.295856 237.947042 
L 269.943849 226.713044 
L 271.591841 218.492908 
L 273.239834 207.806811 
L 274.887826 196.298457 
L 276.535819 186.982518 
L 278.183812 185.61236 
L 279.831804 172.460304 
L 281.479797 161.499851 
L 283.12779 159.033891 
L 284.775782 153.005764 
L 286.423775 144.511676 
L 288.071767 125.879393 
L 289.71976 134.09953 
L 291.367753 136.56549 
L 293.015745 131.085264 
L 294.663738 123.687384 
L 296.311731 131.63357 
L 297.959723 153.005764 
L 299.607716 136.29154 
L 301.255708 128.619304 
L 302.903701 134.921382 
L 304.551694 148.895695 
L 306.199686 136.29154 
L 307.847679 127.523502 
L 309.495671 146.703686 
L 311.143664 161.773802 
L 312.791657 160.95195 
L 314.439649 158.212039 
L 316.087642 157.389783 
L 317.735635 165.609919 
L 319.383627 161.2259 
L 321.03162 154.101971 
L 322.679612 160.95195 
L 324.327605 172.460304 
L 325.975598 188.07832 
L 327.62359 180.954391 
L 329.271583 188.07832 
L 330.919575 202.600535 
L 335.863553 223.698778 
L 337.511546 243.153318 
L 339.159539 256.579325 
L 340.807531 261.237457 
L 342.455524 264.525512 
L 344.103516 268.909612 
L 345.751509 279.047767 
L 347.399502 283.705817 
L 349.047494 285.623836 
L 350.695487 288.637899 
L 352.343479 291.103941 
L 353.991472 291.377932 
L 355.639465 290.281927 
L 357.287457 290.281927 
L 358.93545 288.911891 
L 360.583443 290.007936 
L 362.231435 291.925954 
L 363.879428 292.747968 
L 365.52742 294.665986 
L 367.175413 295.488 
L 368.823406 295.488 
L 370.471398 293.021959 
L 372.119391 288.911891 
L 373.767383 285.897867 
L 375.415376 281.787799 
L 377.063369 275.485681 
L 378.711361 264.251521 
L 382.007347 233.015122 
L 383.655339 204.244643 
L 385.303332 183.694301 
L 386.951324 171.090146 
L 388.599317 163.143959 
L 390.24731 151.909962 
L 391.895302 139.03145 
L 393.543295 147.251587 
L 395.191287 152.457863 
L 396.83928 145.333528 
L 398.487273 134.647431 
L 398.487273 134.647431 
" style="fill:none;stroke:#1f77b4;stroke-linecap:square;stroke-width:1.5;"/>
   </g>
   <g id="line2d_15">
    <path clip-path="url(#pfc1c84807e)" d="M 73.832727 95.476938 
L 75.48072 92.767662 
L 77.128713 105.138967 
L 78.776705 103.301586 
L 80.424698 121.04137 
L 82.07269 140.968769 
L 83.720683 151.213375 
L 85.368676 156.277433 
L 87.016668 139.285651 
L 90.312653 153.001552 
L 91.960646 161.175865 
L 93.608639 172.577453 
L 95.256631 177.103089 
L 96.904624 201.461735 
L 100.200609 225.572731 
L 101.848602 233.626778 
L 103.496594 244.293795 
L 105.144587 259.525903 
L 106.79258 264.191688 
L 110.088565 266.898941 
L 111.736557 264.557518 
L 113.38455 264.888795 
L 115.032543 265.832802 
L 118.328528 274.980706 
L 119.976521 275.595026 
L 121.624513 277.702483 
L 123.272506 279.003324 
L 124.920498 279.360503 
L 126.568491 279.567095 
L 128.216484 277.03686 
L 129.864476 277.297059 
L 131.512469 278.083087 
L 134.808454 279.167177 
L 136.456447 279.553215 
L 138.104439 280.241876 
L 139.752432 278.102371 
L 141.400425 276.474933 
L 143.048417 272.388866 
L 144.69641 265.690408 
L 149.640388 208.39145 
L 151.28838 190.60927 
L 152.936373 162.363666 
L 154.584365 142.489734 
L 156.232358 132.840571 
L 157.880351 112.333341 
L 159.528343 109.366885 
L 161.176336 92.927811 
L 162.824329 97.014202 
L 164.472321 88.637605 
L 166.120314 84.253915 
L 167.768306 71.954592 
L 169.416299 68.884833 
L 171.064292 63.233813 
L 172.712284 62.573688 
L 174.360277 65.576222 
L 176.008269 55.931697 
L 177.656262 78.731785 
L 179.304255 80.647723 
L 180.952247 96.148426 
L 182.60024 98.379671 
L 184.248233 101.423455 
L 185.896225 124.294292 
L 187.544218 128.233006 
L 189.19221 128.51722 
L 190.840203 130.847622 
L 192.488196 139.566197 
L 194.136188 154.065764 
L 199.080166 179.375235 
L 200.728159 184.320488 
L 204.024144 198.344898 
L 205.672137 209.854413 
L 207.320129 214.560624 
L 210.616114 230.212856 
L 212.264107 228.462533 
L 213.9121 230.173604 
L 215.560092 228.890452 
L 217.208085 230.960788 
L 218.856078 224.846199 
L 220.50407 227.652232 
L 222.152063 238.577277 
L 223.800055 243.435386 
L 225.448048 245.633254 
L 227.096041 253.404136 
L 228.744033 263.365706 
L 230.392026 267.496549 
L 232.040018 268.702858 
L 233.688011 268.776532 
L 235.336004 269.538219 
L 236.983996 270.14541 
L 238.631989 270.388409 
L 240.279982 272.698929 
L 243.575967 278.409294 
L 245.223959 280.314667 
L 246.871952 281.68538 
L 248.519945 283.215692 
L 250.167937 283.222684 
L 251.81593 282.80871 
L 253.463922 282.636075 
L 255.111915 283.467853 
L 256.759908 283.154171 
L 258.4079 281.096139 
L 260.055893 280.038343 
L 261.703886 277.881445 
L 263.351878 273.169271 
L 264.999871 267.204242 
L 268.295856 249.444181 
L 269.943849 230.531272 
L 271.591841 222.738757 
L 273.239834 211.951155 
L 276.535819 186.092134 
L 278.183812 182.401799 
L 279.831804 179.442065 
L 281.479797 154.7387 
L 283.12779 158.224374 
L 284.775782 153.055668 
L 286.423775 147.335015 
L 288.071767 126.475499 
L 289.71976 122.991123 
L 291.367753 145.254796 
L 293.015745 132.239288 
L 294.663738 122.868529 
L 296.311731 124.740873 
L 297.959723 155.417504 
L 299.607716 151.067235 
L 301.255708 118.157313 
L 302.903701 131.594789 
L 304.551694 149.605141 
L 306.199686 146.70892 
L 307.847679 120.791133 
L 309.495671 136.051066 
L 311.143664 167.848502 
L 312.791657 162.935669 
L 314.439649 160.201378 
L 316.087642 150.413814 
L 317.735635 164.696933 
L 319.383627 164.703492 
L 321.03162 151.210805 
L 322.679612 156.760714 
L 324.327605 166.003318 
L 325.975598 189.620306 
L 327.62359 183.397564 
L 329.271583 180.426423 
L 330.919575 196.033925 
L 332.567568 208.367895 
L 334.215561 213.621289 
L 335.863553 220.561224 
L 337.511546 232.672746 
L 339.159539 252.178283 
L 340.807531 261.272192 
L 342.455524 262.850292 
L 344.103516 266.577057 
L 345.751509 270.702618 
L 347.399502 277.852643 
L 350.695487 280.63545 
L 352.343479 282.433333 
L 353.991472 282.910433 
L 355.639465 283.021886 
L 358.93545 282.292911 
L 360.583443 282.004355 
L 363.879428 283.569972 
L 365.52742 284.068669 
L 367.175413 284.740067 
L 368.823406 285.025053 
L 370.471398 284.95055 
L 375.415376 279.356382 
L 377.063369 276.727287 
L 378.711361 271.347804 
L 380.359354 258.673858 
L 382.007347 244.884626 
L 383.655339 217.739048 
L 385.303332 184.333013 
L 386.951324 167.305118 
L 388.599317 162.31854 
L 390.24731 153.935701 
L 391.895302 136.730758 
L 393.543295 139.383304 
L 395.191287 155.706063 
L 396.83928 149.578503 
L 398.487273 135.34251 
L 398.487273 135.34251 
" style="fill:none;stroke:#ff7f0e;stroke-linecap:square;stroke-width:1.5;"/>
   </g>
   <g id="line2d_16">
    <path clip-path="url(#pfc1c84807e)" d="M 73.832727 97.690715 
L 75.48072 94.471103 
L 77.128713 107.896856 
L 78.776705 105.797452 
L 82.07269 142.266784 
L 83.720683 152.426744 
L 85.368676 158.017538 
L 87.016668 142.395929 
L 88.664661 147.542285 
L 90.312653 154.387388 
L 91.960646 162.197079 
L 93.608639 173.804975 
L 95.256631 178.592 
L 96.904624 204.028126 
L 100.200609 228.051971 
L 101.848602 235.615345 
L 103.496594 246.869995 
L 105.144587 261.81736 
L 106.79258 265.665022 
L 108.440572 266.72578 
L 110.088565 268.044795 
L 111.736557 265.77985 
L 113.38455 266.018515 
L 115.032543 267.055376 
L 118.328528 276.304921 
L 119.976521 276.757323 
L 121.624513 278.886869 
L 123.272506 280.149244 
L 124.920498 280.528745 
L 126.568491 280.735386 
L 128.216484 278.307777 
L 129.864476 278.470543 
L 131.512469 279.221894 
L 134.808454 280.34059 
L 136.456447 280.724066 
L 138.104439 281.404641 
L 139.752432 279.344466 
L 141.400425 277.68553 
L 143.048417 273.798547 
L 144.69641 267.278788 
L 149.640388 212.984951 
L 151.28838 195.850661 
L 152.936373 167.655564 
L 154.584365 145.869165 
L 156.232358 134.282339 
L 157.880351 114.896604 
L 159.528343 111.027508 
L 161.176336 94.741693 
L 162.824329 98.630188 
L 164.472321 90.225521 
L 166.120314 85.851183 
L 167.768306 73.520477 
L 169.416299 70.801558 
L 171.064292 64.968296 
L 172.712284 64.696412 
L 174.360277 67.281718 
L 176.008269 57.570312 
L 177.656262 81.77056 
L 179.304255 82.294562 
L 180.952247 97.874305 
L 184.248233 103.162259 
L 185.896225 126.101069 
L 187.544218 130.635441 
L 189.19221 129.731437 
L 190.840203 131.940454 
L 192.488196 140.911645 
L 194.136188 155.779879 
L 195.784181 164.262708 
L 197.432174 171.611261 
L 199.080166 180.748922 
L 200.728159 186.350209 
L 204.024144 200.318585 
L 205.672137 211.819061 
L 207.320129 216.457245 
L 208.968122 224.550949 
L 210.616114 231.952216 
L 212.264107 230.378703 
L 213.9121 231.678253 
L 215.560092 230.397358 
L 217.208085 232.493688 
L 218.856078 227.64842 
L 220.50407 229.272584 
L 222.152063 240.895333 
L 223.800055 245.109563 
L 225.448048 246.930597 
L 227.096041 255.473076 
L 228.744033 265.305349 
L 230.392026 268.937124 
L 232.040018 269.893274 
L 233.688011 269.942935 
L 235.336004 270.720257 
L 236.983996 271.313769 
L 238.631989 271.552727 
L 240.279982 273.935441 
L 243.575967 279.615777 
L 245.223959 281.449434 
L 246.871952 282.811372 
L 248.519945 284.327143 
L 250.167937 284.342815 
L 251.81593 283.943374 
L 253.463922 283.770085 
L 255.111915 284.554399 
L 256.759908 284.288103 
L 258.4079 282.327253 
L 260.055893 281.224172 
L 261.703886 279.122257 
L 263.351878 274.636397 
L 264.999871 268.680139 
L 268.295856 251.138715 
L 269.943849 233.712293 
L 271.591841 225.030164 
L 273.239834 215.521293 
L 276.535819 190.309383 
L 278.183812 184.790459 
L 279.831804 182.796072 
L 281.479797 159.636299 
L 283.12779 159.304215 
L 284.775782 155.513166 
L 286.423775 149.155141 
L 288.071767 130.279526 
L 289.71976 125.360192 
L 291.367753 146.348919 
L 293.015745 134.817928 
L 294.663738 125.05907 
L 296.311731 126.068121 
L 297.959723 159.085309 
L 299.607716 155.718306 
L 301.255708 120.736322 
L 302.903701 133.107265 
L 304.551694 151.384753 
L 306.199686 150.249666 
L 307.847679 123.357488 
L 309.495671 138.839119 
L 311.143664 169.970659 
L 312.791657 166.178161 
L 314.439649 161.715528 
L 316.087642 153.351292 
L 317.735635 166.342655 
L 319.383627 167.44105 
L 321.03162 154.491461 
L 322.679612 158.288711 
L 324.327605 167.25174 
L 325.975598 192.92065 
L 327.62359 188.24199 
L 329.271583 181.998566 
L 330.919575 197.939541 
L 332.567568 210.42861 
L 334.215561 215.496386 
L 335.863553 222.406981 
L 337.511546 235.362205 
L 339.159539 255.221393 
L 340.807531 263.133296 
L 342.455524 264.122856 
L 344.103516 267.969248 
L 345.751509 272.118969 
L 347.399502 279.338715 
L 349.047494 280.4184 
L 350.695487 281.772003 
L 352.343479 283.559723 
L 353.991472 284.029002 
L 355.639465 284.155528 
L 358.93545 283.449915 
L 360.583443 283.150716 
L 367.175413 285.824734 
L 368.823406 286.092503 
L 370.471398 286.033765 
L 372.119391 284.331886 
L 375.415376 280.586861 
L 377.063369 278.014113 
L 378.711361 272.829999 
L 380.359354 260.713487 
L 382.007347 246.667616 
L 383.655339 223.441014 
L 385.303332 190.026986 
L 386.951324 171.396018 
L 388.599317 164.507525 
L 390.24731 156.607779 
L 391.895302 139.845004 
L 393.543295 141.242056 
L 395.191287 156.670379 
L 396.83928 152.294756 
L 398.487273 137.626603 
L 398.487273 137.626603 
" style="fill:none;stroke:#2ca02c;stroke-linecap:square;stroke-width:1.5;"/>
   </g>
   <g id="line2d_17">
    <path clip-path="url(#pfc1c84807e)" d="M 73.832727 93.992679 
L 75.48072 89.806427 
L 77.128713 100.411801 
L 78.776705 101.193576 
L 80.424698 115.963288 
L 82.07269 139.097711 
L 83.720683 149.978083 
L 85.368676 154.647379 
L 87.016668 136.847703 
L 90.312653 151.654392 
L 91.960646 159.909609 
L 93.608639 171.17605 
L 95.256631 175.359501 
L 96.904624 198.156853 
L 98.552617 210.892527 
L 100.200609 222.503963 
L 101.848602 231.364207 
L 103.496594 241.776608 
L 105.144587 257.068535 
L 106.79258 262.304065 
L 110.088565 265.156149 
L 111.736557 263.129159 
L 113.38455 263.190162 
L 115.032543 263.968746 
L 116.680535 267.925136 
L 118.328528 272.420081 
L 119.976521 273.265046 
L 121.624513 275.019745 
L 123.272506 276.457623 
L 126.568491 277.040462 
L 128.216484 274.829179 
L 129.864476 274.784806 
L 131.512469 275.634367 
L 133.160461 276.065309 
L 134.808454 276.626885 
L 136.456447 276.950264 
L 138.104439 277.620973 
L 141.400425 274.200533 
L 143.048417 270.662245 
L 144.69641 264.359779 
L 146.344402 244.001809 
L 147.992395 226.535451 
L 149.640388 205.956084 
L 151.28838 187.945922 
L 152.936373 159.594906 
L 154.584365 139.979414 
L 156.232358 131.563734 
L 157.880351 110.391833 
L 159.528343 107.887475 
L 161.176336 91.511261 
L 162.824329 94.309102 
L 164.472321 86.808538 
L 166.120314 82.139133 
L 167.768306 70.07063 
L 169.416299 65.681647 
L 171.064292 60.5759 
L 172.712284 59.005278 
L 174.360277 63.409767 
L 176.008269 53.568 
L 177.656262 72.795721 
L 179.304255 78.805335 
L 180.952247 92.508484 
L 182.60024 96.641379 
L 184.248233 98.073294 
L 185.896225 120.483174 
L 187.544218 125.737965 
L 189.19221 127.341753 
L 190.840203 129.665313 
L 192.488196 138.277638 
L 194.136188 151.858727 
L 195.784181 160.933976 
L 199.080166 177.670716 
L 200.728159 182.850809 
L 202.376151 189.277027 
L 204.024144 196.442912 
L 205.672137 207.01698 
L 207.320129 212.419434 
L 210.616114 228.087565 
L 212.264107 226.984017 
L 213.9121 228.371333 
L 215.560092 227.238033 
L 217.208085 229.267323 
L 218.856078 223.24485 
L 220.50407 225.473636 
L 222.152063 236.174853 
L 223.800055 241.720036 
L 225.448048 244.262523 
L 227.096041 251.209995 
L 228.744033 261.035069 
L 230.392026 265.494425 
L 232.040018 266.814447 
L 233.688011 267.054226 
L 235.336004 267.480867 
L 236.983996 268.227936 
L 238.631989 268.385643 
L 240.279982 270.347129 
L 243.575967 275.68308 
L 245.223959 277.570388 
L 246.871952 278.888389 
L 248.519945 280.354574 
L 250.167937 280.491018 
L 251.81593 280.097742 
L 253.463922 279.85199 
L 255.111915 280.654678 
L 256.759908 280.459093 
L 258.4079 278.629619 
L 260.055893 277.491644 
L 261.703886 275.626723 
L 263.351878 271.494621 
L 264.999871 265.852759 
L 268.295856 247.928729 
L 269.943849 228.574277 
L 271.591841 221.353125 
L 273.239834 210.300946 
L 276.535819 184.270715 
L 279.831804 177.558327 
L 281.479797 151.769011 
L 283.12779 156.952096 
L 284.775782 151.231696 
L 286.423775 145.944436 
L 288.071767 122.934647 
L 289.71976 120.054183 
L 291.367753 143.500023 
L 293.015745 130.049021 
L 294.663738 120.945392 
L 296.311731 122.697518 
L 297.959723 150.943374 
L 299.607716 146.71438 
L 301.255708 116.172861 
L 302.903701 129.026863 
L 304.551694 147.121947 
L 306.199686 143.098217 
L 307.847679 118.632807 
L 309.495671 132.302522 
L 311.143664 165.052319 
L 312.791657 160.440556 
L 314.439649 159.020169 
L 316.087642 148.205186 
L 317.735635 162.663696 
L 319.383627 162.696621 
L 321.03162 148.671801 
L 322.679612 155.083776 
L 324.327605 164.836546 
L 325.975598 186.116994 
L 327.62359 180.313837 
L 329.271583 178.728615 
L 330.919575 193.385108 
L 332.567568 205.951665 
L 334.215561 211.245299 
L 335.863553 218.267844 
L 337.511546 229.614266 
L 339.159539 249.313316 
L 340.807531 259.158424 
L 342.455524 261.229897 
L 344.103516 264.520715 
L 345.751509 268.359204 
L 347.399502 274.940845 
L 349.047494 276.691822 
L 350.695487 277.887834 
L 352.343479 279.55595 
L 353.991472 280.170103 
L 355.639465 280.272373 
L 357.287457 279.886188 
L 360.583443 279.283407 
L 362.231435 279.925175 
L 363.879428 280.739259 
L 365.52742 281.2127 
L 367.175413 281.883829 
L 368.823406 282.189006 
L 370.471398 282.142462 
L 372.119391 280.546155 
L 373.767383 278.661526 
L 375.415376 276.9843 
L 377.063369 274.569573 
L 378.711361 269.814948 
L 382.007347 243.319338 
L 383.655339 214.012478 
L 385.303332 181.532653 
L 386.951324 165.23609 
L 388.599317 160.858198 
L 390.24731 152.160953 
L 391.895302 134.268351 
L 393.543295 137.309088 
L 395.191287 154.49922 
L 396.83928 147.169859 
L 398.487273 133.380315 
L 398.487273 133.380315 
" style="fill:none;stroke:#d62728;stroke-linecap:square;stroke-width:1.5;"/>
   </g>
   <g id="patch_3">
    <path d="M 57.6 307.584 
L 57.6 41.472 
" style="fill:none;stroke:#000000;stroke-linecap:square;stroke-linejoin:miter;stroke-width:0.8;"/>
   </g>
   <g id="patch_4">
    <path d="M 414.72 307.584 
L 414.72 41.472 
" style="fill:none;stroke:#000000;stroke-linecap:square;stroke-linejoin:miter;stroke-width:0.8;"/>
   </g>
   <g id="patch_5">
    <path d="M 57.6 307.584 
L 414.72 307.584 
" style="fill:none;stroke:#000000;stroke-linecap:square;stroke-linejoin:miter;stroke-width:0.8;"/>
   </g>
   <g id="patch_6">
    <path d="M 57.6 41.472 
L 414.72 41.472 
" style="fill:none;stroke:#000000;stroke-linecap:square;stroke-linejoin:miter;stroke-width:0.8;"/>
   </g>
   <g id="text_14">
    <!-- Plot of Test Data vs MCMC Uncertainty  -->
    <defs>
     <path d="M 19.671875 64.796875 
L 19.671875 37.40625 
L 32.078125 37.40625 
Q 38.96875 37.40625 42.71875 40.96875 
Q 46.484375 44.53125 46.484375 51.125 
Q 46.484375 57.671875 42.71875 61.234375 
Q 38.96875 64.796875 32.078125 64.796875 
z
M 9.8125 72.90625 
L 32.078125 72.90625 
Q 44.34375 72.90625 50.609375 67.359375 
Q 56.890625 61.8125 56.890625 51.125 
Q 56.890625 40.328125 50.609375 34.8125 
Q 44.34375 29.296875 32.078125 29.296875 
L 19.671875 29.296875 
L 19.671875 0 
L 9.8125 0 
z
" id="DejaVuSans-50"/>
     <path d="M 9.421875 75.984375 
L 18.40625 75.984375 
L 18.40625 0 
L 9.421875 0 
z
" id="DejaVuSans-6c"/>
     <path d="M 30.609375 48.390625 
Q 23.390625 48.390625 19.1875 42.75 
Q 14.984375 37.109375 14.984375 27.296875 
Q 14.984375 17.484375 19.15625 11.84375 
Q 23.34375 6.203125 30.609375 6.203125 
Q 37.796875 6.203125 41.984375 11.859375 
Q 46.1875 17.53125 46.1875 27.296875 
Q 46.1875 37.015625 41.984375 42.703125 
Q 37.796875 48.390625 30.609375 48.390625 
z
M 30.609375 56 
Q 42.328125 56 49.015625 48.375 
Q 55.71875 40.765625 55.71875 27.296875 
Q 55.71875 13.875 49.015625 6.21875 
Q 42.328125 -1.421875 30.609375 -1.421875 
Q 18.84375 -1.421875 12.171875 6.21875 
Q 5.515625 13.875 5.515625 27.296875 
Q 5.515625 40.765625 12.171875 48.375 
Q 18.84375 56 30.609375 56 
z
" id="DejaVuSans-6f"/>
     <path d="M 18.3125 70.21875 
L 18.3125 54.6875 
L 36.8125 54.6875 
L 36.8125 47.703125 
L 18.3125 47.703125 
L 18.3125 18.015625 
Q 18.3125 11.328125 20.140625 9.421875 
Q 21.96875 7.515625 27.59375 7.515625 
L 36.8125 7.515625 
L 36.8125 0 
L 27.59375 0 
Q 17.1875 0 13.234375 3.875 
Q 9.28125 7.765625 9.28125 18.015625 
L 9.28125 47.703125 
L 2.6875 47.703125 
L 2.6875 54.6875 
L 9.28125 54.6875 
L 9.28125 70.21875 
z
" id="DejaVuSans-74"/>
     <path id="DejaVuSans-20"/>
     <path d="M 37.109375 75.984375 
L 37.109375 68.5 
L 28.515625 68.5 
Q 23.6875 68.5 21.796875 66.546875 
Q 19.921875 64.59375 19.921875 59.515625 
L 19.921875 54.6875 
L 34.71875 54.6875 
L 34.71875 47.703125 
L 19.921875 47.703125 
L 19.921875 0 
L 10.890625 0 
L 10.890625 47.703125 
L 2.296875 47.703125 
L 2.296875 54.6875 
L 10.890625 54.6875 
L 10.890625 58.5 
Q 10.890625 67.625 15.140625 71.796875 
Q 19.390625 75.984375 28.609375 75.984375 
z
" id="DejaVuSans-66"/>
     <path d="M -0.296875 72.90625 
L 61.375 72.90625 
L 61.375 64.59375 
L 35.5 64.59375 
L 35.5 0 
L 25.59375 0 
L 25.59375 64.59375 
L -0.296875 64.59375 
z
" id="DejaVuSans-54"/>
     <path d="M 56.203125 29.59375 
L 56.203125 25.203125 
L 14.890625 25.203125 
Q 15.484375 15.921875 20.484375 11.0625 
Q 25.484375 6.203125 34.421875 6.203125 
Q 39.59375 6.203125 44.453125 7.46875 
Q 49.3125 8.734375 54.109375 11.28125 
L 54.109375 2.78125 
Q 49.265625 0.734375 44.1875 -0.34375 
Q 39.109375 -1.421875 33.890625 -1.421875 
Q 20.796875 -1.421875 13.15625 6.1875 
Q 5.515625 13.8125 5.515625 26.8125 
Q 5.515625 40.234375 12.765625 48.109375 
Q 20.015625 56 32.328125 56 
Q 43.359375 56 49.78125 48.890625 
Q 56.203125 41.796875 56.203125 29.59375 
z
M 47.21875 32.234375 
Q 47.125 39.59375 43.09375 43.984375 
Q 39.0625 48.390625 32.421875 48.390625 
Q 24.90625 48.390625 20.390625 44.140625 
Q 15.875 39.890625 15.1875 32.171875 
z
" id="DejaVuSans-65"/>
     <path d="M 44.28125 53.078125 
L 44.28125 44.578125 
Q 40.484375 46.53125 36.375 47.5 
Q 32.28125 48.484375 27.875 48.484375 
Q 21.1875 48.484375 17.84375 46.4375 
Q 14.5 44.390625 14.5 40.28125 
Q 14.5 37.15625 16.890625 35.375 
Q 19.28125 33.59375 26.515625 31.984375 
L 29.59375 31.296875 
Q 39.15625 29.25 43.1875 25.515625 
Q 47.21875 21.78125 47.21875 15.09375 
Q 47.21875 7.46875 41.1875 3.015625 
Q 35.15625 -1.421875 24.609375 -1.421875 
Q 20.21875 -1.421875 15.453125 -0.5625 
Q 10.6875 0.296875 5.421875 2 
L 5.421875 11.28125 
Q 10.40625 8.6875 15.234375 7.390625 
Q 20.0625 6.109375 24.8125 6.109375 
Q 31.15625 6.109375 34.5625 8.28125 
Q 37.984375 10.453125 37.984375 14.40625 
Q 37.984375 18.0625 35.515625 20.015625 
Q 33.0625 21.96875 24.703125 23.78125 
L 21.578125 24.515625 
Q 13.234375 26.265625 9.515625 29.90625 
Q 5.8125 33.546875 5.8125 39.890625 
Q 5.8125 47.609375 11.28125 51.796875 
Q 16.75 56 26.8125 56 
Q 31.78125 56 36.171875 55.265625 
Q 40.578125 54.546875 44.28125 53.078125 
z
" id="DejaVuSans-73"/>
     <path d="M 19.671875 64.796875 
L 19.671875 8.109375 
L 31.59375 8.109375 
Q 46.6875 8.109375 53.6875 14.9375 
Q 60.6875 21.78125 60.6875 36.53125 
Q 60.6875 51.171875 53.6875 57.984375 
Q 46.6875 64.796875 31.59375 64.796875 
z
M 9.8125 72.90625 
L 30.078125 72.90625 
Q 51.265625 72.90625 61.171875 64.09375 
Q 71.09375 55.28125 71.09375 36.53125 
Q 71.09375 17.671875 61.125 8.828125 
Q 51.171875 0 30.078125 0 
L 9.8125 0 
z
" id="DejaVuSans-44"/>
     <path d="M 34.28125 27.484375 
Q 23.390625 27.484375 19.1875 25 
Q 14.984375 22.515625 14.984375 16.5 
Q 14.984375 11.71875 18.140625 8.90625 
Q 21.296875 6.109375 26.703125 6.109375 
Q 34.1875 6.109375 38.703125 11.40625 
Q 43.21875 16.703125 43.21875 25.484375 
L 43.21875 27.484375 
z
M 52.203125 31.203125 
L 52.203125 0 
L 43.21875 0 
L 43.21875 8.296875 
Q 40.140625 3.328125 35.546875 0.953125 
Q 30.953125 -1.421875 24.3125 -1.421875 
Q 15.921875 -1.421875 10.953125 3.296875 
Q 6 8.015625 6 15.921875 
Q 6 25.140625 12.171875 29.828125 
Q 18.359375 34.515625 30.609375 34.515625 
L 43.21875 34.515625 
L 43.21875 35.40625 
Q 43.21875 41.609375 39.140625 45 
Q 35.0625 48.390625 27.6875 48.390625 
Q 23 48.390625 18.546875 47.265625 
Q 14.109375 46.140625 10.015625 43.890625 
L 10.015625 52.203125 
Q 14.9375 54.109375 19.578125 55.046875 
Q 24.21875 56 28.609375 56 
Q 40.484375 56 46.34375 49.84375 
Q 52.203125 43.703125 52.203125 31.203125 
z
" id="DejaVuSans-61"/>
     <path d="M 2.984375 54.6875 
L 12.5 54.6875 
L 29.59375 8.796875 
L 46.6875 54.6875 
L 56.203125 54.6875 
L 35.6875 0 
L 23.484375 0 
z
" id="DejaVuSans-76"/>
     <path d="M 9.8125 72.90625 
L 24.515625 72.90625 
L 43.109375 23.296875 
L 61.8125 72.90625 
L 76.515625 72.90625 
L 76.515625 0 
L 66.890625 0 
L 66.890625 64.015625 
L 48.09375 14.015625 
L 38.1875 14.015625 
L 19.390625 64.015625 
L 19.390625 0 
L 9.8125 0 
z
" id="DejaVuSans-4d"/>
     <path d="M 64.40625 67.28125 
L 64.40625 56.890625 
Q 59.421875 61.53125 53.78125 63.8125 
Q 48.140625 66.109375 41.796875 66.109375 
Q 29.296875 66.109375 22.65625 58.46875 
Q 16.015625 50.828125 16.015625 36.375 
Q 16.015625 21.96875 22.65625 14.328125 
Q 29.296875 6.6875 41.796875 6.6875 
Q 48.140625 6.6875 53.78125 8.984375 
Q 59.421875 11.28125 64.40625 15.921875 
L 64.40625 5.609375 
Q 59.234375 2.09375 53.4375 0.328125 
Q 47.65625 -1.421875 41.21875 -1.421875 
Q 24.65625 -1.421875 15.125 8.703125 
Q 5.609375 18.84375 5.609375 36.375 
Q 5.609375 53.953125 15.125 64.078125 
Q 24.65625 74.21875 41.21875 74.21875 
Q 47.75 74.21875 53.53125 72.484375 
Q 59.328125 70.75 64.40625 67.28125 
z
" id="DejaVuSans-43"/>
     <path d="M 8.6875 72.90625 
L 18.609375 72.90625 
L 18.609375 28.609375 
Q 18.609375 16.890625 22.84375 11.734375 
Q 27.09375 6.59375 36.625 6.59375 
Q 46.09375 6.59375 50.34375 11.734375 
Q 54.59375 16.890625 54.59375 28.609375 
L 54.59375 72.90625 
L 64.5 72.90625 
L 64.5 27.390625 
Q 64.5 13.140625 57.4375 5.859375 
Q 50.390625 -1.421875 36.625 -1.421875 
Q 22.796875 -1.421875 15.734375 5.859375 
Q 8.6875 13.140625 8.6875 27.390625 
z
" id="DejaVuSans-55"/>
     <path d="M 54.890625 33.015625 
L 54.890625 0 
L 45.90625 0 
L 45.90625 32.71875 
Q 45.90625 40.484375 42.875 44.328125 
Q 39.84375 48.1875 33.796875 48.1875 
Q 26.515625 48.1875 22.3125 43.546875 
Q 18.109375 38.921875 18.109375 30.90625 
L 18.109375 0 
L 9.078125 0 
L 9.078125 54.6875 
L 18.109375 54.6875 
L 18.109375 46.1875 
Q 21.34375 51.125 25.703125 53.5625 
Q 30.078125 56 35.796875 56 
Q 45.21875 56 50.046875 50.171875 
Q 54.890625 44.34375 54.890625 33.015625 
z
" id="DejaVuSans-6e"/>
     <path d="M 48.78125 52.59375 
L 48.78125 44.1875 
Q 44.96875 46.296875 41.140625 47.34375 
Q 37.3125 48.390625 33.40625 48.390625 
Q 24.65625 48.390625 19.8125 42.84375 
Q 14.984375 37.3125 14.984375 27.296875 
Q 14.984375 17.28125 19.8125 11.734375 
Q 24.65625 6.203125 33.40625 6.203125 
Q 37.3125 6.203125 41.140625 7.25 
Q 44.96875 8.296875 48.78125 10.40625 
L 48.78125 2.09375 
Q 45.015625 0.34375 40.984375 -0.53125 
Q 36.96875 -1.421875 32.421875 -1.421875 
Q 20.0625 -1.421875 12.78125 6.34375 
Q 5.515625 14.109375 5.515625 27.296875 
Q 5.515625 40.671875 12.859375 48.328125 
Q 20.21875 56 33.015625 56 
Q 37.15625 56 41.109375 55.140625 
Q 45.0625 54.296875 48.78125 52.59375 
z
" id="DejaVuSans-63"/>
     <path d="M 41.109375 46.296875 
Q 39.59375 47.171875 37.8125 47.578125 
Q 36.03125 48 33.890625 48 
Q 26.265625 48 22.1875 43.046875 
Q 18.109375 38.09375 18.109375 28.8125 
L 18.109375 0 
L 9.078125 0 
L 9.078125 54.6875 
L 18.109375 54.6875 
L 18.109375 46.1875 
Q 20.953125 51.171875 25.484375 53.578125 
Q 30.03125 56 36.53125 56 
Q 37.453125 56 38.578125 55.875 
Q 39.703125 55.765625 41.0625 55.515625 
z
" id="DejaVuSans-72"/>
     <path d="M 9.421875 54.6875 
L 18.40625 54.6875 
L 18.40625 0 
L 9.421875 0 
z
M 9.421875 75.984375 
L 18.40625 75.984375 
L 18.40625 64.59375 
L 9.421875 64.59375 
z
" id="DejaVuSans-69"/>
     <path d="M 32.171875 -5.078125 
Q 28.375 -14.84375 24.75 -17.8125 
Q 21.140625 -20.796875 15.09375 -20.796875 
L 7.90625 -20.796875 
L 7.90625 -13.28125 
L 13.1875 -13.28125 
Q 16.890625 -13.28125 18.9375 -11.515625 
Q 21 -9.765625 23.484375 -3.21875 
L 25.09375 0.875 
L 2.984375 54.6875 
L 12.5 54.6875 
L 29.59375 11.921875 
L 46.6875 54.6875 
L 56.203125 54.6875 
z
" id="DejaVuSans-79"/>
    </defs>
    <g transform="translate(118.112813 35.472)scale(0.12 -0.12)">
     <use xlink:href="#DejaVuSans-50"/>
     <use x="60.302734" xlink:href="#DejaVuSans-6c"/>
     <use x="88.085938" xlink:href="#DejaVuSans-6f"/>
     <use x="149.267578" xlink:href="#DejaVuSans-74"/>
     <use x="188.476562" xlink:href="#DejaVuSans-20"/>
     <use x="220.263672" xlink:href="#DejaVuSans-6f"/>
     <use x="281.445312" xlink:href="#DejaVuSans-66"/>
     <use x="316.650391" xlink:href="#DejaVuSans-20"/>
     <use x="348.4375" xlink:href="#DejaVuSans-54"/>
     <use x="409.255859" xlink:href="#DejaVuSans-65"/>
     <use x="470.779297" xlink:href="#DejaVuSans-73"/>
     <use x="522.878906" xlink:href="#DejaVuSans-74"/>
     <use x="562.087891" xlink:href="#DejaVuSans-20"/>
     <use x="593.875" xlink:href="#DejaVuSans-44"/>
     <use x="670.876953" xlink:href="#DejaVuSans-61"/>
     <use x="732.15625" xlink:href="#DejaVuSans-74"/>
     <use x="771.365234" xlink:href="#DejaVuSans-61"/>
     <use x="832.644531" xlink:href="#DejaVuSans-20"/>
     <use x="864.431641" xlink:href="#DejaVuSans-76"/>
     <use x="923.611328" xlink:href="#DejaVuSans-73"/>
     <use x="975.710938" xlink:href="#DejaVuSans-20"/>
     <use x="1007.498047" xlink:href="#DejaVuSans-4d"/>
     <use x="1093.777344" xlink:href="#DejaVuSans-43"/>
     <use x="1163.601562" xlink:href="#DejaVuSans-4d"/>
     <use x="1249.880859" xlink:href="#DejaVuSans-43"/>
     <use x="1319.705078" xlink:href="#DejaVuSans-20"/>
     <use x="1351.492188" xlink:href="#DejaVuSans-55"/>
     <use x="1424.685547" xlink:href="#DejaVuSans-6e"/>
     <use x="1488.064453" xlink:href="#DejaVuSans-63"/>
     <use x="1543.044922" xlink:href="#DejaVuSans-65"/>
     <use x="1604.568359" xlink:href="#DejaVuSans-72"/>
     <use x="1645.681641" xlink:href="#DejaVuSans-74"/>
     <use x="1684.890625" xlink:href="#DejaVuSans-61"/>
     <use x="1746.169922" xlink:href="#DejaVuSans-69"/>
     <use x="1773.953125" xlink:href="#DejaVuSans-6e"/>
     <use x="1837.332031" xlink:href="#DejaVuSans-74"/>
     <use x="1876.541016" xlink:href="#DejaVuSans-79"/>
     <use x="1935.720703" xlink:href="#DejaVuSans-20"/>
    </g>
   </g>
   <g id="legend_1">
    <g id="patch_7">
     <path d="M 277.843437 108.1845 
L 407.72 108.1845 
Q 409.72 108.1845 409.72 106.1845 
L 409.72 48.472 
Q 409.72 46.472 407.72 46.472 
L 277.843437 46.472 
Q 275.843437 46.472 275.843437 48.472 
L 275.843437 106.1845 
Q 275.843437 108.1845 277.843437 108.1845 
z
" style="fill:#ffffff;opacity:0.8;stroke:#cccccc;stroke-linejoin:miter;"/>
    </g>
    <g id="line2d_18">
     <path d="M 279.843437 54.570438 
L 299.843437 54.570438 
" style="fill:none;stroke:#1f77b4;stroke-linecap:square;stroke-width:1.5;"/>
    </g>
    <g id="line2d_19"/>
    <g id="text_15">
     <!-- actual -->
     <defs>
      <path d="M 8.5 21.578125 
L 8.5 54.6875 
L 17.484375 54.6875 
L 17.484375 21.921875 
Q 17.484375 14.15625 20.5 10.265625 
Q 23.53125 6.390625 29.59375 6.390625 
Q 36.859375 6.390625 41.078125 11.03125 
Q 45.3125 15.671875 45.3125 23.6875 
L 45.3125 54.6875 
L 54.296875 54.6875 
L 54.296875 0 
L 45.3125 0 
L 45.3125 8.40625 
Q 42.046875 3.421875 37.71875 1 
Q 33.40625 -1.421875 27.6875 -1.421875 
Q 18.265625 -1.421875 13.375 4.4375 
Q 8.5 10.296875 8.5 21.578125 
z
M 31.109375 56 
z
" id="DejaVuSans-75"/>
     </defs>
     <g transform="translate(307.843437 58.070438)scale(0.1 -0.1)">
      <use xlink:href="#DejaVuSans-61"/>
      <use x="61.279297" xlink:href="#DejaVuSans-63"/>
      <use x="116.259766" xlink:href="#DejaVuSans-74"/>
      <use x="155.46875" xlink:href="#DejaVuSans-75"/>
      <use x="218.847656" xlink:href="#DejaVuSans-61"/>
      <use x="280.126953" xlink:href="#DejaVuSans-6c"/>
     </g>
    </g>
    <g id="line2d_20">
     <path d="M 279.843437 69.248563 
L 299.843437 69.248563 
" style="fill:none;stroke:#ff7f0e;stroke-linecap:square;stroke-width:1.5;"/>
    </g>
    <g id="line2d_21"/>
    <g id="text_16">
     <!-- pred. (mean) -->
     <defs>
      <path d="M 18.109375 8.203125 
L 18.109375 -20.796875 
L 9.078125 -20.796875 
L 9.078125 54.6875 
L 18.109375 54.6875 
L 18.109375 46.390625 
Q 20.953125 51.265625 25.265625 53.625 
Q 29.59375 56 35.59375 56 
Q 45.5625 56 51.78125 48.09375 
Q 58.015625 40.1875 58.015625 27.296875 
Q 58.015625 14.40625 51.78125 6.484375 
Q 45.5625 -1.421875 35.59375 -1.421875 
Q 29.59375 -1.421875 25.265625 0.953125 
Q 20.953125 3.328125 18.109375 8.203125 
z
M 48.6875 27.296875 
Q 48.6875 37.203125 44.609375 42.84375 
Q 40.53125 48.484375 33.40625 48.484375 
Q 26.265625 48.484375 22.1875 42.84375 
Q 18.109375 37.203125 18.109375 27.296875 
Q 18.109375 17.390625 22.1875 11.75 
Q 26.265625 6.109375 33.40625 6.109375 
Q 40.53125 6.109375 44.609375 11.75 
Q 48.6875 17.390625 48.6875 27.296875 
z
" id="DejaVuSans-70"/>
      <path d="M 45.40625 46.390625 
L 45.40625 75.984375 
L 54.390625 75.984375 
L 54.390625 0 
L 45.40625 0 
L 45.40625 8.203125 
Q 42.578125 3.328125 38.25 0.953125 
Q 33.9375 -1.421875 27.875 -1.421875 
Q 17.96875 -1.421875 11.734375 6.484375 
Q 5.515625 14.40625 5.515625 27.296875 
Q 5.515625 40.1875 11.734375 48.09375 
Q 17.96875 56 27.875 56 
Q 33.9375 56 38.25 53.625 
Q 42.578125 51.265625 45.40625 46.390625 
z
M 14.796875 27.296875 
Q 14.796875 17.390625 18.875 11.75 
Q 22.953125 6.109375 30.078125 6.109375 
Q 37.203125 6.109375 41.296875 11.75 
Q 45.40625 17.390625 45.40625 27.296875 
Q 45.40625 37.203125 41.296875 42.84375 
Q 37.203125 48.484375 30.078125 48.484375 
Q 22.953125 48.484375 18.875 42.84375 
Q 14.796875 37.203125 14.796875 27.296875 
z
" id="DejaVuSans-64"/>
      <path d="M 31 75.875 
Q 24.46875 64.65625 21.28125 53.65625 
Q 18.109375 42.671875 18.109375 31.390625 
Q 18.109375 20.125 21.3125 9.0625 
Q 24.515625 -2 31 -13.1875 
L 23.1875 -13.1875 
Q 15.875 -1.703125 12.234375 9.375 
Q 8.59375 20.453125 8.59375 31.390625 
Q 8.59375 42.28125 12.203125 53.3125 
Q 15.828125 64.359375 23.1875 75.875 
z
" id="DejaVuSans-28"/>
      <path d="M 52 44.1875 
Q 55.375 50.25 60.0625 53.125 
Q 64.75 56 71.09375 56 
Q 79.640625 56 84.28125 50.015625 
Q 88.921875 44.046875 88.921875 33.015625 
L 88.921875 0 
L 79.890625 0 
L 79.890625 32.71875 
Q 79.890625 40.578125 77.09375 44.375 
Q 74.3125 48.1875 68.609375 48.1875 
Q 61.625 48.1875 57.5625 43.546875 
Q 53.515625 38.921875 53.515625 30.90625 
L 53.515625 0 
L 44.484375 0 
L 44.484375 32.71875 
Q 44.484375 40.625 41.703125 44.40625 
Q 38.921875 48.1875 33.109375 48.1875 
Q 26.21875 48.1875 22.15625 43.53125 
Q 18.109375 38.875 18.109375 30.90625 
L 18.109375 0 
L 9.078125 0 
L 9.078125 54.6875 
L 18.109375 54.6875 
L 18.109375 46.1875 
Q 21.1875 51.21875 25.484375 53.609375 
Q 29.78125 56 35.6875 56 
Q 41.65625 56 45.828125 52.96875 
Q 50 49.953125 52 44.1875 
z
" id="DejaVuSans-6d"/>
      <path d="M 8.015625 75.875 
L 15.828125 75.875 
Q 23.140625 64.359375 26.78125 53.3125 
Q 30.421875 42.28125 30.421875 31.390625 
Q 30.421875 20.453125 26.78125 9.375 
Q 23.140625 -1.703125 15.828125 -13.1875 
L 8.015625 -13.1875 
Q 14.5 -2 17.703125 9.0625 
Q 20.90625 20.125 20.90625 31.390625 
Q 20.90625 42.671875 17.703125 53.65625 
Q 14.5 64.65625 8.015625 75.875 
z
" id="DejaVuSans-29"/>
     </defs>
     <g transform="translate(307.843437 72.748563)scale(0.1 -0.1)">
      <use xlink:href="#DejaVuSans-70"/>
      <use x="63.476562" xlink:href="#DejaVuSans-72"/>
      <use x="104.558594" xlink:href="#DejaVuSans-65"/>
      <use x="166.082031" xlink:href="#DejaVuSans-64"/>
      <use x="229.558594" xlink:href="#DejaVuSans-2e"/>
      <use x="261.345703" xlink:href="#DejaVuSans-20"/>
      <use x="293.132812" xlink:href="#DejaVuSans-28"/>
      <use x="332.146484" xlink:href="#DejaVuSans-6d"/>
      <use x="429.558594" xlink:href="#DejaVuSans-65"/>
      <use x="491.082031" xlink:href="#DejaVuSans-61"/>
      <use x="552.361328" xlink:href="#DejaVuSans-6e"/>
      <use x="615.740234" xlink:href="#DejaVuSans-29"/>
     </g>
    </g>
    <g id="line2d_22">
     <path d="M 279.843437 83.926688 
L 299.843437 83.926688 
" style="fill:none;stroke:#2ca02c;stroke-linecap:square;stroke-width:1.5;"/>
    </g>
    <g id="line2d_23"/>
    <g id="text_17">
     <!-- pred.(5th percen.) -->
     <defs>
      <path d="M 54.890625 33.015625 
L 54.890625 0 
L 45.90625 0 
L 45.90625 32.71875 
Q 45.90625 40.484375 42.875 44.328125 
Q 39.84375 48.1875 33.796875 48.1875 
Q 26.515625 48.1875 22.3125 43.546875 
Q 18.109375 38.921875 18.109375 30.90625 
L 18.109375 0 
L 9.078125 0 
L 9.078125 75.984375 
L 18.109375 75.984375 
L 18.109375 46.1875 
Q 21.34375 51.125 25.703125 53.5625 
Q 30.078125 56 35.796875 56 
Q 45.21875 56 50.046875 50.171875 
Q 54.890625 44.34375 54.890625 33.015625 
z
" id="DejaVuSans-68"/>
     </defs>
     <g transform="translate(307.843437 87.426688)scale(0.1 -0.1)">
      <use xlink:href="#DejaVuSans-70"/>
      <use x="63.476562" xlink:href="#DejaVuSans-72"/>
      <use x="104.558594" xlink:href="#DejaVuSans-65"/>
      <use x="166.082031" xlink:href="#DejaVuSans-64"/>
      <use x="229.558594" xlink:href="#DejaVuSans-2e"/>
      <use x="261.345703" xlink:href="#DejaVuSans-28"/>
      <use x="300.359375" xlink:href="#DejaVuSans-35"/>
      <use x="363.982422" xlink:href="#DejaVuSans-74"/>
      <use x="403.191406" xlink:href="#DejaVuSans-68"/>
      <use x="466.570312" xlink:href="#DejaVuSans-20"/>
      <use x="498.357422" xlink:href="#DejaVuSans-70"/>
      <use x="561.833984" xlink:href="#DejaVuSans-65"/>
      <use x="623.357422" xlink:href="#DejaVuSans-72"/>
      <use x="664.439453" xlink:href="#DejaVuSans-63"/>
      <use x="719.419922" xlink:href="#DejaVuSans-65"/>
      <use x="780.943359" xlink:href="#DejaVuSans-6e"/>
      <use x="844.322266" xlink:href="#DejaVuSans-2e"/>
      <use x="876.109375" xlink:href="#DejaVuSans-29"/>
     </g>
    </g>
    <g id="line2d_24">
     <path d="M 279.843437 98.604813 
L 299.843437 98.604813 
" style="fill:none;stroke:#d62728;stroke-linecap:square;stroke-width:1.5;"/>
    </g>
    <g id="line2d_25"/>
    <g id="text_18">
     <!-- pred.(95th percen.) -->
     <defs>
      <path d="M 10.984375 1.515625 
L 10.984375 10.5 
Q 14.703125 8.734375 18.5 7.8125 
Q 22.3125 6.890625 25.984375 6.890625 
Q 35.75 6.890625 40.890625 13.453125 
Q 46.046875 20.015625 46.78125 33.40625 
Q 43.953125 29.203125 39.59375 26.953125 
Q 35.25 24.703125 29.984375 24.703125 
Q 19.046875 24.703125 12.671875 31.3125 
Q 6.296875 37.9375 6.296875 49.421875 
Q 6.296875 60.640625 12.9375 67.421875 
Q 19.578125 74.21875 30.609375 74.21875 
Q 43.265625 74.21875 49.921875 64.515625 
Q 56.59375 54.828125 56.59375 36.375 
Q 56.59375 19.140625 48.40625 8.859375 
Q 40.234375 -1.421875 26.421875 -1.421875 
Q 22.703125 -1.421875 18.890625 -0.6875 
Q 15.09375 0.046875 10.984375 1.515625 
z
M 30.609375 32.421875 
Q 37.25 32.421875 41.125 36.953125 
Q 45.015625 41.5 45.015625 49.421875 
Q 45.015625 57.28125 41.125 61.84375 
Q 37.25 66.40625 30.609375 66.40625 
Q 23.96875 66.40625 20.09375 61.84375 
Q 16.21875 57.28125 16.21875 49.421875 
Q 16.21875 41.5 20.09375 36.953125 
Q 23.96875 32.421875 30.609375 32.421875 
z
" id="DejaVuSans-39"/>
     </defs>
     <g transform="translate(307.843437 102.104813)scale(0.1 -0.1)">
      <use xlink:href="#DejaVuSans-70"/>
      <use x="63.476562" xlink:href="#DejaVuSans-72"/>
      <use x="104.558594" xlink:href="#DejaVuSans-65"/>
      <use x="166.082031" xlink:href="#DejaVuSans-64"/>
      <use x="229.558594" xlink:href="#DejaVuSans-2e"/>
      <use x="261.345703" xlink:href="#DejaVuSans-28"/>
      <use x="300.359375" xlink:href="#DejaVuSans-39"/>
      <use x="363.982422" xlink:href="#DejaVuSans-35"/>
      <use x="427.605469" xlink:href="#DejaVuSans-74"/>
      <use x="466.814453" xlink:href="#DejaVuSans-68"/>
      <use x="530.193359" xlink:href="#DejaVuSans-20"/>
      <use x="561.980469" xlink:href="#DejaVuSans-70"/>
      <use x="625.457031" xlink:href="#DejaVuSans-65"/>
      <use x="686.980469" xlink:href="#DejaVuSans-72"/>
      <use x="728.0625" xlink:href="#DejaVuSans-63"/>
      <use x="783.042969" xlink:href="#DejaVuSans-65"/>
      <use x="844.566406" xlink:href="#DejaVuSans-6e"/>
      <use x="907.945312" xlink:href="#DejaVuSans-2e"/>
      <use x="939.732422" xlink:href="#DejaVuSans-29"/>
     </g>
    </g>
   </g>
  </g>
 </g>
 <defs>
  <clipPath id="pfc1c84807e">
   <rect height="266.112" width="357.12" x="57.6" y="41.472"/>
  </clipPath>
 </defs>
</svg>
