<?xml version="1.0" encoding="utf-8" standalone="no"?>
<!DOCTYPE svg PUBLIC "-//W3C//DTD SVG 1.1//EN"
  "http://www.w3.org/Graphics/SVG/1.1/DTD/svg11.dtd">
<!-- Created with matplotlib (http://matplotlib.org/) -->
<svg height="345pt" version="1.1" viewBox="0 0 460 345" width="460pt" xmlns="http://www.w3.org/2000/svg" xmlns:xlink="http://www.w3.org/1999/xlink">
 <defs>
  <style type="text/css">
*{stroke-linecap:butt;stroke-linejoin:round;}
  </style>
 </defs>
 <g id="figure_1">
  <g id="patch_1">
   <path d="M 0 345.6 
L 460.8 345.6 
L 460.8 0 
L 0 0 
z
" style="fill:#ffffff;"/>
  </g>
  <g id="axes_1">
   <g id="patch_2">
    <path d="M 57.6 307.584 
L 414.72 307.584 
L 414.72 41.472 
L 57.6 41.472 
z
" style="fill:#ffffff;"/>
   </g>
   <g id="PolyCollection_1">
    <path clip-path="url(#pe46b84c429)" d="M 73.832727 282.864911 
L 73.832727 285.025656 
L 74.92584 285.660683 
L 76.018953 285.332098 
L 77.112066 285.262138 
L 78.205179 283.076479 
L 79.298292 278.603813 
L 80.391405 276.36819 
L 81.484518 266.071158 
L 82.577631 254.886285 
L 83.670744 235.767886 
L 84.763857 208.189867 
L 85.85697 191.336458 
L 86.950083 164.931941 
L 88.043196 143.565558 
L 89.136309 122.800836 
L 90.229421 117.567231 
L 91.322534 110.618312 
L 92.415647 85.024746 
L 93.50876 73.9704 
L 94.601873 76.906398 
L 95.694986 73.963046 
L 96.788099 70.162105 
L 97.881212 73.12618 
L 98.974325 82.955772 
L 100.067438 95.204058 
L 101.160551 90.171677 
L 102.253664 98.71563 
L 103.346777 114.088325 
L 104.43989 119.644305 
L 105.533003 133.734169 
L 106.626116 136.203618 
L 107.719229 164.898427 
L 108.812342 176.414292 
L 109.905455 154.263111 
L 110.998567 152.796446 
L 112.09168 161.100104 
L 113.184793 166.000066 
L 114.277906 162.064545 
L 115.371019 165.004375 
L 116.464132 189.413731 
L 117.557245 196.454905 
L 118.650358 199.478695 
L 119.743471 216.474544 
L 120.836584 219.440569 
L 121.929697 217.743637 
L 123.02281 226.72167 
L 124.115923 235.493632 
L 125.209036 239.512723 
L 126.302149 240.692908 
L 127.395262 246.522366 
L 128.488375 256.66332 
L 129.581488 260.585904 
L 130.674601 259.264503 
L 131.767713 260.464898 
L 132.860826 265.088555 
L 133.953939 268.811939 
L 135.047052 270.580226 
L 136.140165 273.488453 
L 137.233278 279.688348 
L 138.326391 281.877293 
L 139.419504 280.787091 
L 140.512617 279.543865 
L 141.60573 280.115958 
L 142.698843 278.119433 
L 143.791956 276.278476 
L 144.885069 274.866228 
L 145.978182 268.392237 
L 147.071295 258.364703 
L 148.164408 249.77383 
L 149.257521 246.535941 
L 150.350634 239.964819 
L 151.443747 230.421561 
L 152.53686 227.228411 
L 153.629972 223.115183 
L 154.723085 215.928864 
L 155.816198 205.324243 
L 156.909311 194.686012 
L 158.002424 193.701416 
L 159.095537 192.219402 
L 160.18865 194.442233 
L 161.281763 188.448312 
L 162.374876 166.993215 
L 163.467989 132.867588 
L 164.561102 118.62857 
L 165.654215 103.54886 
L 166.747328 93.533079 
L 167.840441 83.917854 
L 168.933554 85.023493 
L 170.026667 100.968721 
L 171.11978 92.707747 
L 172.212893 89.901087 
L 173.306006 93.921273 
L 174.399118 107.108653 
L 175.492231 123.123384 
L 176.585344 131.683181 
L 177.678457 152.641761 
L 178.77157 164.709525 
L 179.864683 173.874017 
L 180.957796 177.098347 
L 182.050909 180.308163 
L 183.144022 183.256092 
L 184.237135 193.891513 
L 185.330248 188.609056 
L 186.423361 188.046686 
L 187.516474 189.329944 
L 188.609587 192.161477 
L 189.7027 195.231241 
L 190.795813 192.881196 
L 191.888926 201.56407 
L 192.982039 198.867153 
L 194.075152 201.631885 
L 195.168264 206.453587 
L 196.261377 207.223756 
L 197.35449 212.894194 
L 198.447603 219.99213 
L 199.540716 224.688392 
L 200.633829 226.144046 
L 201.726942 223.492455 
L 202.820055 230.362205 
L 203.913168 237.265122 
L 205.006281 243.398366 
L 206.099394 248.081808 
L 207.192507 253.549856 
L 208.28562 261.789179 
L 209.378733 266.444278 
L 210.471846 266.688814 
L 211.564959 268.341635 
L 212.658072 272.544298 
L 213.751185 276.728473 
L 214.844298 280.542778 
L 215.93741 283.351713 
L 217.030523 286.598437 
L 218.123636 288.285653 
L 219.216749 289.270837 
L 220.309862 289.55434 
L 221.402975 289.139401 
L 222.496088 289.092701 
L 223.589201 288.373384 
L 224.682314 287.391305 
L 225.775427 285.915223 
L 226.86854 282.648301 
L 227.961653 278.419799 
L 229.054766 269.788034 
L 230.147879 261.422227 
L 231.240992 251.952988 
L 232.334105 241.456407 
L 233.427218 234.750639 
L 234.520331 222.393503 
L 235.613444 209.446575 
L 236.706556 201.292613 
L 237.799669 186.569242 
L 238.892782 174.070764 
L 239.985895 161.671097 
L 241.079008 150.039338 
L 242.172121 143.052763 
L 243.265234 140.356964 
L 244.358347 141.320037 
L 245.45146 141.853319 
L 246.544573 133.276872 
L 247.637686 136.932831 
L 248.730799 143.023665 
L 249.823912 140.041923 
L 250.917025 144.364855 
L 252.010138 143.144574 
L 253.103251 157.043675 
L 254.196364 162.6752 
L 255.289477 170.520441 
L 256.38259 175.246633 
L 257.475702 181.004863 
L 258.568815 192.832854 
L 259.661928 188.028419 
L 260.755041 193.178071 
L 261.848154 198.171825 
L 262.941267 205.103654 
L 264.03438 203.989374 
L 265.127493 203.687883 
L 266.220606 216.868261 
L 267.313719 223.336952 
L 268.406832 226.603527 
L 269.499945 225.565526 
L 270.593058 225.582535 
L 271.686171 227.581482 
L 272.779284 224.801041 
L 273.872397 220.201271 
L 274.96551 220.174986 
L 276.058623 221.154828 
L 277.151736 225.797196 
L 278.244848 229.306451 
L 279.337961 235.012786 
L 280.431074 240.015756 
L 281.524187 244.887234 
L 282.6173 251.047154 
L 283.710413 252.979707 
L 284.803526 257.39312 
L 285.896639 263.04248 
L 286.989752 268.724858 
L 288.082865 271.091963 
L 289.175978 275.443974 
L 290.269091 282.400583 
L 291.362204 285.045265 
L 292.455317 286.971082 
L 293.54843 287.789889 
L 294.641543 287.792886 
L 295.734656 285.734286 
L 296.827769 282.526778 
L 297.920882 276.77571 
L 299.013994 269.398539 
L 300.107107 260.651542 
L 301.20022 246.882947 
L 302.293333 231.856249 
L 303.386446 219.180748 
L 304.479559 212.312203 
L 305.572672 188.525118 
L 306.665785 180.342222 
L 307.758898 181.221415 
L 308.852011 171.958393 
L 309.945124 151.262191 
L 311.038237 116.905289 
L 312.13135 108.283898 
L 313.224463 90.492122 
L 314.317576 77.18538 
L 315.410689 74.07743 
L 316.503802 76.273533 
L 317.596915 78.727994 
L 318.690028 86.533505 
L 319.78314 95.851465 
L 320.876253 109.698932 
L 321.969366 116.629308 
L 323.062479 119.531908 
L 324.155592 139.979948 
L 325.248705 134.10373 
L 326.341818 132.279873 
L 327.434931 125.823724 
L 328.528044 127.428544 
L 329.621157 128.443542 
L 330.71427 140.242285 
L 331.807383 161.784453 
L 332.900496 171.201697 
L 333.993609 190.283008 
L 335.086722 197.717474 
L 336.179835 208.108523 
L 337.272948 216.315799 
L 338.366061 214.012656 
L 339.459174 215.579946 
L 340.552287 221.44569 
L 341.645399 230.031788 
L 342.738512 240.287315 
L 343.831625 242.303486 
L 344.924738 251.45084 
L 346.017851 264.501415 
L 347.110964 269.342306 
L 348.204077 272.547127 
L 349.29719 273.607172 
L 350.390303 277.368608 
L 351.483416 280.270105 
L 352.576529 280.544312 
L 353.669642 280.26703 
L 354.762755 280.48205 
L 355.855868 281.281912 
L 356.948981 280.695946 
L 358.042094 278.327979 
L 359.135207 278.719087 
L 360.22832 278.895546 
L 361.321433 280.363945 
L 362.414545 282.156594 
L 363.507658 284.405794 
L 364.600771 286.324904 
L 365.693884 287.47239 
L 366.786997 288.754419 
L 367.88011 289.467195 
L 368.973223 290.118673 
L 370.066336 290.230315 
L 371.159449 290.232846 
L 372.252562 289.379662 
L 373.345675 288.243085 
L 374.438788 286.530354 
L 375.531901 282.331191 
L 376.625014 278.082654 
L 377.718127 272.029358 
L 378.81124 262.269627 
L 379.904353 250.204591 
L 380.997466 244.875929 
L 382.090579 238.073317 
L 383.183691 228.452751 
L 384.276804 219.13728 
L 385.369917 214.036771 
L 386.46303 212.507337 
L 387.556143 205.819522 
L 388.649256 202.79851 
L 389.742369 192.451841 
L 390.835482 200.240211 
L 391.928595 205.685974 
L 393.021708 201.438226 
L 394.114821 197.820866 
L 395.207934 204.572021 
L 396.301047 210.940082 
L 397.39416 204.36548 
L 398.487273 199.607475 
L 398.487273 197.873091 
L 398.487273 197.873091 
L 397.39416 199.380041 
L 396.301047 209.595489 
L 395.207934 202.423515 
L 394.114821 196.355024 
L 393.021708 198.910614 
L 391.928595 203.668663 
L 390.835482 196.843462 
L 389.742369 189.579525 
L 388.649256 200.783232 
L 387.556143 204.036753 
L 386.46303 208.823742 
L 385.369917 212.069577 
L 384.276804 214.323059 
L 383.183691 224.807261 
L 382.090579 233.865045 
L 380.997466 241.847331 
L 379.904353 247.191597 
L 378.81124 258.739809 
L 377.718127 270.234814 
L 376.625014 276.440503 
L 375.531901 280.467402 
L 374.438788 284.40378 
L 373.345675 286.006951 
L 372.252562 287.055975 
L 371.159449 287.862551 
L 370.066336 287.859618 
L 368.973223 287.66311 
L 367.88011 287.086492 
L 366.786997 286.326172 
L 365.693884 285.107619 
L 364.600771 283.976611 
L 363.507658 282.022154 
L 362.414545 280.113109 
L 361.321433 278.259674 
L 360.22832 277.135462 
L 359.135207 277.02906 
L 358.042094 276.678765 
L 356.948981 279.031066 
L 355.855868 279.218147 
L 354.762755 278.741429 
L 353.669642 278.471786 
L 352.576529 278.773987 
L 351.483416 278.101499 
L 350.390303 275.099258 
L 349.29719 271.886133 
L 348.204077 270.581107 
L 347.110964 266.89024 
L 346.017851 260.511478 
L 344.924738 247.984826 
L 343.831625 239.797895 
L 342.738512 237.567037 
L 341.645399 227.519138 
L 340.552287 219.8691 
L 339.459174 214.194475 
L 338.366061 211.893664 
L 337.272948 214.545031 
L 336.179835 205.432211 
L 335.086722 195.408061 
L 333.993609 186.622937 
L 332.900496 167.923241 
L 331.807383 158.224922 
L 330.71427 135.212227 
L 329.621157 126.168591 
L 328.528044 124.729204 
L 327.434931 122.830492 
L 326.341818 130.113086 
L 325.248705 131.459539 
L 324.155592 137.28539 
L 323.062479 117.345051 
L 321.969366 113.204279 
L 320.876253 105.240185 
L 319.78314 90.401439 
L 318.690028 79.79744 
L 317.596915 72.281823 
L 316.503802 70.513369 
L 315.410689 70.481175 
L 314.317576 73.740777 
L 313.224463 87.317549 
L 312.13135 103.697197 
L 311.038237 111.238647 
L 309.945124 147.999609 
L 308.852011 169.893651 
L 307.758898 178.556957 
L 306.665785 178.273286 
L 305.572672 185.271638 
L 304.479559 208.082774 
L 303.386446 215.438975 
L 302.293333 226.811388 
L 301.20022 241.672567 
L 300.107107 257.82548 
L 299.013994 267.36101 
L 297.920882 274.864421 
L 296.827769 280.657917 
L 295.734656 283.672678 
L 294.641543 285.49303 
L 293.54843 285.480181 
L 292.455317 284.552206 
L 291.362204 282.613719 
L 290.269091 279.539864 
L 289.175978 273.056316 
L 288.082865 269.15627 
L 286.989752 266.223882 
L 285.896639 260.438084 
L 284.803526 254.897333 
L 283.710413 250.689356 
L 282.6173 248.286144 
L 281.524187 241.975832 
L 280.431074 237.624282 
L 279.337961 232.428568 
L 278.244848 227.162287 
L 277.151736 224.002912 
L 276.058623 219.475981 
L 274.96551 217.933206 
L 273.872397 218.095637 
L 272.779284 220.922931 
L 271.686171 225.655122 
L 270.593058 223.705704 
L 269.499945 223.080021 
L 268.406832 224.443075 
L 267.313719 221.58718 
L 266.220606 214.251266 
L 265.127493 202.166267 
L 264.03438 200.818056 
L 262.941267 203.403261 
L 261.848154 196.609037 
L 260.755041 191.198761 
L 259.661928 186.336404 
L 258.568815 190.227091 
L 257.475702 176.837574 
L 256.38259 172.647611 
L 255.289477 166.594455 
L 254.196364 160.125005 
L 253.103251 153.527255 
L 252.010138 139.416354 
L 250.917025 141.8232 
L 249.823912 137.432723 
L 248.730799 140.541623 
L 247.637686 132.391422 
L 246.544573 131.20846 
L 245.45146 139.149629 
L 244.358347 138.564827 
L 243.265234 135.530233 
L 242.172121 140.103648 
L 241.079008 147.010249 
L 239.985895 159.020466 
L 238.892782 171.736274 
L 237.799669 183.900751 
L 236.706556 198.279972 
L 235.613444 205.976882 
L 234.520331 217.922217 
L 233.427218 230.343759 
L 232.334105 238.198486 
L 231.240992 247.926544 
L 230.147879 258.977036 
L 229.054766 267.485636 
L 227.961653 276.676055 
L 226.86854 280.762612 
L 225.775427 283.839055 
L 224.682314 285.159339 
L 223.589201 286.146799 
L 222.496088 286.726732 
L 221.402975 286.804716 
L 220.309862 287.189472 
L 219.216749 286.882035 
L 218.123636 285.823733 
L 217.030523 284.046304 
L 215.93741 280.985041 
L 214.844298 278.15104 
L 213.751185 274.440599 
L 212.658072 270.323364 
L 211.564959 266.568332 
L 210.471846 265.01669 
L 209.378733 264.046559 
L 208.28562 258.661242 
L 207.192507 250.663949 
L 206.099394 245.410832 
L 205.006281 240.714124 
L 203.913168 234.792713 
L 202.820055 227.992807 
L 201.726942 221.217949 
L 200.633829 223.781247 
L 199.540716 222.944968 
L 198.447603 218.393407 
L 197.35449 210.838126 
L 196.261377 204.388989 
L 195.168264 204.730516 
L 194.075152 200.133822 
L 192.982039 196.8397 
L 191.888926 199.618786 
L 190.795813 191.212439 
L 189.7027 193.506801 
L 188.609587 190.369566 
L 187.516474 187.463658 
L 186.423361 186.083486 
L 185.330248 186.866415 
L 184.237135 191.704912 
L 183.144022 180.375333 
L 182.050909 177.979911 
L 180.957796 174.781681 
L 179.864683 170.25571 
L 178.77157 161.421652 
L 177.678457 147.646187 
L 176.585344 129.623064 
L 175.492231 119.509376 
L 174.399118 104.673872 
L 173.306006 90.183723 
L 172.212893 86.617859 
L 171.11978 87.660552 
L 170.026667 95.275259 
L 168.933554 81.983682 
L 167.840441 80.26563 
L 166.747328 90.986223 
L 165.654215 98.3042 
L 164.561102 113.316522 
L 163.467989 129.494668 
L 162.374876 162.976734 
L 161.281763 186.360828 
L 160.18865 192.869563 
L 159.095537 190.53309 
L 158.002424 191.888027 
L 156.909311 192.829738 
L 155.816198 200.292707 
L 154.723085 212.385715 
L 153.629972 220.475425 
L 152.53686 224.625612 
L 151.443747 226.606536 
L 150.350634 236.142459 
L 149.257521 243.759555 
L 148.164408 247.083972 
L 147.071295 255.167322 
L 145.978182 266.249883 
L 144.885069 273.404355 
L 143.791956 274.737712 
L 142.698843 276.541542 
L 141.60573 278.361749 
L 140.512617 277.807939 
L 139.419504 279.067754 
L 138.326391 279.763422 
L 137.233278 276.933519 
L 136.140165 271.464613 
L 135.047052 268.7225 
L 133.953939 266.751033 
L 132.860826 262.754337 
L 131.767713 258.288352 
L 130.674601 257.193522 
L 129.581488 258.041974 
L 128.488375 253.326728 
L 127.395262 243.495461 
L 126.302149 238.33071 
L 125.209036 237.07994 
L 124.115923 232.953818 
L 123.02281 224.589368 
L 121.929697 216.186902 
L 120.836584 217.205963 
L 119.743471 213.944099 
L 118.650358 197.318991 
L 117.557245 193.754091 
L 116.464132 183.728415 
L 115.371019 160.839223 
L 114.277906 159.949982 
L 113.184793 163.438605 
L 112.09168 157.541218 
L 110.998567 146.114949 
L 109.905455 149.870163 
L 108.812342 173.072407 
L 107.719229 158.946357 
L 106.626116 134.197186 
L 105.533003 131.377866 
L 104.43989 117.562967 
L 103.346777 109.676178 
L 102.253664 96.113498 
L 101.160551 84.165446 
L 100.067438 86.728651 
L 98.974325 75.459185 
L 97.881212 66.325653 
L 96.788099 64.921144 
L 95.694986 67.531261 
L 94.601873 72.259965 
L 93.50876 70.943688 
L 92.415647 81.298311 
L 91.322534 108.599506 
L 90.229421 111.586612 
L 89.136309 117.933026 
L 88.043196 139.47334 
L 86.950083 161.961485 
L 85.85697 187.961933 
L 84.763857 202.52259 
L 83.670744 228.099298 
L 82.577631 251.375135 
L 81.484518 262.78377 
L 80.391405 274.86009 
L 79.298292 276.944072 
L 78.205179 281.242187 
L 77.112066 283.084985 
L 76.018953 283.220569 
L 74.92584 283.450063 
L 73.832727 282.864911 
z
" style="fill:#008000;fill-opacity:0.4;"/>
   </g>
   <g id="matplotlib.axis_1">
    <g id="xtick_1">
     <g id="line2d_1">
      <defs>
       <path d="M 0 0 
L 0 3.5 
" id="m6ebbbf4ff6" style="stroke:#000000;stroke-width:0.8;"/>
      </defs>
      <g>
       <use style="stroke:#000000;stroke-width:0.8;" x="73.832727" xlink:href="#m6ebbbf4ff6" y="307.584"/>
      </g>
     </g>
     <g id="text_1">
      <!-- 0.0 -->
      <defs>
       <path d="M 31.78125 66.40625 
Q 24.171875 66.40625 20.328125 58.90625 
Q 16.5 51.421875 16.5 36.375 
Q 16.5 21.390625 20.328125 13.890625 
Q 24.171875 6.390625 31.78125 6.390625 
Q 39.453125 6.390625 43.28125 13.890625 
Q 47.125 21.390625 47.125 36.375 
Q 47.125 51.421875 43.28125 58.90625 
Q 39.453125 66.40625 31.78125 66.40625 
z
M 31.78125 74.21875 
Q 44.046875 74.21875 50.515625 64.515625 
Q 56.984375 54.828125 56.984375 36.375 
Q 56.984375 17.96875 50.515625 8.265625 
Q 44.046875 -1.421875 31.78125 -1.421875 
Q 19.53125 -1.421875 13.0625 8.265625 
Q 6.59375 17.96875 6.59375 36.375 
Q 6.59375 54.828125 13.0625 64.515625 
Q 19.53125 74.21875 31.78125 74.21875 
z
" id="DejaVuSans-30"/>
       <path d="M 10.6875 12.40625 
L 21 12.40625 
L 21 0 
L 10.6875 0 
z
" id="DejaVuSans-2e"/>
      </defs>
      <g transform="translate(65.881165 322.182437)scale(0.1 -0.1)">
       <use xlink:href="#DejaVuSans-30"/>
       <use x="63.623047" xlink:href="#DejaVuSans-2e"/>
       <use x="95.410156" xlink:href="#DejaVuSans-30"/>
      </g>
     </g>
    </g>
    <g id="xtick_2">
     <g id="line2d_2">
      <g>
       <use style="stroke:#000000;stroke-width:0.8;" x="138.763636" xlink:href="#m6ebbbf4ff6" y="307.584"/>
      </g>
     </g>
     <g id="text_2">
      <!-- 0.2 -->
      <defs>
       <path d="M 19.1875 8.296875 
L 53.609375 8.296875 
L 53.609375 0 
L 7.328125 0 
L 7.328125 8.296875 
Q 12.9375 14.109375 22.625 23.890625 
Q 32.328125 33.6875 34.8125 36.53125 
Q 39.546875 41.84375 41.421875 45.53125 
Q 43.3125 49.21875 43.3125 52.78125 
Q 43.3125 58.59375 39.234375 62.25 
Q 35.15625 65.921875 28.609375 65.921875 
Q 23.96875 65.921875 18.8125 64.3125 
Q 13.671875 62.703125 7.8125 59.421875 
L 7.8125 69.390625 
Q 13.765625 71.78125 18.9375 73 
Q 24.125 74.21875 28.421875 74.21875 
Q 39.75 74.21875 46.484375 68.546875 
Q 53.21875 62.890625 53.21875 53.421875 
Q 53.21875 48.921875 51.53125 44.890625 
Q 49.859375 40.875 45.40625 35.40625 
Q 44.1875 33.984375 37.640625 27.21875 
Q 31.109375 20.453125 19.1875 8.296875 
z
" id="DejaVuSans-32"/>
      </defs>
      <g transform="translate(130.812074 322.182437)scale(0.1 -0.1)">
       <use xlink:href="#DejaVuSans-30"/>
       <use x="63.623047" xlink:href="#DejaVuSans-2e"/>
       <use x="95.410156" xlink:href="#DejaVuSans-32"/>
      </g>
     </g>
    </g>
    <g id="xtick_3">
     <g id="line2d_3">
      <g>
       <use style="stroke:#000000;stroke-width:0.8;" x="203.694545" xlink:href="#m6ebbbf4ff6" y="307.584"/>
      </g>
     </g>
     <g id="text_3">
      <!-- 0.4 -->
      <defs>
       <path d="M 37.796875 64.3125 
L 12.890625 25.390625 
L 37.796875 25.390625 
z
M 35.203125 72.90625 
L 47.609375 72.90625 
L 47.609375 25.390625 
L 58.015625 25.390625 
L 58.015625 17.1875 
L 47.609375 17.1875 
L 47.609375 0 
L 37.796875 0 
L 37.796875 17.1875 
L 4.890625 17.1875 
L 4.890625 26.703125 
z
" id="DejaVuSans-34"/>
      </defs>
      <g transform="translate(195.742983 322.182437)scale(0.1 -0.1)">
       <use xlink:href="#DejaVuSans-30"/>
       <use x="63.623047" xlink:href="#DejaVuSans-2e"/>
       <use x="95.410156" xlink:href="#DejaVuSans-34"/>
      </g>
     </g>
    </g>
    <g id="xtick_4">
     <g id="line2d_4">
      <g>
       <use style="stroke:#000000;stroke-width:0.8;" x="268.625455" xlink:href="#m6ebbbf4ff6" y="307.584"/>
      </g>
     </g>
     <g id="text_4">
      <!-- 0.6 -->
      <defs>
       <path d="M 33.015625 40.375 
Q 26.375 40.375 22.484375 35.828125 
Q 18.609375 31.296875 18.609375 23.390625 
Q 18.609375 15.53125 22.484375 10.953125 
Q 26.375 6.390625 33.015625 6.390625 
Q 39.65625 6.390625 43.53125 10.953125 
Q 47.40625 15.53125 47.40625 23.390625 
Q 47.40625 31.296875 43.53125 35.828125 
Q 39.65625 40.375 33.015625 40.375 
z
M 52.59375 71.296875 
L 52.59375 62.3125 
Q 48.875 64.0625 45.09375 64.984375 
Q 41.3125 65.921875 37.59375 65.921875 
Q 27.828125 65.921875 22.671875 59.328125 
Q 17.53125 52.734375 16.796875 39.40625 
Q 19.671875 43.65625 24.015625 45.921875 
Q 28.375 48.1875 33.59375 48.1875 
Q 44.578125 48.1875 50.953125 41.515625 
Q 57.328125 34.859375 57.328125 23.390625 
Q 57.328125 12.15625 50.6875 5.359375 
Q 44.046875 -1.421875 33.015625 -1.421875 
Q 20.359375 -1.421875 13.671875 8.265625 
Q 6.984375 17.96875 6.984375 36.375 
Q 6.984375 53.65625 15.1875 63.9375 
Q 23.390625 74.21875 37.203125 74.21875 
Q 40.921875 74.21875 44.703125 73.484375 
Q 48.484375 72.75 52.59375 71.296875 
z
" id="DejaVuSans-36"/>
      </defs>
      <g transform="translate(260.673892 322.182437)scale(0.1 -0.1)">
       <use xlink:href="#DejaVuSans-30"/>
       <use x="63.623047" xlink:href="#DejaVuSans-2e"/>
       <use x="95.410156" xlink:href="#DejaVuSans-36"/>
      </g>
     </g>
    </g>
    <g id="xtick_5">
     <g id="line2d_5">
      <g>
       <use style="stroke:#000000;stroke-width:0.8;" x="333.556364" xlink:href="#m6ebbbf4ff6" y="307.584"/>
      </g>
     </g>
     <g id="text_5">
      <!-- 0.8 -->
      <defs>
       <path d="M 31.78125 34.625 
Q 24.75 34.625 20.71875 30.859375 
Q 16.703125 27.09375 16.703125 20.515625 
Q 16.703125 13.921875 20.71875 10.15625 
Q 24.75 6.390625 31.78125 6.390625 
Q 38.8125 6.390625 42.859375 10.171875 
Q 46.921875 13.96875 46.921875 20.515625 
Q 46.921875 27.09375 42.890625 30.859375 
Q 38.875 34.625 31.78125 34.625 
z
M 21.921875 38.8125 
Q 15.578125 40.375 12.03125 44.71875 
Q 8.5 49.078125 8.5 55.328125 
Q 8.5 64.0625 14.71875 69.140625 
Q 20.953125 74.21875 31.78125 74.21875 
Q 42.671875 74.21875 48.875 69.140625 
Q 55.078125 64.0625 55.078125 55.328125 
Q 55.078125 49.078125 51.53125 44.71875 
Q 48 40.375 41.703125 38.8125 
Q 48.828125 37.15625 52.796875 32.3125 
Q 56.78125 27.484375 56.78125 20.515625 
Q 56.78125 9.90625 50.3125 4.234375 
Q 43.84375 -1.421875 31.78125 -1.421875 
Q 19.734375 -1.421875 13.25 4.234375 
Q 6.78125 9.90625 6.78125 20.515625 
Q 6.78125 27.484375 10.78125 32.3125 
Q 14.796875 37.15625 21.921875 38.8125 
z
M 18.3125 54.390625 
Q 18.3125 48.734375 21.84375 45.5625 
Q 25.390625 42.390625 31.78125 42.390625 
Q 38.140625 42.390625 41.71875 45.5625 
Q 45.3125 48.734375 45.3125 54.390625 
Q 45.3125 60.0625 41.71875 63.234375 
Q 38.140625 66.40625 31.78125 66.40625 
Q 25.390625 66.40625 21.84375 63.234375 
Q 18.3125 60.0625 18.3125 54.390625 
z
" id="DejaVuSans-38"/>
      </defs>
      <g transform="translate(325.604801 322.182437)scale(0.1 -0.1)">
       <use xlink:href="#DejaVuSans-30"/>
       <use x="63.623047" xlink:href="#DejaVuSans-2e"/>
       <use x="95.410156" xlink:href="#DejaVuSans-38"/>
      </g>
     </g>
    </g>
    <g id="xtick_6">
     <g id="line2d_6">
      <g>
       <use style="stroke:#000000;stroke-width:0.8;" x="398.487273" xlink:href="#m6ebbbf4ff6" y="307.584"/>
      </g>
     </g>
     <g id="text_6">
      <!-- 1.0 -->
      <defs>
       <path d="M 12.40625 8.296875 
L 28.515625 8.296875 
L 28.515625 63.921875 
L 10.984375 60.40625 
L 10.984375 69.390625 
L 28.421875 72.90625 
L 38.28125 72.90625 
L 38.28125 8.296875 
L 54.390625 8.296875 
L 54.390625 0 
L 12.40625 0 
z
" id="DejaVuSans-31"/>
      </defs>
      <g transform="translate(390.53571 322.182437)scale(0.1 -0.1)">
       <use xlink:href="#DejaVuSans-31"/>
       <use x="63.623047" xlink:href="#DejaVuSans-2e"/>
       <use x="95.410156" xlink:href="#DejaVuSans-30"/>
      </g>
     </g>
    </g>
   </g>
   <g id="matplotlib.axis_2">
    <g id="ytick_1">
     <g id="line2d_7">
      <defs>
       <path d="M 0 0 
L -3.5 0 
" id="mc93e8d5889" style="stroke:#000000;stroke-width:0.8;"/>
      </defs>
      <g>
       <use style="stroke:#000000;stroke-width:0.8;" x="57.6" xlink:href="#mc93e8d5889" y="299.17887"/>
      </g>
     </g>
     <g id="text_7">
      <!-- 0.0 -->
      <g transform="translate(34.696875 302.978089)scale(0.1 -0.1)">
       <use xlink:href="#DejaVuSans-30"/>
       <use x="63.623047" xlink:href="#DejaVuSans-2e"/>
       <use x="95.410156" xlink:href="#DejaVuSans-30"/>
      </g>
     </g>
    </g>
    <g id="ytick_2">
     <g id="line2d_8">
      <g>
       <use style="stroke:#000000;stroke-width:0.8;" x="57.6" xlink:href="#mc93e8d5889" y="249.553394"/>
      </g>
     </g>
     <g id="text_8">
      <!-- 0.2 -->
      <g transform="translate(34.696875 253.352613)scale(0.1 -0.1)">
       <use xlink:href="#DejaVuSans-30"/>
       <use x="63.623047" xlink:href="#DejaVuSans-2e"/>
       <use x="95.410156" xlink:href="#DejaVuSans-32"/>
      </g>
     </g>
    </g>
    <g id="ytick_3">
     <g id="line2d_9">
      <g>
       <use style="stroke:#000000;stroke-width:0.8;" x="57.6" xlink:href="#mc93e8d5889" y="199.927919"/>
      </g>
     </g>
     <g id="text_9">
      <!-- 0.4 -->
      <g transform="translate(34.696875 203.727138)scale(0.1 -0.1)">
       <use xlink:href="#DejaVuSans-30"/>
       <use x="63.623047" xlink:href="#DejaVuSans-2e"/>
       <use x="95.410156" xlink:href="#DejaVuSans-34"/>
      </g>
     </g>
    </g>
    <g id="ytick_4">
     <g id="line2d_10">
      <g>
       <use style="stroke:#000000;stroke-width:0.8;" x="57.6" xlink:href="#mc93e8d5889" y="150.302443"/>
      </g>
     </g>
     <g id="text_10">
      <!-- 0.6 -->
      <g transform="translate(34.696875 154.101662)scale(0.1 -0.1)">
       <use xlink:href="#DejaVuSans-30"/>
       <use x="63.623047" xlink:href="#DejaVuSans-2e"/>
       <use x="95.410156" xlink:href="#DejaVuSans-36"/>
      </g>
     </g>
    </g>
    <g id="ytick_5">
     <g id="line2d_11">
      <g>
       <use style="stroke:#000000;stroke-width:0.8;" x="57.6" xlink:href="#mc93e8d5889" y="100.676968"/>
      </g>
     </g>
     <g id="text_11">
      <!-- 0.8 -->
      <g transform="translate(34.696875 104.476186)scale(0.1 -0.1)">
       <use xlink:href="#DejaVuSans-30"/>
       <use x="63.623047" xlink:href="#DejaVuSans-2e"/>
       <use x="95.410156" xlink:href="#DejaVuSans-38"/>
      </g>
     </g>
    </g>
    <g id="ytick_6">
     <g id="line2d_12">
      <g>
       <use style="stroke:#000000;stroke-width:0.8;" x="57.6" xlink:href="#mc93e8d5889" y="51.051492"/>
      </g>
     </g>
     <g id="text_12">
      <!-- 1.0 -->
      <g transform="translate(34.696875 54.850711)scale(0.1 -0.1)">
       <use xlink:href="#DejaVuSans-31"/>
       <use x="63.623047" xlink:href="#DejaVuSans-2e"/>
       <use x="95.410156" xlink:href="#DejaVuSans-30"/>
      </g>
     </g>
    </g>
   </g>
   <g id="line2d_13">
    <path clip-path="url(#pe46b84c429)" d="M 73.832727 286.596355 
L 74.92584 286.764114 
L 76.018953 286.093054 
L 77.112066 285.086451 
L 78.205179 278.711289 
L 79.298292 276.194781 
L 80.391405 269.316244 
L 81.484518 258.411542 
L 82.577631 245.661268 
L 83.670744 224.522553 
L 84.763857 206.739263 
L 85.85697 186.607201 
L 88.043196 142.65218 
L 89.136309 124.868891 
L 90.229421 119.332673 
L 91.322534 104.40136 
L 92.415647 76.719773 
L 93.50876 67.324926 
L 94.601873 65.143887 
L 95.694986 54.574653 
L 96.788099 53.568 
L 97.881212 61.78846 
L 98.974325 79.571997 
L 100.067438 85.779152 
L 101.160551 87.456989 
L 102.253664 103.394707 
L 105.533003 130.405357 
L 106.626116 142.484446 
L 107.719229 161.609856 
L 108.812342 163.95863 
L 109.905455 152.047275 
L 110.998567 154.396049 
L 112.09168 159.932267 
L 113.184793 161.945572 
L 114.277906 159.932267 
L 115.371019 168.991645 
L 116.464132 184.761877 
L 117.557245 189.962627 
L 118.650358 202.712901 
L 119.743471 213.953319 
L 120.836584 215.463174 
L 121.929697 220.328456 
L 124.115923 236.433907 
L 125.209036 238.614947 
L 126.302149 241.131455 
L 127.395262 250.52655 
L 128.488375 256.398236 
L 129.581488 259.250212 
L 130.674601 257.069421 
L 131.767713 260.92805 
L 132.860826 265.289881 
L 135.047052 269.819694 
L 137.233278 280.892279 
L 138.326391 280.892279 
L 139.419504 278.54353 
L 140.512617 279.550133 
L 141.60573 277.704686 
L 142.698843 275.188178 
L 143.791956 274.684901 
L 144.885069 269.819694 
L 147.071295 251.532955 
L 148.164408 247.674326 
L 149.257521 242.64131 
L 150.350634 234.588584 
L 151.443747 229.555568 
L 152.53686 225.361471 
L 153.629972 220.49619 
L 154.723085 214.288787 
L 155.816198 200.867329 
L 156.909311 196.337764 
L 158.002424 193.150071 
L 159.095537 192.143419 
L 160.18865 190.298095 
L 161.281763 182.077387 
L 164.561102 115.809512 
L 167.840441 77.89416 
L 168.933554 90.141231 
L 170.026667 93.496658 
L 171.11978 88.79911 
L 172.212893 89.470047 
L 173.306006 96.1809 
L 174.399118 112.622068 
L 175.492231 122.352383 
L 176.585344 133.257333 
L 177.678457 151.543825 
L 178.77157 160.435469 
L 179.864683 167.984993 
L 180.957796 174.695846 
L 182.050909 176.205701 
L 183.144022 184.929611 
L 184.237135 186.607201 
L 185.330248 187.110403 
L 186.423361 186.607201 
L 187.516474 187.781587 
L 188.609587 191.304748 
L 189.7027 191.640216 
L 190.795813 194.659926 
L 191.888926 197.176434 
L 194.075152 200.364127 
L 195.168264 205.564877 
L 196.261377 206.571529 
L 197.35449 213.785585 
L 198.447603 219.992739 
L 199.540716 224.522553 
L 200.633829 223.683634 
L 201.726942 225.361471 
L 203.913168 238.950415 
L 205.006281 244.319147 
L 206.099394 248.680979 
L 207.192507 256.230502 
L 208.28562 262.270171 
L 209.378733 264.45121 
L 210.471846 265.625349 
L 211.564959 268.309839 
L 213.751185 277.536927 
L 214.844298 281.731099 
L 215.93741 286.596355 
L 217.030523 290.119442 
L 218.123636 292.803733 
L 219.216749 293.810336 
L 220.309862 293.139251 
L 221.402975 292.635949 
L 222.496088 292.300432 
L 223.589201 289.951683 
L 224.682314 288.777321 
L 225.775427 283.744305 
L 226.86854 279.717892 
L 229.054766 263.109089 
L 230.147879 255.559566 
L 231.240992 244.486881 
L 232.334105 238.782681 
L 233.427218 229.2201 
L 234.520331 217.811948 
L 235.613444 209.255771 
L 239.985895 160.603451 
L 242.172121 142.819914 
L 243.265234 141.813509 
L 244.358347 141.645775 
L 245.45146 138.961285 
L 246.544573 134.767188 
L 247.637686 138.961285 
L 248.730799 139.464736 
L 249.823912 141.981244 
L 250.917025 140.639123 
L 252.010138 147.181993 
L 253.103251 155.234719 
L 254.196364 159.764533 
L 255.289477 168.656177 
L 256.38259 170.501501 
L 257.475702 182.580838 
L 259.661928 187.278385 
L 262.941267 202.712901 
L 264.03438 200.867329 
L 265.127493 206.403795 
L 266.220606 216.13411 
L 267.313719 223.5159 
L 268.406832 225.361471 
L 269.499945 224.690287 
L 271.686171 226.703592 
L 272.779284 222.006045 
L 273.872397 220.999392 
L 274.96551 219.489537 
L 276.058623 222.173779 
L 277.151736 227.03906 
L 278.244848 229.891037 
L 279.337961 236.769624 
L 280.431074 240.124802 
L 281.524187 247.003389 
L 282.6173 250.52655 
L 283.710413 253.54626 
L 285.896639 263.94776 
L 286.989752 267.806389 
L 288.082865 270.994081 
L 289.175978 278.879073 
L 290.269091 284.583149 
L 291.362204 287.938476 
L 292.455317 290.119442 
L 293.54843 290.287225 
L 294.641543 288.609562 
L 295.734656 283.744305 
L 296.827769 278.040229 
L 299.013994 262.941107 
L 300.107107 252.371873 
L 302.293333 226.703592 
L 303.386446 219.657271 
L 304.479559 203.048369 
L 305.572672 190.298095 
L 306.665785 182.748572 
L 307.758898 177.547822 
L 308.852011 168.991645 
L 309.945124 142.148978 
L 311.038237 121.849181 
L 314.317576 67.828129 
L 315.410689 63.801766 
L 316.503802 64.976152 
L 317.596915 72.022474 
L 318.690028 82.256239 
L 319.78314 97.187304 
L 320.876253 109.769844 
L 321.969366 114.131923 
L 323.062479 126.378994 
L 324.155592 134.599454 
L 325.248705 134.263986 
L 326.341818 129.734172 
L 327.434931 128.224317 
L 328.528044 128.72752 
L 329.621157 130.069641 
L 330.71427 144.665485 
L 331.807383 156.409106 
L 333.993609 185.600548 
L 335.086722 194.659926 
L 336.179835 208.081384 
L 337.272948 211.940013 
L 338.366061 212.778932 
L 339.459174 216.973029 
L 340.552287 222.844963 
L 341.645399 233.749665 
L 342.738512 238.614947 
L 343.831625 244.486881 
L 344.924738 256.56597 
L 346.017851 264.786678 
L 347.110964 269.316244 
L 348.204077 271.161815 
L 349.29719 273.846057 
L 350.390303 278.207988 
L 351.483416 279.885676 
L 352.576529 279.046832 
L 353.669642 280.221194 
L 354.762755 279.382374 
L 355.855868 281.395581 
L 356.948981 277.201384 
L 358.042094 277.87247 
L 359.135207 277.536927 
L 360.22832 277.87247 
L 361.321433 281.395581 
L 362.414545 283.241003 
L 363.507658 287.099657 
L 364.600771 288.94508 
L 365.693884 291.293828 
L 366.786997 293.307035 
L 367.88011 294.145854 
L 368.973223 295.320241 
L 370.066336 295.488 
L 372.252562 292.132648 
L 373.345675 289.61614 
L 376.625014 272.67167 
L 377.718127 265.961065 
L 378.81124 252.875076 
L 379.904353 246.667921 
L 380.997466 241.466923 
L 382.090579 232.910995 
L 383.183691 226.032408 
L 384.276804 215.798642 
L 385.369917 215.463174 
L 386.46303 209.255771 
L 387.556143 205.732611 
L 388.649256 199.357474 
L 389.742369 194.492192 
L 390.835482 201.203045 
L 391.928595 202.20945 
L 393.021708 198.854272 
L 394.114821 198.518555 
L 395.207934 204.39049 
L 396.301047 207.745916 
L 397.39416 200.364127 
L 398.487273 198.854272 
L 398.487273 198.854272 
" style="fill:none;stroke:#1f77b4;stroke-linecap:square;stroke-width:1.5;"/>
   </g>
   <g id="line2d_14">
    <path clip-path="url(#pe46b84c429)" d="M 73.832727 284.316198 
L 74.92584 284.946804 
L 76.018953 284.593239 
L 77.112066 284.540619 
L 78.205179 282.1984 
L 79.298292 277.7434 
L 80.391405 275.615193 
L 82.577631 252.739512 
L 83.670744 230.956535 
L 84.763857 204.783777 
L 85.85697 189.513793 
L 86.950083 163.206026 
L 89.136309 120.333986 
L 90.229421 114.674511 
L 91.322534 109.68379 
L 92.415647 82.819586 
L 93.50876 72.443129 
L 94.601873 73.956758 
L 95.694986 69.727097 
L 96.788099 66.756514 
L 97.881212 68.88487 
L 98.974325 78.417365 
L 100.067438 90.043488 
L 101.160551 86.132391 
L 102.253664 97.294512 
L 103.346777 111.48818 
L 104.43989 118.552422 
L 105.533003 132.638337 
L 106.626116 135.18324 
L 107.719229 162.82678 
L 108.812342 174.661886 
L 109.905455 152.009941 
L 110.998567 149.992988 
L 112.09168 159.907097 
L 113.184793 164.95425 
L 114.277906 160.967739 
L 115.371019 163.50864 
L 116.464132 187.490966 
L 117.557245 195.015911 
L 118.650358 198.63384 
L 119.743471 215.390842 
L 120.836584 218.196952 
L 121.929697 216.88919 
L 124.115923 234.42552 
L 125.209036 238.25628 
L 126.302149 239.471139 
L 127.395262 245.254433 
L 128.488375 255.148762 
L 129.581488 259.393034 
L 130.674601 258.017425 
L 131.767713 259.487939 
L 132.860826 263.958812 
L 133.953939 267.793245 
L 135.047052 269.648486 
L 136.140165 272.5184 
L 137.233278 278.491929 
L 138.326391 281.039047 
L 139.419504 280.02791 
L 140.512617 278.823991 
L 141.60573 279.419825 
L 142.698843 277.360997 
L 143.791956 275.567771 
L 144.885069 274.132047 
L 145.978182 267.24201 
L 147.071295 256.384305 
L 148.164408 247.933445 
L 149.257521 244.636318 
L 150.350634 237.371999 
L 151.443747 227.71783 
L 152.53686 225.507562 
L 153.629972 221.341371 
L 154.723085 213.727992 
L 155.816198 202.622807 
L 156.909311 193.690602 
L 158.002424 192.679374 
L 159.095537 191.284427 
L 160.18865 193.724391 
L 161.281763 187.248799 
L 162.374876 164.681578 
L 163.467989 131.152634 
L 165.654215 100.916276 
L 166.747328 92.336019 
L 167.840441 81.5487 
L 168.933554 83.58738 
L 170.026667 97.589679 
L 171.11978 89.259852 
L 172.212893 87.831425 
L 173.306006 91.544653 
L 175.492231 121.145006 
L 176.585344 130.714921 
L 177.678457 150.595666 
L 178.77157 162.985754 
L 179.864683 172.700491 
L 180.957796 176.135373 
L 183.144022 182.288849 
L 184.237135 192.839361 
L 185.330248 187.630697 
L 186.423361 186.942808 
L 187.516474 188.544304 
L 189.7027 194.304389 
L 190.795813 191.980982 
L 191.888926 200.871308 
L 192.982039 197.762159 
L 194.075152 200.883388 
L 195.168264 205.660339 
L 196.261377 205.786488 
L 197.35449 211.972137 
L 198.447603 219.252742 
L 199.540716 223.853609 
L 200.633829 224.67387 
L 201.726942 222.040636 
L 203.913168 236.15725 
L 205.006281 242.185251 
L 206.099394 246.879478 
L 207.192507 252.300773 
L 208.28562 260.293218 
L 209.378733 265.262536 
L 210.471846 265.873271 
L 211.564959 267.461492 
L 214.844298 279.582249 
L 215.93741 282.482941 
L 217.030523 285.758227 
L 218.123636 287.566874 
L 219.216749 288.595808 
L 220.309862 288.866202 
L 221.402975 288.423333 
L 222.496088 288.396927 
L 223.589201 287.653731 
L 224.682314 286.662431 
L 225.775427 285.096904 
L 226.86854 281.750472 
L 227.961653 277.484614 
L 230.147879 259.984428 
L 232.334105 239.197479 
L 233.427218 231.808916 
L 235.613444 207.307282 
L 236.706556 199.672963 
L 237.799669 185.067161 
L 241.079008 148.721501 
L 242.172121 141.831905 
L 243.265234 138.238725 
L 244.358347 140.227232 
L 245.45146 140.787777 
L 246.544573 132.323279 
L 247.637686 134.982609 
L 248.730799 142.053047 
L 249.823912 138.879856 
L 250.917025 143.387367 
L 252.010138 141.495892 
L 253.103251 155.851808 
L 254.196364 161.507427 
L 255.289477 169.217367 
L 256.38259 173.861183 
L 257.475702 179.530878 
L 258.568815 191.525164 
L 259.661928 187.068886 
L 261.848154 197.376148 
L 262.941267 204.432575 
L 264.03438 202.413517 
L 265.127493 202.980767 
L 266.220606 215.688958 
L 267.313719 222.523035 
L 268.406832 225.346538 
L 269.499945 223.965306 
L 270.593058 224.539222 
L 271.686171 226.575735 
L 272.779284 222.40546 
L 273.872397 218.885879 
L 274.96551 218.794937 
L 276.058623 220.358036 
L 277.151736 224.968957 
L 278.244848 228.056028 
L 279.337961 233.903458 
L 281.524187 243.615412 
L 282.6173 249.805434 
L 283.710413 251.902873 
L 284.803526 256.27557 
L 286.989752 267.472309 
L 288.082865 270.127392 
L 289.175978 274.345877 
L 290.269091 281.240118 
L 291.362204 284.207082 
L 292.455317 286.223374 
L 293.54843 287.094773 
L 294.641543 287.068058 
L 295.734656 284.860901 
L 296.827769 281.634254 
L 297.920882 275.746097 
L 299.013994 268.30852 
L 300.107107 258.96397 
L 302.293333 228.468395 
L 303.386446 216.684311 
L 304.479559 209.960512 
L 305.572672 186.599291 
L 306.665785 179.17813 
L 307.758898 180.245283 
L 308.852011 170.787934 
L 309.945124 149.408087 
L 311.038237 113.84657 
L 312.13135 106.223811 
L 313.224463 89.025386 
L 314.317576 75.128827 
L 315.410689 71.779181 
L 316.503802 72.562257 
L 317.596915 74.629502 
L 318.690028 82.389077 
L 319.78314 92.446228 
L 320.876253 107.070123 
L 321.969366 114.594124 
L 323.062479 118.495212 
L 324.155592 138.77313 
L 325.248705 132.751408 
L 326.341818 131.396799 
L 327.434931 124.417246 
L 328.528044 126.298032 
L 329.621157 127.479135 
L 330.71427 138.072752 
L 331.807383 160.420722 
L 332.900496 170.042143 
L 333.993609 189.081194 
L 335.086722 196.50216 
L 336.179835 207.04855 
L 337.272948 215.410104 
L 338.366061 212.808289 
L 339.459174 214.914615 
L 340.552287 220.742262 
L 341.645399 228.918554 
L 342.738512 239.103131 
L 343.831625 241.192855 
L 344.924738 249.913455 
L 346.017851 262.520672 
L 347.110964 268.118013 
L 348.204077 271.576497 
L 349.29719 272.771175 
L 350.390303 276.37619 
L 351.483416 279.404088 
L 352.576529 279.837905 
L 353.669642 279.566336 
L 354.762755 279.772254 
L 355.855868 280.523044 
L 356.948981 279.922489 
L 358.042094 277.573456 
L 359.135207 278.02972 
L 360.22832 278.196484 
L 361.321433 279.549056 
L 362.414545 281.393897 
L 364.600771 285.576118 
L 366.786997 288.06134 
L 368.973223 289.438568 
L 370.066336 289.551728 
L 371.159449 289.550772 
L 372.252562 288.657428 
L 373.345675 287.489985 
L 374.438788 285.705065 
L 376.625014 277.232727 
L 377.718127 271.052301 
L 378.81124 260.272692 
L 379.904353 248.169245 
L 380.997466 242.785009 
L 382.090579 235.262376 
L 384.276804 216.190916 
L 385.369917 213.035352 
L 386.46303 210.476149 
L 387.556143 204.842521 
L 388.649256 201.725358 
L 389.742369 190.950088 
L 390.835482 198.850225 
L 391.928595 204.698197 
L 393.021708 200.155915 
L 394.114821 197.04769 
L 396.301047 210.330969 
L 397.39416 201.75091 
L 398.487273 198.783382 
L 398.487273 198.783382 
" style="fill:none;stroke:#ff7f0e;stroke-linecap:square;stroke-width:1.5;"/>
   </g>
   <g id="line2d_15">
    <path clip-path="url(#pe46b84c429)" d="M 73.832727 285.025656 
L 74.92584 285.660683 
L 76.018953 285.332098 
L 77.112066 285.262138 
L 78.205179 283.076479 
L 79.298292 278.603813 
L 80.391405 276.36819 
L 82.577631 254.886285 
L 83.670744 235.767886 
L 84.763857 208.189867 
L 85.85697 191.336458 
L 86.950083 164.931941 
L 89.136309 122.800836 
L 90.229421 117.567231 
L 91.322534 110.618312 
L 92.415647 85.024746 
L 93.50876 73.9704 
L 94.601873 76.906398 
L 95.694986 73.963046 
L 96.788099 70.162105 
L 97.881212 73.12618 
L 98.974325 82.955772 
L 100.067438 95.204058 
L 101.160551 90.171677 
L 102.253664 98.71563 
L 103.346777 114.088325 
L 104.43989 119.644305 
L 105.533003 133.734169 
L 106.626116 136.203618 
L 107.719229 164.898427 
L 108.812342 176.414292 
L 109.905455 154.263111 
L 110.998567 152.796446 
L 112.09168 161.100104 
L 113.184793 166.000066 
L 114.277906 162.064545 
L 115.371019 165.004375 
L 116.464132 189.413731 
L 117.557245 196.454905 
L 118.650358 199.478695 
L 119.743471 216.474544 
L 120.836584 219.440569 
L 121.929697 217.743637 
L 124.115923 235.493632 
L 125.209036 239.512723 
L 126.302149 240.692908 
L 127.395262 246.522366 
L 128.488375 256.66332 
L 129.581488 260.585904 
L 130.674601 259.264503 
L 131.767713 260.464898 
L 132.860826 265.088555 
L 133.953939 268.811939 
L 135.047052 270.580226 
L 136.140165 273.488453 
L 137.233278 279.688348 
L 138.326391 281.877293 
L 140.512617 279.543865 
L 141.60573 280.115958 
L 143.791956 276.278476 
L 144.885069 274.866228 
L 145.978182 268.392237 
L 147.071295 258.364703 
L 148.164408 249.77383 
L 149.257521 246.535941 
L 150.350634 239.964819 
L 151.443747 230.421561 
L 152.53686 227.228411 
L 153.629972 223.115183 
L 154.723085 215.928864 
L 156.909311 194.686012 
L 158.002424 193.701416 
L 159.095537 192.219402 
L 160.18865 194.442233 
L 161.281763 188.448312 
L 162.374876 166.993215 
L 163.467989 132.867588 
L 165.654215 103.54886 
L 167.840441 83.917854 
L 168.933554 85.023493 
L 170.026667 100.968721 
L 171.11978 92.707747 
L 172.212893 89.901087 
L 173.306006 93.921273 
L 174.399118 107.108653 
L 175.492231 123.123384 
L 176.585344 131.683181 
L 177.678457 152.641761 
L 178.77157 164.709525 
L 179.864683 173.874017 
L 183.144022 183.256092 
L 184.237135 193.891513 
L 185.330248 188.609056 
L 186.423361 188.046686 
L 187.516474 189.329944 
L 189.7027 195.231241 
L 190.795813 192.881196 
L 191.888926 201.56407 
L 192.982039 198.867153 
L 194.075152 201.631885 
L 195.168264 206.453587 
L 196.261377 207.223756 
L 197.35449 212.894194 
L 198.447603 219.99213 
L 199.540716 224.688392 
L 200.633829 226.144046 
L 201.726942 223.492455 
L 205.006281 243.398366 
L 206.099394 248.081808 
L 207.192507 253.549856 
L 208.28562 261.789179 
L 209.378733 266.444278 
L 210.471846 266.688814 
L 211.564959 268.341635 
L 214.844298 280.542778 
L 215.93741 283.351713 
L 217.030523 286.598437 
L 218.123636 288.285653 
L 219.216749 289.270837 
L 220.309862 289.55434 
L 221.402975 289.139401 
L 222.496088 289.092701 
L 223.589201 288.373384 
L 224.682314 287.391305 
L 225.775427 285.915223 
L 226.86854 282.648301 
L 227.961653 278.419799 
L 231.240992 251.952988 
L 232.334105 241.456407 
L 233.427218 234.750639 
L 235.613444 209.446575 
L 236.706556 201.292613 
L 237.799669 186.569242 
L 241.079008 150.039338 
L 242.172121 143.052763 
L 243.265234 140.356964 
L 244.358347 141.320037 
L 245.45146 141.853319 
L 246.544573 133.276872 
L 247.637686 136.932831 
L 248.730799 143.023665 
L 249.823912 140.041923 
L 250.917025 144.364855 
L 252.010138 143.144574 
L 253.103251 157.043675 
L 254.196364 162.6752 
L 255.289477 170.520441 
L 256.38259 175.246633 
L 257.475702 181.004863 
L 258.568815 192.832854 
L 259.661928 188.028419 
L 261.848154 198.171825 
L 262.941267 205.103654 
L 264.03438 203.989374 
L 265.127493 203.687883 
L 266.220606 216.868261 
L 267.313719 223.336952 
L 268.406832 226.603527 
L 269.499945 225.565526 
L 270.593058 225.582535 
L 271.686171 227.581482 
L 272.779284 224.801041 
L 273.872397 220.201271 
L 274.96551 220.174986 
L 276.058623 221.154828 
L 277.151736 225.797196 
L 278.244848 229.306451 
L 279.337961 235.012786 
L 281.524187 244.887234 
L 282.6173 251.047154 
L 283.710413 252.979707 
L 284.803526 257.39312 
L 286.989752 268.724858 
L 288.082865 271.091963 
L 289.175978 275.443974 
L 290.269091 282.400583 
L 291.362204 285.045265 
L 292.455317 286.971082 
L 293.54843 287.789889 
L 294.641543 287.792886 
L 295.734656 285.734286 
L 296.827769 282.526778 
L 297.920882 276.77571 
L 299.013994 269.398539 
L 300.107107 260.651542 
L 303.386446 219.180748 
L 304.479559 212.312203 
L 305.572672 188.525118 
L 306.665785 180.342222 
L 307.758898 181.221415 
L 308.852011 171.958393 
L 309.945124 151.262191 
L 311.038237 116.905289 
L 312.13135 108.283898 
L 313.224463 90.492122 
L 314.317576 77.18538 
L 315.410689 74.07743 
L 316.503802 76.273533 
L 317.596915 78.727994 
L 318.690028 86.533505 
L 319.78314 95.851465 
L 320.876253 109.698932 
L 321.969366 116.629308 
L 323.062479 119.531908 
L 324.155592 139.979948 
L 325.248705 134.10373 
L 326.341818 132.279873 
L 327.434931 125.823724 
L 328.528044 127.428544 
L 329.621157 128.443542 
L 330.71427 140.242285 
L 331.807383 161.784453 
L 332.900496 171.201697 
L 333.993609 190.283008 
L 335.086722 197.717474 
L 336.179835 208.108523 
L 337.272948 216.315799 
L 338.366061 214.012656 
L 339.459174 215.579946 
L 340.552287 221.44569 
L 341.645399 230.031788 
L 342.738512 240.287315 
L 343.831625 242.303486 
L 344.924738 251.45084 
L 346.017851 264.501415 
L 347.110964 269.342306 
L 348.204077 272.547127 
L 349.29719 273.607172 
L 350.390303 277.368608 
L 351.483416 280.270105 
L 352.576529 280.544312 
L 353.669642 280.26703 
L 354.762755 280.48205 
L 355.855868 281.281912 
L 356.948981 280.695946 
L 358.042094 278.327979 
L 359.135207 278.719087 
L 360.22832 278.895546 
L 361.321433 280.363945 
L 362.414545 282.156594 
L 363.507658 284.405794 
L 364.600771 286.324904 
L 366.786997 288.754419 
L 368.973223 290.118673 
L 371.159449 290.232846 
L 372.252562 289.379662 
L 373.345675 288.243085 
L 374.438788 286.530354 
L 376.625014 278.082654 
L 377.718127 272.029358 
L 378.81124 262.269627 
L 379.904353 250.204591 
L 380.997466 244.875929 
L 382.090579 238.073317 
L 384.276804 219.13728 
L 385.369917 214.036771 
L 386.46303 212.507337 
L 387.556143 205.819522 
L 388.649256 202.79851 
L 389.742369 192.451841 
L 390.835482 200.240211 
L 391.928595 205.685974 
L 393.021708 201.438226 
L 394.114821 197.820866 
L 396.301047 210.940082 
L 397.39416 204.36548 
L 398.487273 199.607475 
L 398.487273 199.607475 
" style="fill:none;stroke:#2ca02c;stroke-linecap:square;stroke-width:1.5;"/>
   </g>
   <g id="line2d_16">
    <path clip-path="url(#pe46b84c429)" d="M 73.832727 282.864911 
L 74.92584 283.450063 
L 77.112066 283.084985 
L 78.205179 281.242187 
L 79.298292 276.944072 
L 80.391405 274.86009 
L 82.577631 251.375135 
L 84.763857 202.52259 
L 85.85697 187.961933 
L 86.950083 161.961485 
L 89.136309 117.933026 
L 90.229421 111.586612 
L 91.322534 108.599506 
L 92.415647 81.298311 
L 93.50876 70.943688 
L 94.601873 72.259965 
L 95.694986 67.531261 
L 96.788099 64.921144 
L 97.881212 66.325653 
L 98.974325 75.459185 
L 100.067438 86.728651 
L 101.160551 84.165446 
L 102.253664 96.113498 
L 103.346777 109.676178 
L 104.43989 117.562967 
L 105.533003 131.377866 
L 106.626116 134.197186 
L 107.719229 158.946357 
L 108.812342 173.072407 
L 109.905455 149.870163 
L 110.998567 146.114949 
L 112.09168 157.541218 
L 113.184793 163.438605 
L 114.277906 159.949982 
L 115.371019 160.839223 
L 116.464132 183.728415 
L 117.557245 193.754091 
L 118.650358 197.318991 
L 119.743471 213.944099 
L 120.836584 217.205963 
L 121.929697 216.186902 
L 124.115923 232.953818 
L 125.209036 237.07994 
L 126.302149 238.33071 
L 127.395262 243.495461 
L 128.488375 253.326728 
L 129.581488 258.041974 
L 130.674601 257.193522 
L 131.767713 258.288352 
L 132.860826 262.754337 
L 133.953939 266.751033 
L 135.047052 268.7225 
L 136.140165 271.464613 
L 137.233278 276.933519 
L 138.326391 279.763422 
L 139.419504 279.067754 
L 140.512617 277.807939 
L 141.60573 278.361749 
L 143.791956 274.737712 
L 144.885069 273.404355 
L 145.978182 266.249883 
L 147.071295 255.167322 
L 148.164408 247.083972 
L 149.257521 243.759555 
L 150.350634 236.142459 
L 151.443747 226.606536 
L 152.53686 224.625612 
L 153.629972 220.475425 
L 154.723085 212.385715 
L 155.816198 200.292707 
L 156.909311 192.829738 
L 158.002424 191.888027 
L 159.095537 190.53309 
L 160.18865 192.869563 
L 161.281763 186.360828 
L 162.374876 162.976734 
L 163.467989 129.494668 
L 165.654215 98.3042 
L 166.747328 90.986223 
L 167.840441 80.26563 
L 168.933554 81.983682 
L 170.026667 95.275259 
L 171.11978 87.660552 
L 172.212893 86.617859 
L 173.306006 90.183723 
L 175.492231 119.509376 
L 176.585344 129.623064 
L 177.678457 147.646187 
L 178.77157 161.421652 
L 179.864683 170.25571 
L 180.957796 174.781681 
L 182.050909 177.979911 
L 183.144022 180.375333 
L 184.237135 191.704912 
L 185.330248 186.866415 
L 186.423361 186.083486 
L 187.516474 187.463658 
L 189.7027 193.506801 
L 190.795813 191.212439 
L 191.888926 199.618786 
L 192.982039 196.8397 
L 194.075152 200.133822 
L 195.168264 204.730516 
L 196.261377 204.388989 
L 197.35449 210.838126 
L 198.447603 218.393407 
L 199.540716 222.944968 
L 200.633829 223.781247 
L 201.726942 221.217949 
L 203.913168 234.792713 
L 205.006281 240.714124 
L 206.099394 245.410832 
L 207.192507 250.663949 
L 208.28562 258.661242 
L 209.378733 264.046559 
L 210.471846 265.01669 
L 211.564959 266.568332 
L 214.844298 278.15104 
L 217.030523 284.046304 
L 218.123636 285.823733 
L 219.216749 286.882035 
L 220.309862 287.189472 
L 221.402975 286.804716 
L 222.496088 286.726732 
L 223.589201 286.146799 
L 224.682314 285.159339 
L 225.775427 283.839055 
L 226.86854 280.762612 
L 227.961653 276.676055 
L 230.147879 258.977036 
L 231.240992 247.926544 
L 232.334105 238.198486 
L 233.427218 230.343759 
L 235.613444 205.976882 
L 236.706556 198.279972 
L 237.799669 183.900751 
L 241.079008 147.010249 
L 242.172121 140.103648 
L 243.265234 135.530233 
L 244.358347 138.564827 
L 245.45146 139.149629 
L 246.544573 131.20846 
L 247.637686 132.391422 
L 248.730799 140.541623 
L 249.823912 137.432723 
L 250.917025 141.8232 
L 252.010138 139.416354 
L 253.103251 153.527255 
L 256.38259 172.647611 
L 257.475702 176.837574 
L 258.568815 190.227091 
L 259.661928 186.336404 
L 260.755041 191.198761 
L 261.848154 196.609037 
L 262.941267 203.403261 
L 264.03438 200.818056 
L 265.127493 202.166267 
L 266.220606 214.251266 
L 267.313719 221.58718 
L 268.406832 224.443075 
L 269.499945 223.080021 
L 270.593058 223.705704 
L 271.686171 225.655122 
L 272.779284 220.922931 
L 273.872397 218.095637 
L 274.96551 217.933206 
L 276.058623 219.475981 
L 277.151736 224.002912 
L 278.244848 227.162287 
L 280.431074 237.624282 
L 281.524187 241.975832 
L 282.6173 248.286144 
L 283.710413 250.689356 
L 284.803526 254.897333 
L 286.989752 266.223882 
L 288.082865 269.15627 
L 289.175978 273.056316 
L 290.269091 279.539864 
L 291.362204 282.613719 
L 292.455317 284.552206 
L 293.54843 285.480181 
L 294.641543 285.49303 
L 295.734656 283.672678 
L 296.827769 280.657917 
L 297.920882 274.864421 
L 299.013994 267.36101 
L 300.107107 257.82548 
L 302.293333 226.811388 
L 303.386446 215.438975 
L 304.479559 208.082774 
L 305.572672 185.271638 
L 306.665785 178.273286 
L 307.758898 178.556957 
L 308.852011 169.893651 
L 309.945124 147.999609 
L 311.038237 111.238647 
L 312.13135 103.697197 
L 313.224463 87.317549 
L 314.317576 73.740777 
L 315.410689 70.481175 
L 316.503802 70.513369 
L 317.596915 72.281823 
L 318.690028 79.79744 
L 319.78314 90.401439 
L 320.876253 105.240185 
L 321.969366 113.204279 
L 323.062479 117.345051 
L 324.155592 137.28539 
L 325.248705 131.459539 
L 326.341818 130.113086 
L 327.434931 122.830492 
L 328.528044 124.729204 
L 329.621157 126.168591 
L 330.71427 135.212227 
L 331.807383 158.224922 
L 332.900496 167.923241 
L 333.993609 186.622937 
L 335.086722 195.408061 
L 337.272948 214.545031 
L 338.366061 211.893664 
L 339.459174 214.194475 
L 340.552287 219.8691 
L 341.645399 227.519138 
L 342.738512 237.567037 
L 343.831625 239.797895 
L 344.924738 247.984826 
L 346.017851 260.511478 
L 347.110964 266.89024 
L 348.204077 270.581107 
L 349.29719 271.886133 
L 351.483416 278.101499 
L 352.576529 278.773987 
L 353.669642 278.471786 
L 354.762755 278.741429 
L 355.855868 279.218147 
L 356.948981 279.031066 
L 358.042094 276.678765 
L 359.135207 277.02906 
L 360.22832 277.135462 
L 361.321433 278.259674 
L 364.600771 283.976611 
L 366.786997 286.326172 
L 367.88011 287.086492 
L 368.973223 287.66311 
L 370.066336 287.859618 
L 371.159449 287.862551 
L 372.252562 287.055975 
L 373.345675 286.006951 
L 374.438788 284.40378 
L 376.625014 276.440503 
L 377.718127 270.234814 
L 379.904353 247.191597 
L 380.997466 241.847331 
L 382.090579 233.865045 
L 383.183691 224.807261 
L 384.276804 214.323059 
L 385.369917 212.069577 
L 386.46303 208.823742 
L 387.556143 204.036753 
L 388.649256 200.783232 
L 389.742369 189.579525 
L 391.928595 203.668663 
L 393.021708 198.910614 
L 394.114821 196.355024 
L 395.207934 202.423515 
L 396.301047 209.595489 
L 397.39416 199.380041 
L 398.487273 197.873091 
L 398.487273 197.873091 
" style="fill:none;stroke:#d62728;stroke-linecap:square;stroke-width:1.5;"/>
   </g>
   <g id="patch_3">
    <path d="M 57.6 307.584 
L 57.6 41.472 
" style="fill:none;stroke:#000000;stroke-linecap:square;stroke-linejoin:miter;stroke-width:0.8;"/>
   </g>
   <g id="patch_4">
    <path d="M 414.72 307.584 
L 414.72 41.472 
" style="fill:none;stroke:#000000;stroke-linecap:square;stroke-linejoin:miter;stroke-width:0.8;"/>
   </g>
   <g id="patch_5">
    <path d="M 57.6 307.584 
L 414.72 307.584 
" style="fill:none;stroke:#000000;stroke-linecap:square;stroke-linejoin:miter;stroke-width:0.8;"/>
   </g>
   <g id="patch_6">
    <path d="M 57.6 41.472 
L 414.72 41.472 
" style="fill:none;stroke:#000000;stroke-linecap:square;stroke-linejoin:miter;stroke-width:0.8;"/>
   </g>
   <g id="text_13">
    <!-- Plot of Train Data vs MCMC Uncertainty  -->
    <defs>
     <path d="M 19.671875 64.796875 
L 19.671875 37.40625 
L 32.078125 37.40625 
Q 38.96875 37.40625 42.71875 40.96875 
Q 46.484375 44.53125 46.484375 51.125 
Q 46.484375 57.671875 42.71875 61.234375 
Q 38.96875 64.796875 32.078125 64.796875 
z
M 9.8125 72.90625 
L 32.078125 72.90625 
Q 44.34375 72.90625 50.609375 67.359375 
Q 56.890625 61.8125 56.890625 51.125 
Q 56.890625 40.328125 50.609375 34.8125 
Q 44.34375 29.296875 32.078125 29.296875 
L 19.671875 29.296875 
L 19.671875 0 
L 9.8125 0 
z
" id="DejaVuSans-50"/>
     <path d="M 9.421875 75.984375 
L 18.40625 75.984375 
L 18.40625 0 
L 9.421875 0 
z
" id="DejaVuSans-6c"/>
     <path d="M 30.609375 48.390625 
Q 23.390625 48.390625 19.1875 42.75 
Q 14.984375 37.109375 14.984375 27.296875 
Q 14.984375 17.484375 19.15625 11.84375 
Q 23.34375 6.203125 30.609375 6.203125 
Q 37.796875 6.203125 41.984375 11.859375 
Q 46.1875 17.53125 46.1875 27.296875 
Q 46.1875 37.015625 41.984375 42.703125 
Q 37.796875 48.390625 30.609375 48.390625 
z
M 30.609375 56 
Q 42.328125 56 49.015625 48.375 
Q 55.71875 40.765625 55.71875 27.296875 
Q 55.71875 13.875 49.015625 6.21875 
Q 42.328125 -1.421875 30.609375 -1.421875 
Q 18.84375 -1.421875 12.171875 6.21875 
Q 5.515625 13.875 5.515625 27.296875 
Q 5.515625 40.765625 12.171875 48.375 
Q 18.84375 56 30.609375 56 
z
" id="DejaVuSans-6f"/>
     <path d="M 18.3125 70.21875 
L 18.3125 54.6875 
L 36.8125 54.6875 
L 36.8125 47.703125 
L 18.3125 47.703125 
L 18.3125 18.015625 
Q 18.3125 11.328125 20.140625 9.421875 
Q 21.96875 7.515625 27.59375 7.515625 
L 36.8125 7.515625 
L 36.8125 0 
L 27.59375 0 
Q 17.1875 0 13.234375 3.875 
Q 9.28125 7.765625 9.28125 18.015625 
L 9.28125 47.703125 
L 2.6875 47.703125 
L 2.6875 54.6875 
L 9.28125 54.6875 
L 9.28125 70.21875 
z
" id="DejaVuSans-74"/>
     <path id="DejaVuSans-20"/>
     <path d="M 37.109375 75.984375 
L 37.109375 68.5 
L 28.515625 68.5 
Q 23.6875 68.5 21.796875 66.546875 
Q 19.921875 64.59375 19.921875 59.515625 
L 19.921875 54.6875 
L 34.71875 54.6875 
L 34.71875 47.703125 
L 19.921875 47.703125 
L 19.921875 0 
L 10.890625 0 
L 10.890625 47.703125 
L 2.296875 47.703125 
L 2.296875 54.6875 
L 10.890625 54.6875 
L 10.890625 58.5 
Q 10.890625 67.625 15.140625 71.796875 
Q 19.390625 75.984375 28.609375 75.984375 
z
" id="DejaVuSans-66"/>
     <path d="M -0.296875 72.90625 
L 61.375 72.90625 
L 61.375 64.59375 
L 35.5 64.59375 
L 35.5 0 
L 25.59375 0 
L 25.59375 64.59375 
L -0.296875 64.59375 
z
" id="DejaVuSans-54"/>
     <path d="M 41.109375 46.296875 
Q 39.59375 47.171875 37.8125 47.578125 
Q 36.03125 48 33.890625 48 
Q 26.265625 48 22.1875 43.046875 
Q 18.109375 38.09375 18.109375 28.8125 
L 18.109375 0 
L 9.078125 0 
L 9.078125 54.6875 
L 18.109375 54.6875 
L 18.109375 46.1875 
Q 20.953125 51.171875 25.484375 53.578125 
Q 30.03125 56 36.53125 56 
Q 37.453125 56 38.578125 55.875 
Q 39.703125 55.765625 41.0625 55.515625 
z
" id="DejaVuSans-72"/>
     <path d="M 34.28125 27.484375 
Q 23.390625 27.484375 19.1875 25 
Q 14.984375 22.515625 14.984375 16.5 
Q 14.984375 11.71875 18.140625 8.90625 
Q 21.296875 6.109375 26.703125 6.109375 
Q 34.1875 6.109375 38.703125 11.40625 
Q 43.21875 16.703125 43.21875 25.484375 
L 43.21875 27.484375 
z
M 52.203125 31.203125 
L 52.203125 0 
L 43.21875 0 
L 43.21875 8.296875 
Q 40.140625 3.328125 35.546875 0.953125 
Q 30.953125 -1.421875 24.3125 -1.421875 
Q 15.921875 -1.421875 10.953125 3.296875 
Q 6 8.015625 6 15.921875 
Q 6 25.140625 12.171875 29.828125 
Q 18.359375 34.515625 30.609375 34.515625 
L 43.21875 34.515625 
L 43.21875 35.40625 
Q 43.21875 41.609375 39.140625 45 
Q 35.0625 48.390625 27.6875 48.390625 
Q 23 48.390625 18.546875 47.265625 
Q 14.109375 46.140625 10.015625 43.890625 
L 10.015625 52.203125 
Q 14.9375 54.109375 19.578125 55.046875 
Q 24.21875 56 28.609375 56 
Q 40.484375 56 46.34375 49.84375 
Q 52.203125 43.703125 52.203125 31.203125 
z
" id="DejaVuSans-61"/>
     <path d="M 9.421875 54.6875 
L 18.40625 54.6875 
L 18.40625 0 
L 9.421875 0 
z
M 9.421875 75.984375 
L 18.40625 75.984375 
L 18.40625 64.59375 
L 9.421875 64.59375 
z
" id="DejaVuSans-69"/>
     <path d="M 54.890625 33.015625 
L 54.890625 0 
L 45.90625 0 
L 45.90625 32.71875 
Q 45.90625 40.484375 42.875 44.328125 
Q 39.84375 48.1875 33.796875 48.1875 
Q 26.515625 48.1875 22.3125 43.546875 
Q 18.109375 38.921875 18.109375 30.90625 
L 18.109375 0 
L 9.078125 0 
L 9.078125 54.6875 
L 18.109375 54.6875 
L 18.109375 46.1875 
Q 21.34375 51.125 25.703125 53.5625 
Q 30.078125 56 35.796875 56 
Q 45.21875 56 50.046875 50.171875 
Q 54.890625 44.34375 54.890625 33.015625 
z
" id="DejaVuSans-6e"/>
     <path d="M 19.671875 64.796875 
L 19.671875 8.109375 
L 31.59375 8.109375 
Q 46.6875 8.109375 53.6875 14.9375 
Q 60.6875 21.78125 60.6875 36.53125 
Q 60.6875 51.171875 53.6875 57.984375 
Q 46.6875 64.796875 31.59375 64.796875 
z
M 9.8125 72.90625 
L 30.078125 72.90625 
Q 51.265625 72.90625 61.171875 64.09375 
Q 71.09375 55.28125 71.09375 36.53125 
Q 71.09375 17.671875 61.125 8.828125 
Q 51.171875 0 30.078125 0 
L 9.8125 0 
z
" id="DejaVuSans-44"/>
     <path d="M 2.984375 54.6875 
L 12.5 54.6875 
L 29.59375 8.796875 
L 46.6875 54.6875 
L 56.203125 54.6875 
L 35.6875 0 
L 23.484375 0 
z
" id="DejaVuSans-76"/>
     <path d="M 44.28125 53.078125 
L 44.28125 44.578125 
Q 40.484375 46.53125 36.375 47.5 
Q 32.28125 48.484375 27.875 48.484375 
Q 21.1875 48.484375 17.84375 46.4375 
Q 14.5 44.390625 14.5 40.28125 
Q 14.5 37.15625 16.890625 35.375 
Q 19.28125 33.59375 26.515625 31.984375 
L 29.59375 31.296875 
Q 39.15625 29.25 43.1875 25.515625 
Q 47.21875 21.78125 47.21875 15.09375 
Q 47.21875 7.46875 41.1875 3.015625 
Q 35.15625 -1.421875 24.609375 -1.421875 
Q 20.21875 -1.421875 15.453125 -0.5625 
Q 10.6875 0.296875 5.421875 2 
L 5.421875 11.28125 
Q 10.40625 8.6875 15.234375 7.390625 
Q 20.0625 6.109375 24.8125 6.109375 
Q 31.15625 6.109375 34.5625 8.28125 
Q 37.984375 10.453125 37.984375 14.40625 
Q 37.984375 18.0625 35.515625 20.015625 
Q 33.0625 21.96875 24.703125 23.78125 
L 21.578125 24.515625 
Q 13.234375 26.265625 9.515625 29.90625 
Q 5.8125 33.546875 5.8125 39.890625 
Q 5.8125 47.609375 11.28125 51.796875 
Q 16.75 56 26.8125 56 
Q 31.78125 56 36.171875 55.265625 
Q 40.578125 54.546875 44.28125 53.078125 
z
" id="DejaVuSans-73"/>
     <path d="M 9.8125 72.90625 
L 24.515625 72.90625 
L 43.109375 23.296875 
L 61.8125 72.90625 
L 76.515625 72.90625 
L 76.515625 0 
L 66.890625 0 
L 66.890625 64.015625 
L 48.09375 14.015625 
L 38.1875 14.015625 
L 19.390625 64.015625 
L 19.390625 0 
L 9.8125 0 
z
" id="DejaVuSans-4d"/>
     <path d="M 64.40625 67.28125 
L 64.40625 56.890625 
Q 59.421875 61.53125 53.78125 63.8125 
Q 48.140625 66.109375 41.796875 66.109375 
Q 29.296875 66.109375 22.65625 58.46875 
Q 16.015625 50.828125 16.015625 36.375 
Q 16.015625 21.96875 22.65625 14.328125 
Q 29.296875 6.6875 41.796875 6.6875 
Q 48.140625 6.6875 53.78125 8.984375 
Q 59.421875 11.28125 64.40625 15.921875 
L 64.40625 5.609375 
Q 59.234375 2.09375 53.4375 0.328125 
Q 47.65625 -1.421875 41.21875 -1.421875 
Q 24.65625 -1.421875 15.125 8.703125 
Q 5.609375 18.84375 5.609375 36.375 
Q 5.609375 53.953125 15.125 64.078125 
Q 24.65625 74.21875 41.21875 74.21875 
Q 47.75 74.21875 53.53125 72.484375 
Q 59.328125 70.75 64.40625 67.28125 
z
" id="DejaVuSans-43"/>
     <path d="M 8.6875 72.90625 
L 18.609375 72.90625 
L 18.609375 28.609375 
Q 18.609375 16.890625 22.84375 11.734375 
Q 27.09375 6.59375 36.625 6.59375 
Q 46.09375 6.59375 50.34375 11.734375 
Q 54.59375 16.890625 54.59375 28.609375 
L 54.59375 72.90625 
L 64.5 72.90625 
L 64.5 27.390625 
Q 64.5 13.140625 57.4375 5.859375 
Q 50.390625 -1.421875 36.625 -1.421875 
Q 22.796875 -1.421875 15.734375 5.859375 
Q 8.6875 13.140625 8.6875 27.390625 
z
" id="DejaVuSans-55"/>
     <path d="M 48.78125 52.59375 
L 48.78125 44.1875 
Q 44.96875 46.296875 41.140625 47.34375 
Q 37.3125 48.390625 33.40625 48.390625 
Q 24.65625 48.390625 19.8125 42.84375 
Q 14.984375 37.3125 14.984375 27.296875 
Q 14.984375 17.28125 19.8125 11.734375 
Q 24.65625 6.203125 33.40625 6.203125 
Q 37.3125 6.203125 41.140625 7.25 
Q 44.96875 8.296875 48.78125 10.40625 
L 48.78125 2.09375 
Q 45.015625 0.34375 40.984375 -0.53125 
Q 36.96875 -1.421875 32.421875 -1.421875 
Q 20.0625 -1.421875 12.78125 6.34375 
Q 5.515625 14.109375 5.515625 27.296875 
Q 5.515625 40.671875 12.859375 48.328125 
Q 20.21875 56 33.015625 56 
Q 37.15625 56 41.109375 55.140625 
Q 45.0625 54.296875 48.78125 52.59375 
z
" id="DejaVuSans-63"/>
     <path d="M 56.203125 29.59375 
L 56.203125 25.203125 
L 14.890625 25.203125 
Q 15.484375 15.921875 20.484375 11.0625 
Q 25.484375 6.203125 34.421875 6.203125 
Q 39.59375 6.203125 44.453125 7.46875 
Q 49.3125 8.734375 54.109375 11.28125 
L 54.109375 2.78125 
Q 49.265625 0.734375 44.1875 -0.34375 
Q 39.109375 -1.421875 33.890625 -1.421875 
Q 20.796875 -1.421875 13.15625 6.1875 
Q 5.515625 13.8125 5.515625 26.8125 
Q 5.515625 40.234375 12.765625 48.109375 
Q 20.015625 56 32.328125 56 
Q 43.359375 56 49.78125 48.890625 
Q 56.203125 41.796875 56.203125 29.59375 
z
M 47.21875 32.234375 
Q 47.125 39.59375 43.09375 43.984375 
Q 39.0625 48.390625 32.421875 48.390625 
Q 24.90625 48.390625 20.390625 44.140625 
Q 15.875 39.890625 15.1875 32.171875 
z
" id="DejaVuSans-65"/>
     <path d="M 32.171875 -5.078125 
Q 28.375 -14.84375 24.75 -17.8125 
Q 21.140625 -20.796875 15.09375 -20.796875 
L 7.90625 -20.796875 
L 7.90625 -13.28125 
L 13.1875 -13.28125 
Q 16.890625 -13.28125 18.9375 -11.515625 
Q 21 -9.765625 23.484375 -3.21875 
L 25.09375 0.875 
L 2.984375 54.6875 
L 12.5 54.6875 
L 29.59375 11.921875 
L 46.6875 54.6875 
L 56.203125 54.6875 
z
" id="DejaVuSans-79"/>
    </defs>
    <g transform="translate(115.666875 35.472)scale(0.12 -0.12)">
     <use xlink:href="#DejaVuSans-50"/>
     <use x="60.302734" xlink:href="#DejaVuSans-6c"/>
     <use x="88.085938" xlink:href="#DejaVuSans-6f"/>
     <use x="149.267578" xlink:href="#DejaVuSans-74"/>
     <use x="188.476562" xlink:href="#DejaVuSans-20"/>
     <use x="220.263672" xlink:href="#DejaVuSans-6f"/>
     <use x="281.445312" xlink:href="#DejaVuSans-66"/>
     <use x="316.650391" xlink:href="#DejaVuSans-20"/>
     <use x="348.4375" xlink:href="#DejaVuSans-54"/>
     <use x="409.302734" xlink:href="#DejaVuSans-72"/>
     <use x="450.416016" xlink:href="#DejaVuSans-61"/>
     <use x="511.695312" xlink:href="#DejaVuSans-69"/>
     <use x="539.478516" xlink:href="#DejaVuSans-6e"/>
     <use x="602.857422" xlink:href="#DejaVuSans-20"/>
     <use x="634.644531" xlink:href="#DejaVuSans-44"/>
     <use x="711.646484" xlink:href="#DejaVuSans-61"/>
     <use x="772.925781" xlink:href="#DejaVuSans-74"/>
     <use x="812.134766" xlink:href="#DejaVuSans-61"/>
     <use x="873.414062" xlink:href="#DejaVuSans-20"/>
     <use x="905.201172" xlink:href="#DejaVuSans-76"/>
     <use x="964.380859" xlink:href="#DejaVuSans-73"/>
     <use x="1016.480469" xlink:href="#DejaVuSans-20"/>
     <use x="1048.267578" xlink:href="#DejaVuSans-4d"/>
     <use x="1134.546875" xlink:href="#DejaVuSans-43"/>
     <use x="1204.371094" xlink:href="#DejaVuSans-4d"/>
     <use x="1290.650391" xlink:href="#DejaVuSans-43"/>
     <use x="1360.474609" xlink:href="#DejaVuSans-20"/>
     <use x="1392.261719" xlink:href="#DejaVuSans-55"/>
     <use x="1465.455078" xlink:href="#DejaVuSans-6e"/>
     <use x="1528.833984" xlink:href="#DejaVuSans-63"/>
     <use x="1583.814453" xlink:href="#DejaVuSans-65"/>
     <use x="1645.337891" xlink:href="#DejaVuSans-72"/>
     <use x="1686.451172" xlink:href="#DejaVuSans-74"/>
     <use x="1725.660156" xlink:href="#DejaVuSans-61"/>
     <use x="1786.939453" xlink:href="#DejaVuSans-69"/>
     <use x="1814.722656" xlink:href="#DejaVuSans-6e"/>
     <use x="1878.101562" xlink:href="#DejaVuSans-74"/>
     <use x="1917.310547" xlink:href="#DejaVuSans-79"/>
     <use x="1976.490234" xlink:href="#DejaVuSans-20"/>
    </g>
   </g>
   <g id="legend_1">
    <g id="patch_7">
     <path d="M 277.843437 108.1845 
L 407.72 108.1845 
Q 409.72 108.1845 409.72 106.1845 
L 409.72 48.472 
Q 409.72 46.472 407.72 46.472 
L 277.843437 46.472 
Q 275.843437 46.472 275.843437 48.472 
L 275.843437 106.1845 
Q 275.843437 108.1845 277.843437 108.1845 
z
" style="fill:#ffffff;opacity:0.8;stroke:#cccccc;stroke-linejoin:miter;"/>
    </g>
    <g id="line2d_17">
     <path d="M 279.843437 54.570438 
L 299.843437 54.570438 
" style="fill:none;stroke:#1f77b4;stroke-linecap:square;stroke-width:1.5;"/>
    </g>
    <g id="line2d_18"/>
    <g id="text_14">
     <!-- actual -->
     <defs>
      <path d="M 8.5 21.578125 
L 8.5 54.6875 
L 17.484375 54.6875 
L 17.484375 21.921875 
Q 17.484375 14.15625 20.5 10.265625 
Q 23.53125 6.390625 29.59375 6.390625 
Q 36.859375 6.390625 41.078125 11.03125 
Q 45.3125 15.671875 45.3125 23.6875 
L 45.3125 54.6875 
L 54.296875 54.6875 
L 54.296875 0 
L 45.3125 0 
L 45.3125 8.40625 
Q 42.046875 3.421875 37.71875 1 
Q 33.40625 -1.421875 27.6875 -1.421875 
Q 18.265625 -1.421875 13.375 4.4375 
Q 8.5 10.296875 8.5 21.578125 
z
M 31.109375 56 
z
" id="DejaVuSans-75"/>
     </defs>
     <g transform="translate(307.843437 58.070438)scale(0.1 -0.1)">
      <use xlink:href="#DejaVuSans-61"/>
      <use x="61.279297" xlink:href="#DejaVuSans-63"/>
      <use x="116.259766" xlink:href="#DejaVuSans-74"/>
      <use x="155.46875" xlink:href="#DejaVuSans-75"/>
      <use x="218.847656" xlink:href="#DejaVuSans-61"/>
      <use x="280.126953" xlink:href="#DejaVuSans-6c"/>
     </g>
    </g>
    <g id="line2d_19">
     <path d="M 279.843437 69.248563 
L 299.843437 69.248563 
" style="fill:none;stroke:#ff7f0e;stroke-linecap:square;stroke-width:1.5;"/>
    </g>
    <g id="line2d_20"/>
    <g id="text_15">
     <!-- pred. (mean) -->
     <defs>
      <path d="M 18.109375 8.203125 
L 18.109375 -20.796875 
L 9.078125 -20.796875 
L 9.078125 54.6875 
L 18.109375 54.6875 
L 18.109375 46.390625 
Q 20.953125 51.265625 25.265625 53.625 
Q 29.59375 56 35.59375 56 
Q 45.5625 56 51.78125 48.09375 
Q 58.015625 40.1875 58.015625 27.296875 
Q 58.015625 14.40625 51.78125 6.484375 
Q 45.5625 -1.421875 35.59375 -1.421875 
Q 29.59375 -1.421875 25.265625 0.953125 
Q 20.953125 3.328125 18.109375 8.203125 
z
M 48.6875 27.296875 
Q 48.6875 37.203125 44.609375 42.84375 
Q 40.53125 48.484375 33.40625 48.484375 
Q 26.265625 48.484375 22.1875 42.84375 
Q 18.109375 37.203125 18.109375 27.296875 
Q 18.109375 17.390625 22.1875 11.75 
Q 26.265625 6.109375 33.40625 6.109375 
Q 40.53125 6.109375 44.609375 11.75 
Q 48.6875 17.390625 48.6875 27.296875 
z
" id="DejaVuSans-70"/>
      <path d="M 45.40625 46.390625 
L 45.40625 75.984375 
L 54.390625 75.984375 
L 54.390625 0 
L 45.40625 0 
L 45.40625 8.203125 
Q 42.578125 3.328125 38.25 0.953125 
Q 33.9375 -1.421875 27.875 -1.421875 
Q 17.96875 -1.421875 11.734375 6.484375 
Q 5.515625 14.40625 5.515625 27.296875 
Q 5.515625 40.1875 11.734375 48.09375 
Q 17.96875 56 27.875 56 
Q 33.9375 56 38.25 53.625 
Q 42.578125 51.265625 45.40625 46.390625 
z
M 14.796875 27.296875 
Q 14.796875 17.390625 18.875 11.75 
Q 22.953125 6.109375 30.078125 6.109375 
Q 37.203125 6.109375 41.296875 11.75 
Q 45.40625 17.390625 45.40625 27.296875 
Q 45.40625 37.203125 41.296875 42.84375 
Q 37.203125 48.484375 30.078125 48.484375 
Q 22.953125 48.484375 18.875 42.84375 
Q 14.796875 37.203125 14.796875 27.296875 
z
" id="DejaVuSans-64"/>
      <path d="M 31 75.875 
Q 24.46875 64.65625 21.28125 53.65625 
Q 18.109375 42.671875 18.109375 31.390625 
Q 18.109375 20.125 21.3125 9.0625 
Q 24.515625 -2 31 -13.1875 
L 23.1875 -13.1875 
Q 15.875 -1.703125 12.234375 9.375 
Q 8.59375 20.453125 8.59375 31.390625 
Q 8.59375 42.28125 12.203125 53.3125 
Q 15.828125 64.359375 23.1875 75.875 
z
" id="DejaVuSans-28"/>
      <path d="M 52 44.1875 
Q 55.375 50.25 60.0625 53.125 
Q 64.75 56 71.09375 56 
Q 79.640625 56 84.28125 50.015625 
Q 88.921875 44.046875 88.921875 33.015625 
L 88.921875 0 
L 79.890625 0 
L 79.890625 32.71875 
Q 79.890625 40.578125 77.09375 44.375 
Q 74.3125 48.1875 68.609375 48.1875 
Q 61.625 48.1875 57.5625 43.546875 
Q 53.515625 38.921875 53.515625 30.90625 
L 53.515625 0 
L 44.484375 0 
L 44.484375 32.71875 
Q 44.484375 40.625 41.703125 44.40625 
Q 38.921875 48.1875 33.109375 48.1875 
Q 26.21875 48.1875 22.15625 43.53125 
Q 18.109375 38.875 18.109375 30.90625 
L 18.109375 0 
L 9.078125 0 
L 9.078125 54.6875 
L 18.109375 54.6875 
L 18.109375 46.1875 
Q 21.1875 51.21875 25.484375 53.609375 
Q 29.78125 56 35.6875 56 
Q 41.65625 56 45.828125 52.96875 
Q 50 49.953125 52 44.1875 
z
" id="DejaVuSans-6d"/>
      <path d="M 8.015625 75.875 
L 15.828125 75.875 
Q 23.140625 64.359375 26.78125 53.3125 
Q 30.421875 42.28125 30.421875 31.390625 
Q 30.421875 20.453125 26.78125 9.375 
Q 23.140625 -1.703125 15.828125 -13.1875 
L 8.015625 -13.1875 
Q 14.5 -2 17.703125 9.0625 
Q 20.90625 20.125 20.90625 31.390625 
Q 20.90625 42.671875 17.703125 53.65625 
Q 14.5 64.65625 8.015625 75.875 
z
" id="DejaVuSans-29"/>
     </defs>
     <g transform="translate(307.843437 72.748563)scale(0.1 -0.1)">
      <use xlink:href="#DejaVuSans-70"/>
      <use x="63.476562" xlink:href="#DejaVuSans-72"/>
      <use x="104.558594" xlink:href="#DejaVuSans-65"/>
      <use x="166.082031" xlink:href="#DejaVuSans-64"/>
      <use x="229.558594" xlink:href="#DejaVuSans-2e"/>
      <use x="261.345703" xlink:href="#DejaVuSans-20"/>
      <use x="293.132812" xlink:href="#DejaVuSans-28"/>
      <use x="332.146484" xlink:href="#DejaVuSans-6d"/>
      <use x="429.558594" xlink:href="#DejaVuSans-65"/>
      <use x="491.082031" xlink:href="#DejaVuSans-61"/>
      <use x="552.361328" xlink:href="#DejaVuSans-6e"/>
      <use x="615.740234" xlink:href="#DejaVuSans-29"/>
     </g>
    </g>
    <g id="line2d_21">
     <path d="M 279.843437 83.926688 
L 299.843437 83.926688 
" style="fill:none;stroke:#2ca02c;stroke-linecap:square;stroke-width:1.5;"/>
    </g>
    <g id="line2d_22"/>
    <g id="text_16">
     <!-- pred.(5th percen.) -->
     <defs>
      <path d="M 10.796875 72.90625 
L 49.515625 72.90625 
L 49.515625 64.59375 
L 19.828125 64.59375 
L 19.828125 46.734375 
Q 21.96875 47.46875 24.109375 47.828125 
Q 26.265625 48.1875 28.421875 48.1875 
Q 40.625 48.1875 47.75 41.5 
Q 54.890625 34.8125 54.890625 23.390625 
Q 54.890625 11.625 47.5625 5.09375 
Q 40.234375 -1.421875 26.90625 -1.421875 
Q 22.3125 -1.421875 17.546875 -0.640625 
Q 12.796875 0.140625 7.71875 1.703125 
L 7.71875 11.625 
Q 12.109375 9.234375 16.796875 8.0625 
Q 21.484375 6.890625 26.703125 6.890625 
Q 35.15625 6.890625 40.078125 11.328125 
Q 45.015625 15.765625 45.015625 23.390625 
Q 45.015625 31 40.078125 35.4375 
Q 35.15625 39.890625 26.703125 39.890625 
Q 22.75 39.890625 18.8125 39.015625 
Q 14.890625 38.140625 10.796875 36.28125 
z
" id="DejaVuSans-35"/>
      <path d="M 54.890625 33.015625 
L 54.890625 0 
L 45.90625 0 
L 45.90625 32.71875 
Q 45.90625 40.484375 42.875 44.328125 
Q 39.84375 48.1875 33.796875 48.1875 
Q 26.515625 48.1875 22.3125 43.546875 
Q 18.109375 38.921875 18.109375 30.90625 
L 18.109375 0 
L 9.078125 0 
L 9.078125 75.984375 
L 18.109375 75.984375 
L 18.109375 46.1875 
Q 21.34375 51.125 25.703125 53.5625 
Q 30.078125 56 35.796875 56 
Q 45.21875 56 50.046875 50.171875 
Q 54.890625 44.34375 54.890625 33.015625 
z
" id="DejaVuSans-68"/>
     </defs>
     <g transform="translate(307.843437 87.426688)scale(0.1 -0.1)">
      <use xlink:href="#DejaVuSans-70"/>
      <use x="63.476562" xlink:href="#DejaVuSans-72"/>
      <use x="104.558594" xlink:href="#DejaVuSans-65"/>
      <use x="166.082031" xlink:href="#DejaVuSans-64"/>
      <use x="229.558594" xlink:href="#DejaVuSans-2e"/>
      <use x="261.345703" xlink:href="#DejaVuSans-28"/>
      <use x="300.359375" xlink:href="#DejaVuSans-35"/>
      <use x="363.982422" xlink:href="#DejaVuSans-74"/>
      <use x="403.191406" xlink:href="#DejaVuSans-68"/>
      <use x="466.570312" xlink:href="#DejaVuSans-20"/>
      <use x="498.357422" xlink:href="#DejaVuSans-70"/>
      <use x="561.833984" xlink:href="#DejaVuSans-65"/>
      <use x="623.357422" xlink:href="#DejaVuSans-72"/>
      <use x="664.439453" xlink:href="#DejaVuSans-63"/>
      <use x="719.419922" xlink:href="#DejaVuSans-65"/>
      <use x="780.943359" xlink:href="#DejaVuSans-6e"/>
      <use x="844.322266" xlink:href="#DejaVuSans-2e"/>
      <use x="876.109375" xlink:href="#DejaVuSans-29"/>
     </g>
    </g>
    <g id="line2d_23">
     <path d="M 279.843437 98.604813 
L 299.843437 98.604813 
" style="fill:none;stroke:#d62728;stroke-linecap:square;stroke-width:1.5;"/>
    </g>
    <g id="line2d_24"/>
    <g id="text_17">
     <!-- pred.(95th percen.) -->
     <defs>
      <path d="M 10.984375 1.515625 
L 10.984375 10.5 
Q 14.703125 8.734375 18.5 7.8125 
Q 22.3125 6.890625 25.984375 6.890625 
Q 35.75 6.890625 40.890625 13.453125 
Q 46.046875 20.015625 46.78125 33.40625 
Q 43.953125 29.203125 39.59375 26.953125 
Q 35.25 24.703125 29.984375 24.703125 
Q 19.046875 24.703125 12.671875 31.3125 
Q 6.296875 37.9375 6.296875 49.421875 
Q 6.296875 60.640625 12.9375 67.421875 
Q 19.578125 74.21875 30.609375 74.21875 
Q 43.265625 74.21875 49.921875 64.515625 
Q 56.59375 54.828125 56.59375 36.375 
Q 56.59375 19.140625 48.40625 8.859375 
Q 40.234375 -1.421875 26.421875 -1.421875 
Q 22.703125 -1.421875 18.890625 -0.6875 
Q 15.09375 0.046875 10.984375 1.515625 
z
M 30.609375 32.421875 
Q 37.25 32.421875 41.125 36.953125 
Q 45.015625 41.5 45.015625 49.421875 
Q 45.015625 57.28125 41.125 61.84375 
Q 37.25 66.40625 30.609375 66.40625 
Q 23.96875 66.40625 20.09375 61.84375 
Q 16.21875 57.28125 16.21875 49.421875 
Q 16.21875 41.5 20.09375 36.953125 
Q 23.96875 32.421875 30.609375 32.421875 
z
" id="DejaVuSans-39"/>
     </defs>
     <g transform="translate(307.843437 102.104813)scale(0.1 -0.1)">
      <use xlink:href="#DejaVuSans-70"/>
      <use x="63.476562" xlink:href="#DejaVuSans-72"/>
      <use x="104.558594" xlink:href="#DejaVuSans-65"/>
      <use x="166.082031" xlink:href="#DejaVuSans-64"/>
      <use x="229.558594" xlink:href="#DejaVuSans-2e"/>
      <use x="261.345703" xlink:href="#DejaVuSans-28"/>
      <use x="300.359375" xlink:href="#DejaVuSans-39"/>
      <use x="363.982422" xlink:href="#DejaVuSans-35"/>
      <use x="427.605469" xlink:href="#DejaVuSans-74"/>
      <use x="466.814453" xlink:href="#DejaVuSans-68"/>
      <use x="530.193359" xlink:href="#DejaVuSans-20"/>
      <use x="561.980469" xlink:href="#DejaVuSans-70"/>
      <use x="625.457031" xlink:href="#DejaVuSans-65"/>
      <use x="686.980469" xlink:href="#DejaVuSans-72"/>
      <use x="728.0625" xlink:href="#DejaVuSans-63"/>
      <use x="783.042969" xlink:href="#DejaVuSans-65"/>
      <use x="844.566406" xlink:href="#DejaVuSans-6e"/>
      <use x="907.945312" xlink:href="#DejaVuSans-2e"/>
      <use x="939.732422" xlink:href="#DejaVuSans-29"/>
     </g>
    </g>
   </g>
  </g>
 </g>
 <defs>
  <clipPath id="pe46b84c429">
   <rect height="266.112" width="357.12" x="57.6" y="41.472"/>
  </clipPath>
 </defs>
</svg>
